<?xml version="1.0" encoding="UTF-8" standalone="no"?>
<svg width="304px" height="26px" viewBox="0 0 304 26" version="1.1" xmlns="http://www.w3.org/2000/svg" xmlns:xlink="http://www.w3.org/1999/xlink">
    <!-- Generator: Sketch 41.1 (35376) - http://www.bohemiancoding.com/sketch -->
    <title>ic-cloud-integration</title>
    <desc>Created with Sketch.</desc>
    <defs></defs>
    <g id="Symbols" stroke="none" stroke-width="1" fill="none" fill-rule="evenodd">
        <g id="Primary-Global-Navigation--Apps" transform="translate(-25.000000, -16.000000)" fill="#FFFFFF">
            <g id="z">
                <g id="ic-cloud-integration" transform="translate(25.000000, 16.000000)">
                    <path d="M108.958833,18.5532273 C106.98249,20.5622373 104.695846,21.5667273 102.098833,21.5667273 C99.6324877,21.5667273 97.5826748,20.7174024 95.9493333,19.0187273 C94.3159918,17.3200521 93.4993333,15.2212398 93.4993333,12.7222273 C93.4993333,10.2395482 94.3200751,8.13665256 95.9615833,6.41347727 C97.6030915,4.69030199 99.6733208,3.82872727 102.172333,3.82872727 C104.704013,3.82872727 106.93349,4.73521821 108.860833,6.54822727 L107.537833,7.96922727 C105.888158,6.40121943 104.09151,5.61722727 102.147833,5.61722727 C100.253157,5.61722727 98.672923,6.29097054 97.4070833,7.63847727 C96.1412437,8.98598401 95.5083333,10.6642172 95.5083333,12.6732273 C95.5083333,14.6822373 96.145327,16.3686371 97.4193333,17.7324773 C98.6933397,19.0963174 100.269491,19.7782273 102.147833,19.7782273 C104.107843,19.7782273 105.953491,18.9534022 107.684833,17.3037273 L108.958833,18.5532273 Z M114.079333,21.2727273 L112.192833,21.2727273 L112.192833,3.38772727 L114.079333,3.38772727 L114.079333,21.2727273 Z M130.886333,14.9272273 C130.886333,16.7565698 130.24934,18.3204708 128.975333,19.6189773 C127.701327,20.9174838 126.125176,21.5667273 124.246833,21.5667273 C122.368491,21.5667273 120.80459,20.9256504 119.555083,19.6434773 C118.305577,18.3613042 117.680833,16.8055698 117.680833,14.9762273 C117.680833,13.1468848 118.313744,11.5829838 119.579583,10.2844773 C120.845423,8.98597078 122.417491,8.33672727 124.295833,8.33672727 C126.174176,8.33672727 127.74216,8.9778042 128.999833,10.2599773 C130.257506,11.5421504 130.886333,13.0978848 130.886333,14.9272273 Z M128.950833,14.9762273 C128.950833,13.587887 128.497588,12.4118988 127.591083,11.4482273 C126.684579,10.4845558 125.56984,10.0027273 124.246833,10.0027273 C122.89116,10.0027273 121.780504,10.4763892 120.914833,11.4237273 C120.049162,12.3710653 119.616333,13.538887 119.616333,14.9272273 C119.616333,16.3155675 120.065496,17.4874725 120.963833,18.4429773 C121.862171,19.3984821 122.972827,19.8762273 124.295833,19.8762273 C125.651507,19.8762273 126.766246,19.4025653 127.640083,18.4552273 C128.513921,17.5078892 128.950833,16.3482341 128.950833,14.9762273 Z M143.283333,15.8582273 L143.283333,8.60622727 L145.145333,8.60622727 L145.145333,21.2727273 L143.283333,21.2727273 L143.283333,19.0677273 C142.254328,20.7174022 140.808843,21.5422273 138.946833,21.5422273 C137.444159,21.5422273 136.260004,21.0808152 135.394333,20.1579773 C134.528662,19.2351393 134.095833,18.0060683 134.095833,16.4707273 L134.095833,8.60622727 L135.982333,8.60622727 L135.982333,16.0052273 C135.982333,17.1975666 136.28858,18.1326406 136.901083,18.8104773 C137.513586,19.488314 138.375161,19.8272273 139.485833,19.8272273 C140.580172,19.8272273 141.486663,19.4597309 142.205333,18.7247273 C142.924004,17.9897236 143.283333,17.0342332 143.283333,15.8582273 Z M161.437833,21.2727273 L159.551333,21.2727273 L159.551333,18.7247273 C158.277327,20.60307 156.660343,21.5422273 154.700333,21.5422273 C153.083325,21.5422273 151.695006,20.9705663 150.535333,19.8272273 C149.27766,18.5695543 148.648833,16.9444039 148.648833,14.9517273 C148.648833,12.9590506 149.27766,11.3339002 150.535333,10.0762273 C151.695006,8.91655481 153.083325,8.33672727 154.700333,8.33672727 C156.69301,8.33672727 158.309994,9.23505162 159.551333,11.0317273 L159.551333,3.38772727 L161.437833,3.38772727 L161.437833,21.2727273 Z M159.624833,14.9272273 C159.624833,13.5062202 159.159338,12.3220653 158.228333,11.3747273 C157.329996,10.4763894 156.268339,10.0272273 155.043333,10.0272273 C153.769327,10.0272273 152.724004,10.4600563 151.907333,11.3257273 C151.025329,12.2240651 150.584333,13.4245531 150.584333,14.9272273 C150.584333,16.3972346 151.017162,17.5854727 151.882833,18.4919773 C152.748504,19.3984818 153.801994,19.8517273 155.043333,19.8517273 C156.268339,19.8517273 157.338162,19.3903152 158.252833,18.4674773 C159.167505,17.5446393 159.624833,16.3645678 159.624833,14.9272273 Z M173.491833,4.12272727 L175.427333,4.12272727 L175.427333,21.2727273 L173.491833,21.2727273 L173.491833,4.12272727 Z M182.017833,14.0207273 L182.017833,21.2727273 L180.131333,21.2727273 L180.131333,8.60622727 L182.017833,8.60622727 L182.017833,10.8112273 C183.014172,9.16155236 184.459657,8.33672727 186.354333,8.33672727 C187.857008,8.33672727 189.041162,8.79813933 189.906833,9.72097727 C190.772504,10.6438152 191.205333,11.8728863 191.205333,13.4082273 L191.205333,21.2727273 L189.318833,21.2727273 L189.318833,13.8737273 C189.318833,12.681388 189.012586,11.746314 188.400083,11.0684773 C187.78758,10.3906406 186.926006,10.0517273 185.815333,10.0517273 C184.720995,10.0517273 183.814504,10.4192236 183.095833,11.1542273 C182.377163,11.8892309 182.017833,12.8447214 182.017833,14.0207273 Z M197.771333,10.2722273 L197.771333,17.6712273 C197.771333,19.075901 198.481826,19.7782273 199.902833,19.7782273 C200.523503,19.7782273 201.135997,19.6312287 201.740333,19.3372273 L201.740333,20.9542273 C201.05433,21.3135624 200.294837,21.4932273 199.461833,21.4932273 C197.077155,21.4932273 195.884833,20.3009059 195.884833,17.9162273 L195.884833,10.2722273 L194.120833,10.2722273 L194.120833,8.60622727 L195.884833,8.60622727 L195.884833,4.78422727 L197.771333,4.78422727 L197.771333,8.60622727 L201.789333,8.60622727 L201.789333,10.2722273 L197.771333,10.2722273 Z M206.248333,15.6377273 C206.379001,16.9607339 206.877162,18.0142234 207.742833,18.7982273 C208.559504,19.5495644 209.547661,19.9252273 210.707333,19.9252273 C212.226341,19.9252273 213.557494,19.3290666 214.700833,18.1367273 L215.876833,19.1902273 C214.455826,20.7745685 212.716344,21.5667273 210.658333,21.5667273 C208.877991,21.5667273 207.391673,20.9542334 206.199333,19.7292273 C204.957994,18.4878877 204.337333,16.8954037 204.337333,14.9517273 C204.337333,13.1060514 204.917161,11.5421504 206.076833,10.2599773 C207.236506,8.9778042 208.681991,8.33672727 210.413333,8.33672727 C212.226342,8.33672727 213.679995,8.99005407 214.774333,10.2967273 C215.803338,11.5380668 216.317833,13.1223843 216.317833,15.0497273 C216.317833,15.2947285 216.309667,15.4907265 216.293333,15.6377273 L206.248333,15.6377273 Z M206.248333,14.2412273 L214.406833,14.2412273 C214.308833,12.9998877 213.925003,11.9953978 213.255333,11.2277273 C212.52033,10.3620563 211.556673,9.92922727 210.364333,9.92922727 C209.269995,9.92922727 208.343087,10.3375565 207.583583,11.1542273 C206.82408,11.970898 206.379001,12.9998877 206.248333,14.2412273 Z M231.679333,19.0677273 C231.679333,21.0767373 231.103589,22.607972 229.952083,23.6614773 C228.800578,24.7149825 227.22851,25.2417273 225.235833,25.2417273 C223.096156,25.2417273 221.177008,24.6537332 219.478333,23.4777273 L220.335833,22.0077273 C221.822174,23.0857327 223.447325,23.6247273 225.211333,23.6247273 C226.63234,23.6247273 227.755246,23.2368145 228.580083,22.4609773 C229.404921,21.6851401 229.817333,20.5704012 229.817333,19.1167273 L229.817333,17.6222273 C228.477993,19.4025695 226.820177,20.2927273 224.843833,20.2927273 C223.243159,20.2927273 221.871172,19.7618992 220.727833,18.7002273 C219.502827,17.5732216 218.890333,16.1195695 218.890333,14.3392273 C218.890333,12.558885 219.502827,11.0888997 220.727833,9.92922727 C221.887506,8.8675553 223.259492,8.33672727 224.843833,8.33672727 C226.869177,8.33672727 228.518827,9.18605211 229.792833,10.8847273 L229.792833,8.60622727 L231.679333,8.60622727 L231.679333,19.0677273 Z M229.866333,14.3147273 C229.866333,13.0407209 229.404921,12.0035646 228.482083,11.2032273 C227.559245,10.4028899 226.469006,10.0027273 225.211333,10.0027273 C223.969994,10.0027273 222.941004,10.3865568 222.124333,11.1542273 C221.258662,11.9545646 220.825833,12.9998875 220.825833,14.2902273 C220.825833,15.5642336 221.266829,16.6095565 222.148833,17.4262273 C222.981837,18.2265646 224.002661,18.6267273 225.211333,18.6267273 C226.452673,18.6267273 227.538829,18.2224813 228.469833,17.4139773 C229.400838,16.6054732 229.866333,15.5724002 229.866333,14.3147273 Z M237.779833,16.2257273 L237.779833,21.2727273 L235.893333,21.2727273 L235.893333,8.60622727 L237.779833,8.60622727 L237.779833,11.9137273 C238.269836,10.8193885 238.947662,9.95373046 239.813333,9.31672727 C240.744338,8.64705726 241.789661,8.33672703 242.949333,8.38572727 L242.949333,10.4192273 L242.802333,10.4192273 C241.348659,10.4192273 240.164505,10.9092224 239.249833,11.8892273 C238.269828,12.9345658 237.779833,14.3800514 237.779833,16.2257273 Z M250.397333,10.1007273 C249.188661,10.1007273 247.906507,10.4110575 246.550833,11.0317273 L245.987333,9.48822727 C247.522674,8.78589043 249.057992,8.43472727 250.593333,8.43472727 C252.324675,8.43472727 253.655829,8.86755628 254.586833,9.73322727 C255.517838,10.5988983 255.983333,11.8647189 255.983333,13.5307273 L255.983333,21.2727273 L254.170333,21.2727273 L254.170333,19.3617273 C253.059661,20.8154012 251.53251,21.5422273 249.588833,21.5422273 C248.314827,21.5422273 247.236838,21.2073973 246.354833,20.5377273 C245.358495,19.8027236 244.860333,18.8145668 244.860333,17.5732273 C244.860333,16.2502207 245.350328,15.2334808 246.330333,14.5229773 C247.310338,13.8124737 248.625158,13.4572273 250.274833,13.4572273 C251.59784,13.4572273 252.896327,13.6368921 254.170333,13.9962273 L254.170333,13.5552273 C254.170333,11.2522158 252.912679,10.1007273 250.397333,10.1007273 Z M250.470833,14.8537273 C249.294827,14.8537273 248.384253,15.0905582 247.739083,15.5642273 C247.093913,16.0378963 246.771333,16.6830565 246.771333,17.4997273 C246.771333,18.2837312 247.08983,18.9125582 247.726833,19.3862273 C248.314836,19.8272295 249.057996,20.0477273 249.956333,20.0477273 C251.132339,20.0477273 252.132746,19.7251472 252.957583,19.0799773 C253.782421,18.4348074 254.194833,17.6140656 254.194833,16.6177273 L254.194833,15.3927273 C252.953494,15.0333921 251.712173,14.8537273 250.470833,14.8537273 Z M262.549333,10.2722273 L262.549333,17.6712273 C262.549333,19.075901 263.259826,19.7782273 264.680833,19.7782273 C265.301503,19.7782273 265.913997,19.6312287 266.518333,19.3372273 L266.518333,20.9542273 C265.83233,21.3135624 265.072837,21.4932273 264.239833,21.4932273 C261.855155,21.4932273 260.662833,20.3009059 260.662833,17.9162273 L260.662833,10.2722273 L258.898833,10.2722273 L258.898833,8.60622727 L260.662833,8.60622727 L260.662833,4.78422727 L262.549333,4.78422727 L262.549333,8.60622727 L266.567333,8.60622727 L266.567333,10.2722273 L262.549333,10.2722273 Z M272.104333,5.83772727 L269.948333,5.83772727 L269.948333,3.75522727 L272.104333,3.75522727 L272.104333,5.83772727 Z M271.957333,21.2727273 L270.070833,21.2727273 L270.070833,8.60622727 L271.957333,8.60622727 L271.957333,21.2727273 Z M288.764333,14.9272273 C288.764333,16.7565698 288.12734,18.3204708 286.853333,19.6189773 C285.579327,20.9174838 284.003176,21.5667273 282.124833,21.5667273 C280.246491,21.5667273 278.68259,20.9256504 277.433083,19.6434773 C276.183577,18.3613042 275.558833,16.8055698 275.558833,14.9762273 C275.558833,13.1468848 276.191744,11.5829838 277.457583,10.2844773 C278.723423,8.98597078 280.295491,8.33672727 282.173833,8.33672727 C284.052176,8.33672727 285.62016,8.9778042 286.877833,10.2599773 C288.135506,11.5421504 288.764333,13.0978848 288.764333,14.9272273 Z M286.828833,14.9762273 C286.828833,13.587887 286.375588,12.4118988 285.469083,11.4482273 C284.562579,10.4845558 283.44784,10.0027273 282.124833,10.0027273 C280.76916,10.0027273 279.658504,10.4763892 278.792833,11.4237273 C277.927162,12.3710653 277.494333,13.538887 277.494333,14.9272273 C277.494333,16.3155675 277.943496,17.4874725 278.841833,18.4429773 C279.740171,19.3984821 280.850827,19.8762273 282.173833,19.8762273 C283.529507,19.8762273 284.644246,19.4025653 285.518083,18.4552273 C286.391921,17.5078892 286.828833,16.3482341 286.828833,14.9762273 Z M294.056333,14.0207273 L294.056333,21.2727273 L292.169833,21.2727273 L292.169833,8.60622727 L294.056333,8.60622727 L294.056333,10.8112273 C295.052672,9.16155236 296.498157,8.33672727 298.392833,8.33672727 C299.895508,8.33672727 301.079662,8.79813933 301.945333,9.72097727 C302.811004,10.6438152 303.243833,11.8728863 303.243833,13.4082273 L303.243833,21.2727273 L301.357333,21.2727273 L301.357333,13.8737273 C301.357333,12.681388 301.051086,11.746314 300.438583,11.0684773 C299.82608,10.3906406 298.964506,10.0517273 297.853833,10.0517273 C296.759495,10.0517273 295.853004,10.4192236 295.134333,11.1542273 C294.415663,11.8892309 294.056333,12.8447214 294.056333,14.0207273 Z" id="cloudIntegration"></path>
                    <path d="M9.51061594,5.05390909 L9.51061594,22.1163158 L6.89337681,22.1163158 L6.89337681,5.05390909 L0.0694166667,5.05390909 L0.0694166667,2.54880861 L16.3345761,2.54880861 L16.3345761,5.05390909 L9.51061594,5.05390909 Z M19.4489167,2.54880861 L22.0661558,2.54880861 L22.0661558,22.1163158 L19.4489167,22.1163158 L19.4489167,2.54880861 Z M40.5347174,16.576622 C40.5347174,19.893445 38.3238587,22.1163158 33.3068623,22.1163158 L26.670558,22.1163158 L26.670558,2.54880861 L33.1204493,2.54880861 C37.8255145,2.54880861 39.9120978,4.67801914 39.9120978,7.74633014 C39.9120978,9.74941148 38.7588225,11.2217512 36.5790326,12.0359713 C39.1652029,12.6928421 40.5347174,14.3837225 40.5347174,16.576622 Z M33.3379312,4.9902201 L29.3188659,4.9902201 L29.3188659,11.1268421 L32.9327935,11.1268421 C35.7364457,11.1268421 37.2637899,9.87554067 37.2637899,7.96487081 C37.2637899,6.08666986 35.8930326,4.9902201 33.3379312,4.9902201 Z M33.1515181,13.5382823 L29.3188659,13.5382823 L29.3188659,19.6749043 L33.5566558,19.6749043 C36.4535145,19.6749043 37.8876522,18.6421435 37.8876522,16.6065933 C37.8876522,14.3525024 35.8930326,13.5382823 33.1515181,13.5382823 Z M57.8015362,6.11788995 C56.087779,4.9902201 54.4995399,4.45822967 52.4738514,4.45822967 C48.2360616,4.45822967 45.4013406,7.40166029 45.4013406,12.254512 C45.4013406,17.1073636 48.2671304,20.2068947 52.5359891,20.2068947 C54.6238152,20.2068947 56.6805725,19.3614545 58.050087,18.2974737 L58.4862935,20.9586746 C56.8980543,21.9602153 54.6548841,22.585866 52.4738514,22.585866 C46.7720978,22.585866 42.720721,18.6109234 42.720721,12.3793923 C42.720721,6.14911005 46.8031667,2.07800957 52.4738514,2.07800957 C54.6859529,2.07800957 57.0533986,2.70490909 58.6428804,3.70769856 L57.8015362,6.11788995 Z M74.6868297,3.4591866 C74.3985109,3.28060766 74.0977645,3.11701435 73.7858333,2.97090431 C71.2406739,7.87495694 66.6151449,13.7081196 60.4958261,17.0274402 C60.8487681,17.8229282 61.2949167,18.5422392 61.823087,19.180378 C67.0849058,15.54511 71.9577428,9.46468421 74.6868297,3.4591866 Z M73.5546812,2.86600478 C72.2970145,2.3165311 70.8715761,2.02056459 69.3255906,2.02056459 C63.6014674,2.02056459 59.5563043,6.4600622 59.5563043,12.3057129 C59.5563043,13.2922679 59.6606957,14.221378 59.8582935,15.0892967 C65.7141486,12.6903445 70.9163152,7.40290909 73.5546812,2.86600478 Z M74.9067971,3.59655502 C71.9030616,11.0181962 68.2431522,16.2719139 63.567913,20.7888373 C65.1474529,21.8915311 67.1134891,22.497201 69.3255906,22.497201 C75.0497138,22.497201 79.0936341,18.0264833 79.0936341,12.1808325 C79.0936341,8.30704306 77.4979384,5.30242105 74.9067971,3.59655502 Z M79.0936341,2.94842584 L79.0936341,2.93344019 C79.0936341,1.55476077 80.2058986,0.392124402 81.6077246,0.392124402 C83.0244638,0.392124402 84.123058,1.53977512 84.123058,2.91970335 L84.123058,2.93344019 C84.123058,4.31336842 83.0095507,5.47600478 81.6077246,5.47600478 C80.1922283,5.47600478 79.0936341,4.32835407 79.0936341,2.94842584 Z M83.8334964,2.93344019 L83.8334964,2.91970335 C83.8334964,1.68463636 82.8803043,0.668110048 81.6077246,0.668110048 C80.350058,0.668110048 79.3819529,1.69962201 79.3819529,2.93344019 L79.3819529,2.94842584 C79.3819529,4.18224402 80.3363877,5.20001914 81.6077246,5.20001914 C82.8653913,5.20001914 83.8334964,4.16850718 83.8334964,2.93344019 Z M80.6247065,1.5984689 L81.7817101,1.5984689 C82.3446775,1.5984689 82.7647283,1.87320574 82.7647283,2.41019139 C82.7647283,2.83228708 82.518663,3.09328708 82.170692,3.195689 L82.8504783,4.16850718 L82.2589275,4.16850718 L81.651221,3.28310526 L81.116837,3.28310526 L81.116837,4.16850718 L80.6247065,4.16850718 L80.6247065,1.5984689 Z M81.7382138,2.87599522 C82.0712717,2.87599522 82.2589275,2.70241148 82.2589275,2.45514833 C82.2589275,2.17916268 82.0712717,2.03430144 81.7382138,2.03430144 L81.116837,2.03430144 L81.116837,2.87599522 L81.7382138,2.87599522 Z" id="tibco"></path>
                </g>
            </g>
        </g>
    </g>
</svg>