<?xml version="1.0" encoding="UTF-8"?>
<svg width="96px" height="96px" viewBox="0 0 96 96" version="1.1" xmlns="http://www.w3.org/2000/svg" xmlns:xlink="http://www.w3.org/1999/xlink">
    <!-- Generator: sketchtool 49.3 (51167) - http://www.bohemiancoding.com/sketch -->
    <title>D510AF43-D79A-4B81-9F15-44336484AB39</title>
    <desc>Created with sketchtool.</desc>
    <defs></defs>
    <g id="Symbols" stroke="none" stroke-width="1" fill="none" fill-rule="evenodd">
        <g id="image/shopping">
            <g transform="translate(0.000000, 4.000000)" id="Group">
                <g>
                    <g transform="translate(4.363636, 0.000000)" fill-rule="nonzero" id="Shape">
                        <path d="M87.2727273,44 C87.2727273,19.69 67.7454545,0 43.6363636,0 C19.5272727,0 0,19.69 0,44 C0,50.49 1.41818182,56.65 3.92727273,62.15 L83.4545455,62.15 C85.8545455,56.65 87.2727273,50.49 87.2727273,44 Z" fill="#BDFBFC"></path>
                        <path d="M3.92727273,62.15 C10.8,77.44 25.9636364,88 43.6363636,88 C61.3090909,88 76.5818182,77.44 83.3454545,62.15 L3.92727273,62.15 Z" fill="#FFEF9E"></path>
                        <path d="M81.3818182,66 C82.1454545,64.79 82.8,63.47 83.3454545,62.15 L3.92727273,62.15 C4.47272727,63.47 5.23636364,64.79 5.89090909,66 L81.3818182,66 Z" fill="#FFFACF"></path>
                    </g>
                    <g transform="translate(0.000000, 61.600000)" id="Shape" stroke="#45413C" stroke-linecap="round" stroke-linejoin="round" stroke-width="1.09090909">
                        <path d="M5.45454545,0.55 L90.5454545,0.55"></path>
                        <path d="M0.545454545,0.55 L3.27272727,0.55"></path>
                        <path d="M92.7272727,0.55 L95.4545455,0.55"></path>
                    </g>
                </g>
                <g transform="translate(13.090909, 7.700000)">
                    <ellipse id="Oval" fill="#45413C" fill-rule="nonzero" opacity="0.15" cx="20.5090909" cy="69.85" rx="16.5818182" ry="1.65"></ellipse>
                    <path d="M43.0909091,40.7 L43.0909091,41.8 C43.0909091,43.01 44.0727273,44 45.2727273,44 L55.0909091,44 L55.0909091,42.9 C55.0909091,41.69 54.1090909,40.7 52.9090909,40.7 L51.2727273,40.7 L49.5272727,38.5 C49.3090909,38.17 48.8727273,38.28 48.6545455,38.5 L48,39.6 C46.9090909,40.04 45.6,40.04 44.4,39.71 C43.7454545,39.49 43.0909091,40.04 43.0909091,40.7 Z" id="Shape" stroke="#45413C" stroke-width="1.09090909" fill="#FF87AF" fill-rule="nonzero" stroke-linecap="round" stroke-linejoin="round"></path>
                    <path d="M64.9090909,12.1 C64.9090909,12.76 64.4727273,13.2 63.8181818,13.2 L57.2727273,13.2 C56.6181818,13.2 56.1818182,12.76 56.1818182,12.1 L56.1818182,8.8 C56.1818182,8.47 56.4,8.25 56.7272727,8.25 L64.3636364,8.25 C64.6909091,8.25 64.9090909,8.47 64.9090909,8.8 L64.9090909,12.1 Z" id="Shape" stroke="#45413C" stroke-width="1.09090909" fill="#9F5AE5" fill-rule="nonzero" stroke-linecap="round" stroke-linejoin="round"></path>
                    <path d="M64.9090909,8.8 C64.9090909,10.01 63.9272727,11 62.7272727,11 L58.3636364,11 C57.1636364,11 56.1818182,10.01 56.1818182,8.8 L56.1818182,8.8 C56.1818182,8.47 56.4,8.25 56.7272727,8.25 L64.3636364,8.25 C64.6909091,8.25 64.9090909,8.47 64.9090909,8.8 L64.9090909,8.8 Z" id="Shape" stroke="#45413C" stroke-width="1.09090909" fill="#BF8DF2" fill-rule="nonzero" stroke-linecap="round" stroke-linejoin="round"></path>
                    <g transform="translate(37.090909, 20.900000)" id="Shape" stroke="#45413C" stroke-linecap="round" stroke-linejoin="round" stroke-width="1.09090909">
                        <path d="M7.63636364,4.4 L9.27272727,4.4 C11.4545455,5.5 12,6.05 12,7.7 L8.61818182,7.7 C5.45454545,7.7 5.45454545,4.95 2.72727273,4.95 C1.2,4.95 0,3.74 0,2.2 L0.327272727,0.77 C0.436363636,0.44 0.872727273,0.22 1.2,0.44 C2.29090909,1.21 4.8,2.75 7.63636364,4.4 Z" fill="#FF6242" fill-rule="nonzero"></path>
                        <path d="M1.63636364,4.73 L1.63636364,7.7"></path>
                    </g>
                    <g transform="translate(52.363636, 20.900000)" id="Shape" stroke="#45413C" stroke-linecap="round" stroke-linejoin="round" stroke-width="1.09090909">
                        <path d="M8.18181818,4.4 L9.81818182,4.4 C12,5.5 12.5454545,6.05 12.5454545,7.7 L9.16363636,7.7 C6,7.7 6,4.95 3.27272727,4.95 C1.74545455,4.95 0.545454545,3.74 0.545454545,2.2 L0.872727273,0.77 C0.981818182,0.44 1.41818182,0.22 1.74545455,0.44 C2.83636364,1.21 5.34545455,2.75 8.18181818,4.4 Z" fill="#656769" fill-rule="nonzero"></path>
                        <path d="M2.18181818,4.73 L2.18181818,7.7"></path>
                    </g>
                    <path d="M70.3636364,25.63 L70.3636364,28.6" id="Shape" stroke="#45413C" stroke-width="1.09090909" stroke-linecap="round" stroke-linejoin="round"></path>
                    <path d="M50.9454545,10.34 C51.1636364,11 51.0545455,11.77 50.6181818,12.32 C50.1818182,12.87 49.5272727,13.2 48.8727273,13.2 L42.2181818,13.2 C41.5636364,13.2 40.9090909,12.87 40.4727273,12.32 C40.0363636,11.77 39.9272727,11 40.1454545,10.34 L41.4545455,6.05 L49.6363636,6.05 L50.9454545,10.34 Z" id="Shape" stroke="#45413C" stroke-width="1.09090909" fill="#FFAA54" fill-rule="nonzero" stroke-linecap="round" stroke-linejoin="round"></path>
                    <path d="M41.4545455,6.05 L41.4545455,5.17 C41.4545455,2.86 43.3090909,0.99 45.6,0.99 C47.8909091,0.99 49.7454545,2.86 49.7454545,5.17 L49.7454545,6.05" id="Shape" stroke="#45413C" stroke-width="1.09090909" stroke-linecap="round" stroke-linejoin="round"></path>
                    <path d="M46.9090909,9.02 C46.9090909,9.79 46.2545455,10.34 45.6,10.34 C44.9454545,10.34 44.2909091,9.68 44.2909091,9.02 L44.2909091,5.94 L47.0181818,5.94 L47.0181818,9.02 L46.9090909,9.02 Z" id="Shape" stroke="#45413C" stroke-width="1.09090909" fill="#FF8A14" fill-rule="nonzero" stroke-linecap="round" stroke-linejoin="round"></path>
                    <path d="M55.0909091,44 L55.0909091,42.9 C55.0909091,41.69 54.1090909,40.7 52.9090909,40.7 L51.2727273,40.7 L51.2727273,44 L55.0909091,44 Z" id="Shape" stroke="#45413C" stroke-width="1.09090909" fill="#FFFFFF" fill-rule="nonzero" stroke-linecap="round" stroke-linejoin="round"></path>
                    <path d="M43.6363636,41.25 L43.0909091,41.25 L43.0909091,41.8 C43.0909091,43.01 44.0727273,44 45.2727273,44 L45.8181818,44 L45.8181818,43.45 C45.8181818,42.24 44.8363636,41.25 43.6363636,41.25 Z" id="Shape" stroke="#45413C" stroke-width="1.09090909" fill="#FFFFFF" fill-rule="nonzero" stroke-linecap="round" stroke-linejoin="round"></path>
                    <path d="M76.3636364,44 L62.7272727,44 L62.7272727,41.25 L75.2727273,41.25 C75.9272727,41.25 76.3636364,41.69 76.3636364,42.35 L76.3636364,44 Z" id="Shape" stroke="#45413C" stroke-width="1.09090909" fill="#FFCC99" fill-rule="nonzero" stroke-linecap="round" stroke-linejoin="round"></path>
                    <path d="M75.2727273,41.25 L62.7272727,41.25 C62.0727273,41.25 61.6363636,40.81 61.6363636,40.15 L61.6363636,39.6 C61.6363636,38.94 62.0727273,38.5 62.7272727,38.5 L74.1818182,38.5 C74.8363636,38.5 75.2727273,38.94 75.2727273,39.6 L75.2727273,41.25 Z" id="Shape" stroke="#45413C" stroke-width="1.09090909" fill="#FFB0CA" fill-rule="nonzero" stroke-linecap="round" stroke-linejoin="round"></path>
                    <path d="M72.1090909,13.2 L34.1454545,13.2 C33.3818182,13.2 32.8363636,13.86 32.8363636,14.52 C32.8363636,15.18 33.4909091,15.84 34.1454545,15.84 L73.6363636,15.84" id="Shape" stroke="#45413C" stroke-width="1.09090909" fill="#FFFFFF" fill-rule="nonzero" stroke-linecap="round" stroke-linejoin="round"></path>
                    <path d="M77.8909091,28.6 L34.1454545,28.6 C33.3818182,28.6 32.8363636,29.26 32.8363636,29.92 C32.8363636,30.58 33.4909091,31.24 34.1454545,31.24 L78.3272727,31.24" id="Shape" stroke="#45413C" stroke-width="1.09090909" fill="#FFFFFF" fill-rule="nonzero" stroke-linecap="round" stroke-linejoin="round"></path>
                    <path d="M77.8909091,44 L34.0363636,44 C33.2727273,44 32.7272727,44.66 32.7272727,45.32 C32.7272727,45.98 33.3818182,46.64 34.0363636,46.64 L77.2363636,46.64" id="Shape" stroke="#45413C" stroke-width="1.09090909" fill="#FFFFFF" fill-rule="nonzero" stroke-linecap="round" stroke-linejoin="round"></path>
                    <g transform="translate(0.000000, 8.800000)">
                        <g transform="translate(12.000000, 2.200000)">
                            <path d="M0.545454545,9.35 C0.545454545,8.69 0.981818182,8.14 1.63636364,8.03 L1.63636364,7.15 C1.63636364,3.52 4.58181818,0.55 8.18181818,0.55 C11.7818182,0.55 14.7272727,3.52 14.7272727,7.15 L14.7272727,8.03 C15.3818182,8.14 15.8181818,8.69 15.8181818,9.35 C15.8181818,10.01 15.2727273,10.67 14.6181818,10.67 C13.9636364,13.64 11.3454545,15.95 8.18181818,15.95 C5.01818182,15.95 2.4,13.75 1.74545455,10.67 C1.09090909,10.67 0.545454545,10.01 0.545454545,9.35 Z" id="Shape" stroke="#45413C" stroke-width="1.09090909" fill="#FFDA8F" fill-rule="nonzero" stroke-linecap="round" stroke-linejoin="round"></path>
                            <ellipse id="Oval" fill="#FFBE3D" fill-rule="nonzero" cx="11.6727273" cy="10.12" rx="1" ry="1"></ellipse>
                            <ellipse id="Oval" fill="#FFBE3D" fill-rule="nonzero" cx="4.58181818" cy="10.12" rx="1" ry="1"></ellipse>
                            <path d="M9.81818182,12.1 C8.83636364,12.76 7.52727273,12.76 6.54545455,12.1" id="Shape" stroke="#45413C" stroke-width="1.09090909" stroke-linecap="round" stroke-linejoin="round"></path>
                            <path d="M4.58181818,11 C4.14545455,11 3.70909091,10.67 3.70909091,10.12 C3.70909091,9.68 4.03636364,9.24 4.58181818,9.24 C5.12727273,9.24 5.45454545,9.57 5.45454545,10.12" id="Shape" fill="#FFBE3D" fill-rule="nonzero"></path>
                            <path d="M5.45454545,8.14 C5.78181818,7.81 6.43636364,7.81 6.76363636,8.14" id="Shape" stroke="#45413C" stroke-width="1.09090909" stroke-linecap="round" stroke-linejoin="round"></path>
                            <path d="M9.6,8.14 C9.92727273,7.81 10.5818182,7.81 10.9090909,8.14" id="Shape" stroke="#45413C" stroke-width="1.09090909" stroke-linecap="round" stroke-linejoin="round"></path>
                        </g>
                        <path d="M39.1636364,27.94 C38.9454545,27.83 38.7272727,27.83 38.4,27.83 C37.6363636,27.83 36.9818182,28.27 36.6545455,29.04 L35.0181818,32.89 C34.5818182,33.77 33.7090909,34.43 32.7272727,34.43 L32.4,34.43 C31.0909091,34.43 30,33.33 30,32.01 L30,30.36 C30,24.86 25.5272727,20.46 20.1818182,20.46 C14.8363636,20.46 10.3636364,24.86 10.3636364,30.36 L10.3636364,32.01 C10.3636364,33.33 9.27272727,34.43 7.96363636,34.43 L7.63636364,34.43 C6.65454545,34.43 5.78181818,33.88 5.34545455,32.89 L3.70909091,29.04 C3.38181818,28.27 2.72727273,27.83 1.96363636,27.83 C1.74545455,27.83 1.41818182,27.83 1.2,27.94 C0.218181818,28.38 -0.218181818,29.48 0.109090909,30.47 L1.74545455,34.32 C2.72727273,36.63 5.01818182,38.17 7.52727273,38.17 L7.85454545,38.17 C11.1272727,38.17 13.8545455,35.64 14.0727273,32.45 L14.0727273,32.45 L14.0727273,36.85 L20.0727273,36.85 L26.0727273,36.85 L26.0727273,32.45 C26.0727273,32.45 26.7272727,38.17 32.2909091,38.17 L32.6181818,38.17 C35.1272727,38.17 37.4181818,36.63 38.4,34.32 L40.0363636,30.47 C40.5818182,29.48 40.1454545,28.38 39.1636364,27.94 Z" id="Shape" fill="#FFDA8F" fill-rule="nonzero"></path>
                        <path d="M10.3636364,32.45 C10.3636364,26.95 14.8363636,22.55 20.1818182,22.55 C25.5272727,22.55 30,26.95 30,32.45 L30,31.9 L30,30.25 C30,24.75 25.5272727,20.35 20.1818182,20.35 C14.8363636,20.35 10.3636364,24.75 10.3636364,30.25 L10.3636364,31.9 L10.3636364,32.45 Z" id="Shape" fill="#FFE9BD" fill-rule="nonzero"></path>
                        <path d="M39.1636364,27.94 C38.9454545,27.83 38.7272727,27.83 38.4,27.83 C37.6363636,27.83 36.9818182,28.27 36.6545455,29.04 L35.0181818,32.89 C34.5818182,33.77 33.7090909,34.43 32.7272727,34.43 L32.4,34.43 C31.0909091,34.43 30,33.33 30,32.01 L30,30.36 C30,24.86 25.5272727,20.46 20.1818182,20.46 C14.8363636,20.46 10.3636364,24.86 10.3636364,30.36 L10.3636364,32.01 C10.3636364,33.33 9.27272727,34.43 7.96363636,34.43 L7.63636364,34.43 C6.65454545,34.43 5.78181818,33.88 5.34545455,32.89 L3.70909091,29.04 C3.38181818,28.27 2.72727273,27.83 1.96363636,27.83 C1.74545455,27.83 1.41818182,27.83 1.2,27.94 C0.218181818,28.38 -0.218181818,29.48 0.109090909,30.47 L1.74545455,34.32 C2.72727273,36.63 5.01818182,38.17 7.52727273,38.17 L7.85454545,38.17 C11.1272727,38.17 13.8545455,35.64 14.0727273,32.45 L14.0727273,32.45 L14.0727273,36.85 L20.0727273,36.85 L26.0727273,36.85 L26.0727273,32.45 C26.0727273,32.45 26.7272727,38.17 32.2909091,38.17 L32.6181818,38.17 C35.1272727,38.17 37.4181818,36.63 38.4,34.32 L40.0363636,30.47 C40.5818182,29.48 40.1454545,28.38 39.1636364,27.94 Z" id="Shape" stroke="#45413C" stroke-width="1.09090909" stroke-linecap="round" stroke-linejoin="round"></path>
                        <path d="M7.52727273,34.32 L4.8,41.8" id="Shape" stroke="#45413C" stroke-width="1.09090909" fill="#FFCEBF" fill-rule="nonzero" stroke-linecap="round" stroke-linejoin="round"></path>
                        <path d="M26.1818182,59.95 L26.1818182,36.85 L14.1818182,36.85 L14.1818182,59.95 C14.1818182,60.61 14.6181818,61.05 15.2727273,61.05 L25.0909091,61.05 C25.7454545,61.05 26.1818182,60.61 26.1818182,59.95 Z" id="Shape" fill="#656769" fill-rule="nonzero"></path>
                        <polygon id="Shape" fill="#525252" fill-rule="nonzero" points="26.1818182 39.6 26.1818182 36.85 14.1818182 36.85 14.1818182 39.6"></polygon>
                        <path d="M26.1818182,59.95 L26.1818182,36.85 L14.1818182,36.85 L14.1818182,59.95 C14.1818182,60.61 14.6181818,61.05 15.2727273,61.05 L25.0909091,61.05 C25.7454545,61.05 26.1818182,60.61 26.1818182,59.95 Z" id="Shape" stroke="#45413C" stroke-width="1.09090909" stroke-linecap="round" stroke-linejoin="round"></path>
                        <path d="M20.1818182,45.1 L20.1818182,61.05" id="Shape" stroke="#45413C" stroke-width="1.09090909" stroke-linecap="round" stroke-linejoin="round"></path>
                        <path d="M20.1818182,61.05 C20.1818182,59.18 18.7636364,57.75 16.9090909,57.75 L16.3636364,57.75 C15.1636364,57.75 14.0727273,58.41 13.5272727,59.4 C13.0909091,60.17 13.7454545,61.05 14.5090909,61.05 L20.1818182,61.05 Z" id="Shape" stroke="#45413C" stroke-width="1.09090909" fill="#FF6242" fill-rule="nonzero" stroke-linecap="round" stroke-linejoin="round"></path>
                        <path d="M25.8545455,61.05 C26.6181818,61.05 27.2727273,60.17 26.8363636,59.4 C26.2909091,58.41 25.2,57.75 24,57.75 L23.4545455,57.75 C21.6,57.75 20.1818182,59.18 20.1818182,61.05 L25.8545455,61.05 Z" id="Shape" stroke="#45413C" stroke-width="1.09090909" fill="#FF6242" fill-rule="nonzero" stroke-linecap="round" stroke-linejoin="round"></path>
                        <path d="M26.8363636,30.91 C26.6181818,31.24 26.2909091,32.01 26.1818182,32.45 L26.1818182,36.85 L14.1818182,36.85 L14.1818182,32.45 C14.0727273,32.01 13.8545455,31.24 13.6363636,30.91 C12.5454545,29.48 13.4181818,28.6 14.7272727,25.85 L14.7272727,22 C15.3818182,21.56 16.1454545,21.12 16.9090909,20.9 C17.2363636,22.55 18.3272727,25.41 20.1818182,26.4 C21.7090909,25.63 22.8,22.77 23.3454545,20.9 C24.1090909,21.23 24.8727273,21.56 25.6363636,22 L25.6363636,25.85 C25.8545455,26.29 26.0727273,26.62 26.1818182,26.95 C27.2727273,28.82 27.7090909,29.7 26.8363636,30.91 Z" id="Shape" fill="#E8F4FA" fill-rule="nonzero"></path>
                        <path d="M16.9090909,20.9 C16.1454545,21.23 15.3818182,21.56 14.7272727,22 L14.7272727,24.2 C15.6,23.65 16.5818182,23.21 17.5636364,22.88 C17.2363636,22.22 17.0181818,21.45 16.9090909,20.9 Z" id="Shape" fill="#FFFFFF" fill-rule="nonzero"></path>
                        <path d="M23.3454545,20.9 C23.1272727,21.45 22.9090909,22.22 22.6909091,22.88 C23.7818182,23.21 24.7636364,23.65 25.6363636,24.2 L25.6363636,22 C24.9818182,21.56 24.2181818,21.23 23.3454545,20.9 Z" id="Shape" fill="#FFFFFF" fill-rule="nonzero"></path>
                        <path d="M26.8363636,30.91 C26.6181818,31.24 26.2909091,32.01 26.1818182,32.45 L26.1818182,36.85 L14.1818182,36.85 L14.1818182,32.45 C14.0727273,32.01 13.8545455,31.24 13.6363636,30.91 C12.5454545,29.48 13.4181818,28.6 14.7272727,25.85 L14.7272727,22 C15.3818182,21.56 16.1454545,21.12 16.9090909,20.9 C17.2363636,22.55 18.3272727,25.41 20.1818182,26.4 C21.7090909,25.63 22.8,22.77 23.3454545,20.9 C24.1090909,21.23 24.8727273,21.56 25.6363636,22 L25.6363636,25.85 C25.8545455,26.29 26.0727273,26.62 26.1818182,26.95 C27.2727273,28.82 27.7090909,29.7 26.8363636,30.91 Z" id="Shape" stroke="#45413C" stroke-width="1.09090909" stroke-linecap="round" stroke-linejoin="round"></path>
                        <path d="M7.52727273,34.32 L10.2545455,41.8" id="Shape" stroke="#45413C" stroke-width="1.09090909" fill="#FFCEBF" fill-rule="nonzero" stroke-linecap="round" stroke-linejoin="round"></path>
                        <path d="M12,45.65 C12,46.31 11.5636364,46.75 10.9090909,46.75 L4.36363636,46.75 C3.70909091,46.75 3.27272727,46.31 3.27272727,45.65 L3.27272727,42.35 C3.27272727,42.02 3.49090909,41.8 3.81818182,41.8 L11.4545455,41.8 C11.7818182,41.8 12,42.02 12,42.35 L12,45.65 Z" id="Shape" stroke="#45413C" stroke-width="1.09090909" fill="#9F5AE5" fill-rule="nonzero" stroke-linecap="round" stroke-linejoin="round"></path>
                        <path d="M12,42.35 C12,43.56 11.0181818,44.55 9.81818182,44.55 L5.45454545,44.55 C4.25454545,44.55 3.27272727,43.56 3.27272727,42.35 L3.27272727,42.35 C3.27272727,42.02 3.49090909,41.8 3.81818182,41.8 L11.4545455,41.8 C11.7818182,41.8 12,42.02 12,42.35 L12,42.35 Z" id="Shape" stroke="#45413C" stroke-width="1.09090909" fill="#BF8DF2" fill-rule="nonzero" stroke-linecap="round" stroke-linejoin="round"></path>
                        <path d="M28.9090909,9.35 L28.9090909,25.74 C27.8181818,23.54 25.7454545,21.78 23.4545455,20.9 L23.4545455,17.27 C25.0909091,16.39 26.1818182,14.74 26.6181818,12.87 C27.2727273,12.76 27.8181818,12.21 27.8181818,11.55 C27.8181818,10.89 27.3818182,10.34 26.7272727,10.23 L26.7272727,10.23 C26.8363636,10.23 26.8363636,10.12 26.7272727,10.12 C24.5454545,9.79 21.7090909,5.5 19.6363636,5.5 C19.6363636,4.62 18.8727273,3.85 18,3.85 C17.4545455,3.85 16.9090909,4.07 16.4727273,4.51 C16.0363636,4.95 15.8181818,5.5 15.8181818,6.05 L15.8181818,6.16 C15.9272727,6.27 13.7454545,10.23 13.6363636,10.23 L13.5272727,10.23 C12.9818182,10.34 12.5454545,10.89 12.5454545,11.55 C12.5454545,12.21 13.0909091,12.87 13.7454545,12.87 C14.1818182,14.96 15.6,16.72 17.4545455,17.49 C16.8,19.03 16.8,20.02 17.0181818,20.79 C17.5636364,22.99 19.9636364,23.76 17.4545455,28.82 C14.9454545,27.39 12.9818182,26.4 12.1090909,24.53 C11.6727273,23.65 11.4545455,22.66 11.4545455,21.34 L11.4545455,4.4 C11.4545455,2.2 13.2,0.44 15.3818182,0.44 C16.3636364,0.44 17.3454545,0.88 18,1.54 C20.4,0.33 23.3454545,0.55 25.5272727,2.31 C27.6,4.07 28.9090909,6.49 28.9090909,9.35 Z" id="Shape" fill="#BD704A" fill-rule="nonzero"></path>
                        <path d="M25.6363636,2.42 C23.4545455,0.77 20.5090909,0.44 18.1090909,1.65 C17.4545455,0.99 16.4727273,0.55 15.4909091,0.55 C13.3090909,0.55 11.5636364,2.31 11.5636364,4.51 L11.5636364,6.71 C11.5636364,4.51 13.3090909,2.75 15.4909091,2.75 C16.4727273,2.75 17.4545455,3.19 18.1090909,3.85 C20.5090909,2.64 23.4545455,2.86 25.6363636,4.62 C27.7090909,6.27 29.0181818,8.69 28.9090909,11.55 L28.9090909,9.35 C28.9090909,6.49 27.6,4.07 25.6363636,2.42 Z" id="Shape" fill="#D18660" fill-rule="nonzero"></path>
                        <path d="M28.9090909,9.35 L28.9090909,25.74 C27.8181818,23.54 25.7454545,21.78 23.4545455,20.9 L23.4545455,17.27 C25.0909091,16.39 26.1818182,14.74 26.6181818,12.87 C27.2727273,12.76 27.8181818,12.21 27.8181818,11.55 C27.8181818,10.89 27.3818182,10.34 26.7272727,10.23 L26.7272727,10.23 C26.8363636,10.23 26.8363636,10.12 26.7272727,10.12 C24.5454545,9.79 21.7090909,5.5 19.6363636,5.5 C19.6363636,4.62 18.8727273,3.85 18,3.85 C17.4545455,3.85 16.9090909,4.07 16.4727273,4.51 C16.0363636,4.95 15.8181818,5.5 15.8181818,6.05 L15.8181818,6.16 C15.9272727,6.27 13.7454545,10.23 13.6363636,10.23 L13.5272727,10.23 C12.9818182,10.34 12.5454545,10.89 12.5454545,11.55 C12.5454545,12.21 13.0909091,12.87 13.7454545,12.87 C14.1818182,14.96 15.6,16.72 17.4545455,17.49 C16.8,19.03 16.8,20.02 17.0181818,20.79 C17.5636364,22.99 19.9636364,23.76 17.4545455,28.82 C14.9454545,27.39 12.9818182,26.4 12.1090909,24.53 C11.6727273,23.65 11.4545455,22.66 11.4545455,21.34 L11.4545455,4.4 C11.4545455,2.2 13.2,0.44 15.3818182,0.44 C16.3636364,0.44 17.3454545,0.88 18,1.54 C20.4,0.33 23.3454545,0.55 25.5272727,2.31 C27.6,4.07 28.9090909,6.49 28.9090909,9.35 Z" id="Shape" stroke="#45413C" stroke-width="1.09090909" stroke-linecap="round" stroke-linejoin="round"></path>
                        <g transform="translate(30.545455, 33.000000)" id="Shape" stroke="#45413C" stroke-linecap="round" stroke-linejoin="round" stroke-width="1.09090909">
                            <path d="M3.27272727,20.57 L1.2,20.57 C0.545454545,20.57 0.109090909,20.02 0.109090909,19.47 L0.654545455,7.37 L3.92727273,7.37 L4.47272727,19.47 C4.47272727,20.02 3.92727273,20.57 3.27272727,20.57 Z" fill="#F7E5C6" fill-rule="nonzero"></path>
                            <path d="M2.29090909,7.37 L2.29090909,0.22"></path>
                        </g>
                        <g transform="translate(25.090909, 33.000000)" id="Shape" stroke="#45413C" stroke-linecap="round" stroke-linejoin="round" stroke-width="1.09090909">
                            <path d="M3.81818182,20.35 L1.74545455,19.91 C1.09090909,19.8 0.763636364,19.14 0.872727273,18.59 L3.6,6.82 L6.76363636,7.48 L5.01818182,19.47 C5.01818182,20.02 4.36363636,20.46 3.81818182,20.35 Z" fill="#FFE500" fill-rule="nonzero"></path>
                            <path d="M5.23636364,7.15 L6.54545455,0.11"></path>
                        </g>
                        <g transform="translate(33.818182, 33.000000)" id="Shape" stroke="#45413C" stroke-linecap="round" stroke-linejoin="round" stroke-width="1.09090909">
                            <path d="M2.94545455,20.35 L5.01818182,19.91 C5.67272727,19.8 6,19.14 5.89090909,18.59 L3.16363636,6.82 L0,7.48 L1.74545455,19.47 C1.74545455,20.02 2.29090909,20.46 2.94545455,20.35 Z" fill="#00B8F0" fill-rule="nonzero"></path>
                            <path d="M1.52727273,7.15 L0.218181818,0.11"></path>
                        </g>
                    </g>
                    <path d="M77.2363636,25.3 L76.3636364,25.3 C73.5272727,23.65 71.0181818,22.11 69.9272727,21.34 C69.6,21.12 69.1636364,21.34 69.0545455,21.67 L68.7272727,23.1 C68.7272727,24.64 69.9272727,25.85 71.4545455,25.85 C74.1818182,25.85 73.6363636,28.6 76.8,28.6 L77.8909091,28.6" id="Shape" stroke="#45413C" stroke-width="1.09090909" fill="#FF8A14" fill-rule="nonzero" stroke-linecap="round" stroke-linejoin="round"></path>
                </g>
            </g>
        </g>
    </g>
</svg>