<?xml version="1.0" encoding="UTF-8"?>
<svg width="96px" height="96px" viewBox="0 0 96 96" version="1.1" xmlns="http://www.w3.org/2000/svg" xmlns:xlink="http://www.w3.org/1999/xlink">
    <!-- Generator: sketchtool 49.3 (51167) - http://www.bohemiancoding.com/sketch -->
    <title>5AF1444F-7B6D-4778-A344-0F37D9716DA2</title>
    <desc>Created with sketchtool.</desc>
    <defs></defs>
    <g id="Symbols" stroke="none" stroke-width="1" fill="none" fill-rule="evenodd">
        <g id="image/support">
            <g id="Group-12" transform="translate(0.000000, 4.000000)">
                <g id="Group">
                    <g transform="translate(3.310345, 0.000000)" fill-rule="nonzero" id="Shape">
                        <path d="M88.8275862,44 C88.8275862,19.69 69.0758621,0 44.6896552,0 C20.3034483,0 0.551724138,19.69 0.551724138,44 C0.551724138,50.49 1.9862069,56.65 4.52413793,62.15 L84.9655172,62.15 C87.3931034,56.65 88.8275862,50.49 88.8275862,44 Z" fill="#BDFBFC"></path>
                        <path d="M4.52413793,62.15 C11.4758621,77.44 26.8137931,88 44.6896552,88 C62.5655172,88 78.0137931,77.44 84.8551724,62.15 L4.52413793,62.15 Z" fill="#FCEFD9"></path>
                        <path d="M82.8689655,66 C83.6413793,64.79 84.3034483,63.47 84.8551724,62.15 L4.4137931,62.15 C4.96551724,63.47 5.73793103,64.79 6.4,66 L82.8689655,66 Z" fill="#FFF5E3"></path>
                    </g>
                    <g transform="translate(0.000000, 61.600000)" id="Shape" stroke="#45413C" stroke-linecap="round" stroke-linejoin="round" stroke-width="1.10344828">
                        <path d="M4.96551724,0.55 L91.0344828,0.55"></path>
                        <path d="M0,0.55 L2.75862069,0.55"></path>
                        <path d="M93.2413793,0.55 L96,0.55"></path>
                    </g>
                </g>
                <g id="Group" transform="translate(16.551724, 4.400000)">
                    <ellipse id="Oval" fill="#45413C" fill-rule="nonzero" opacity="0.15" cx="23.062069" cy="70.4" rx="19.862069" ry="1.65"></ellipse>
                    <g transform="translate(22.068966, 3.300000)">
                        <g transform="translate(0.000000, 25.300000)" id="Shape">
                            <path d="M17.5448276,3.41 C8.05517241,3.41 0.331034483,11.11 0.331034483,20.57 L0.331034483,29.15 L28.137931,29.15 C28.137931,34.21 24.3862069,35.09 21.6275862,35.09 L18.8689655,35.09 L18.8689655,41.03 L21.6275862,41.03 C27.0344828,41.03 34.7586207,39.82 34.7586207,29.15 L34.7586207,20.57 C34.7586207,11.11 27.0344828,3.41 17.5448276,3.41 Z" fill="#E8F4FA" fill-rule="nonzero"></path>
                            <path d="M17.5448276,3.41 C8.05517241,3.41 0.331034483,11.11 0.331034483,20.57 L0.331034483,29.15 L0.331034483,29.15 L0.331034483,24.75 C0.331034483,15.29 8.05517241,7.59 17.5448276,7.59 C27.0344828,7.59 34.7586207,15.29 34.7586207,24.75 L34.7586207,20.57 C34.7586207,11.11 27.0344828,3.41 17.5448276,3.41 Z" fill="#FFFFFF" fill-rule="nonzero"></path>
                            <path d="M17.5448276,3.41 C8.05517241,3.41 0.331034483,11.11 0.331034483,20.57 L0.331034483,29.15 L28.137931,29.15 C28.137931,34.21 24.3862069,35.09 21.6275862,35.09 L18.8689655,35.09 L18.8689655,41.03 L21.6275862,41.03 C27.0344828,41.03 34.7586207,39.82 34.7586207,29.15 L34.7586207,20.57 C34.7586207,11.11 27.0344828,3.41 17.5448276,3.41 Z" stroke="#45413C" stroke-width="1.10344828" stroke-linecap="round" stroke-linejoin="round"></path>
                            <polygon fill="#D18660" fill-rule="nonzero" points="21.5172414 4.07 17.5448276 6.71 13.5724138 4.07 13.5724138 0.77 21.5172414 0.77"></polygon>
                            <path d="M13.5724138,3.96 C13.6827586,3.96 13.7931034,4.07 13.9034483,4.07 C16.1103448,4.95 18.9793103,4.95 21.2965517,4.07 C21.4068966,4.07 21.5172414,3.96 21.6275862,3.96 L21.6275862,0.77 L13.6827586,0.77 L13.6827586,3.96 L13.5724138,3.96 Z" fill="#BD704A" fill-rule="nonzero"></path>
                            <polygon stroke="#45413C" stroke-width="1.10344828" stroke-linecap="round" stroke-linejoin="round" points="21.5172414 4.07 17.5448276 6.71 13.5724138 4.07 13.5724138 0.77 21.5172414 0.77"></polygon>
                            <path d="M17.5448276,6.71 L14.3448276,25.85 C14.2344828,26.29 14.3448276,26.73 14.5655172,27.06 L15.5586207,29.15 L19.5310345,29.15 L20.5241379,27.06 C20.7448276,26.73 20.7448276,26.29 20.7448276,25.85 L17.5448276,6.71 Z" stroke="#45413C" stroke-width="1.10344828" fill="#6DD627" fill-rule="nonzero" stroke-linecap="round" stroke-linejoin="round"></path>
                            <path d="M22.8413793,9.79 L25.8206897,5.61 C24.4965517,4.95 23.1724138,4.4 21.737931,4.07 L17.5448276,6.82 L21.2965517,10.01 C21.737931,10.34 22.5103448,10.23 22.8413793,9.79 Z" stroke="#45413C" stroke-width="1.10344828" fill="#FFFFFF" fill-rule="nonzero" stroke-linecap="round" stroke-linejoin="round"></path>
                            <path d="M12.2482759,9.79 L9.26896552,5.61 C10.5931034,4.95 11.9172414,4.4 13.3517241,4.07 L17.5448276,6.82 L13.7931034,10.01 C13.3517241,10.34 12.5793103,10.23 12.2482759,9.79 Z" stroke="#45413C" stroke-width="1.10344828" fill="#FFFFFF" fill-rule="nonzero" stroke-linecap="round" stroke-linejoin="round"></path>
                            <path d="M6.95172414,21.23 L6.95172414,29.15" stroke="#45413C" stroke-width="1.10344828" stroke-linecap="round" stroke-linejoin="round"></path>
                            <path d="M28.137931,21.23 L28.137931,29.15" stroke="#45413C" stroke-width="1.10344828" stroke-linecap="round" stroke-linejoin="round"></path>
                            <path d="M18.8689655,40.37 L16.8827586,40.37 C15.4482759,40.37 14.2344828,39.16 14.2344828,37.73 C14.2344828,36.3 15.4482759,35.09 16.8827586,35.09 L18.8689655,35.09 L18.8689655,40.37 Z" stroke="#45413C" stroke-width="1.10344828" fill="#D18660" fill-rule="nonzero" stroke-linecap="round" stroke-linejoin="round"></path>
                        </g>
                        <g transform="translate(3.310345, 0.000000)">
                            <path d="M25.4896552,14.19 L25.4896552,11.55 C25.4896552,5.39 20.4137931,0.33 14.2344828,0.33 C8.05517241,0.33 2.97931034,5.39 2.97931034,11.55 L2.97931034,14.19 C1.87586207,14.19 0.993103448,15.07 0.993103448,16.17 L0.993103448,16.83 C0.993103448,17.93 1.87586207,18.81 2.97931034,18.81 L3.2,18.81 C4.08275862,24.09 8.71724138,28.05 14.2344828,28.05 C19.7517241,28.05 24.3862069,24.09 25.2689655,18.81 L25.4896552,18.81 C26.5931034,18.81 27.4758621,17.93 27.4758621,16.83 L27.4758621,16.17 C27.4758621,15.07 26.5931034,14.19 25.4896552,14.19 Z" id="Shape" stroke="#45413C" stroke-width="1.10344828" fill="#D18660" fill-rule="nonzero" stroke-linecap="round" stroke-linejoin="round"></path>
                            <ellipse id="Oval" fill="#BD704A" fill-rule="nonzero" cx="7.6137931" cy="18.81" rx="1.32413793" ry="1.32"></ellipse>
                            <ellipse id="Oval" fill="#BD704A" fill-rule="nonzero" cx="20.8551724" cy="18.81" rx="1.32413793" ry="1.32"></ellipse>
                            <path d="M10.9241379,21.45 C12.9103448,23.21 15.5586207,23.21 17.5448276,21.45" id="Shape" stroke="#45413C" stroke-width="1.10344828" stroke-linecap="round" stroke-linejoin="round"></path>
                            <g transform="translate(7.724138, 13.200000)" id="Shape" stroke="#45413C" stroke-linecap="round" stroke-linejoin="round" stroke-width="1.10344828">
                                <path d="M12.4689655,2.31 C12.137931,1.65 11.4758621,1.21 10.8137931,1.21 C10.1517241,1.21 9.48965517,1.65 9.15862069,2.31"></path>
                                <path d="M3.86206897,2.09 C3.53103448,1.43 2.86896552,0.99 2.20689655,0.99 C1.54482759,0.99 0.882758621,1.43 0.551724138,2.09"></path>
                            </g>
                            <g transform="translate(2.206897, 0.000000)" id="Shape">
                                <path d="M2.75862069,16.17 C2.75862069,16.17 3.42068966,14.08 2.97931034,11.55 C4.19310345,11.99 6.06896552,10.34 6.06896552,10.34 L6.06896552,7.7 C6.06896552,7.7 9.93103448,9.02 12.0275862,9.02 C14.1241379,9.02 17.9862069,7.7 17.9862069,7.7 L17.9862069,10.34 C17.9862069,10.34 19.862069,11.99 21.0758621,11.55 C20.6344828,14.08 21.2965517,16.17 21.2965517,16.17 C21.2965517,14.85 22.5103448,13.97 23.8344828,14.3 L23.8344828,14.3 C23.6137931,14.19 23.3931034,14.19 23.1724138,14.19 L23.1724138,11.55 C23.1724138,5.39 18.0965517,0.33 11.9172414,0.33 C5.73793103,0.33 0.662068966,5.39 0.662068966,11.55 L0.662068966,14.19 C0.44137931,14.19 0.220689655,14.19 -2.27373675e-13,14.3 L-2.27373675e-13,14.3 C1.54482759,13.97 2.75862069,14.85 2.75862069,16.17 Z" fill="#614B44" fill-rule="nonzero"></path>
                                <path d="M12.0275862,2.97 C18.2068966,2.97 23.2827586,8.03 23.2827586,14.19 L23.2827586,11.55 C23.2827586,5.39 18.2068966,0.33 12.0275862,0.33 C5.84827586,0.33 0.772413793,5.39 0.772413793,11.55 L0.772413793,14.19 C0.772413793,8.03 5.84827586,2.97 12.0275862,2.97 Z" fill="#947063" fill-rule="nonzero"></path>
                                <path d="M2.75862069,16.17 C2.75862069,16.17 3.42068966,14.08 2.97931034,11.55 C4.19310345,11.99 6.06896552,10.34 6.06896552,10.34 L6.06896552,7.7 C6.06896552,7.7 9.93103448,9.02 12.0275862,9.02 C14.1241379,9.02 17.9862069,7.7 17.9862069,7.7 L17.9862069,10.34 C17.9862069,10.34 19.862069,11.99 21.0758621,11.55 C20.6344828,14.08 21.2965517,16.17 21.2965517,16.17 C21.2965517,14.85 22.5103448,13.97 23.8344828,14.3 L23.8344828,14.3 C23.6137931,14.19 23.3931034,14.19 23.1724138,14.19 L23.1724138,11.55 C23.1724138,5.39 18.0965517,0.33 11.9172414,0.33 C5.73793103,0.33 0.662068966,5.39 0.662068966,11.55 L0.662068966,14.19 C0.44137931,14.19 0.220689655,14.19 -2.27373675e-13,14.3 L-2.27373675e-13,14.3 C1.54482759,13.97 2.75862069,14.85 2.75862069,16.17 Z" stroke="#45413C" stroke-width="1.10344828" stroke-linecap="round" stroke-linejoin="round"></path>
                            </g>
                        </g>
                    </g>
                    <g transform="translate(23.172414, 0.000000)" stroke="#45413C" stroke-linecap="round" stroke-linejoin="round" stroke-width="1.10344828">
                        <path d="M3.2,22.11 L3.2,24.09 C3.2,27.39 5.84827586,30.03 9.15862069,30.03 L9.82068966,30.03" id="Shape"></path>
                        <path d="M1.87586207,16.83 L1.87586207,15.51 C1.87586207,7.48 8.3862069,0.99 16.4413793,0.99 C24.4965517,0.99 31.0068966,7.48 31.0068966,15.51 L31.0068966,16.83" id="Shape"></path>
                        <g transform="translate(0.000000, 16.500000)" fill-rule="nonzero" id="Shape">
                            <path d="M4.52413793,6.93 L1.87586207,6.93 C1.10344828,6.93 0.551724138,6.38 0.551724138,5.61 L0.551724138,1.65 C0.551724138,0.88 1.10344828,0.33 1.87586207,0.33 L4.52413793,0.33 L4.52413793,6.93 Z" fill="#FFFFFF"></path>
                            <path d="M3.2,5.61 C3.2,6.38 3.75172414,6.93 4.52413793,6.93 C5.29655172,6.93 5.84827586,6.38 5.84827586,5.61 L5.84827586,1.65 C5.84827586,0.88 5.29655172,0.33 4.52413793,0.33 C3.75172414,0.33 3.2,0.88 3.2,1.65 L3.2,5.61 Z" fill="#656769"></path>
                        </g>
                        <g transform="translate(26.482759, 16.500000)" fill-rule="nonzero" id="Shape">
                            <path d="M1.87586207,6.93 L4.52413793,6.93 C5.29655172,6.93 5.84827586,6.38 5.84827586,5.61 L5.84827586,1.65 C5.84827586,0.88 5.29655172,0.33 4.52413793,0.33 L1.87586207,0.33 L1.87586207,6.93 Z" fill="#FFFFFF"></path>
                            <path d="M3.2,5.61 C3.2,6.38 2.64827586,6.93 1.87586207,6.93 C1.10344828,6.93 0.551724138,6.38 0.551724138,5.61 L0.551724138,1.65 C0.551724138,0.88 1.10344828,0.33 1.87586207,0.33 C2.64827586,0.33 3.2,0.88 3.2,1.65 L3.2,5.61 Z" fill="#656769"></path>
                        </g>
                        <ellipse id="Oval" fill="#656769" fill-rule="nonzero" cx="11.8068966" cy="30.03" rx="1.9862069" ry="1.98"></ellipse>
                    </g>
                    <g transform="translate(0.000000, 49.500000)" id="Shape">
                        <path d="M5.51724138,17.6 L27.0344828,17.6 L21.5172414,0.55 L1.54482759,0.55 C1.2137931,0.55 0.882758621,0.77 0.662068966,0.99 C0.44137931,1.32 0.44137931,1.65 0.551724138,1.98 L5.51724138,17.6 Z" fill="#ADC4D9" fill-rule="nonzero"></path>
                        <path d="M1.54482759,0.55 C1.2137931,0.55 0.882758621,0.77 0.662068966,0.99 C0.44137931,1.32 0.44137931,1.65 0.551724138,1.98 L4.63448276,14.52 L18.6482759,0.55 L1.54482759,0.55 L1.54482759,0.55 Z" fill="#C0DCEB" fill-rule="nonzero"></path>
                        <g stroke="#45413C" stroke-linejoin="round" stroke-width="1.10344828">
                            <path d="M27.0344828,17.6 L29.2413793,17.6 L23.9448276,1.32 C23.8344828,0.88 23.3931034,0.55 22.8413793,0.55 L21.4068966,0.55" fill="#E8F4FA" fill-rule="nonzero"></path>
                            <path d="M5.51724138,17.6 L28.137931,17.6 L28.137931,20.35 L7.72413793,20.35 C6.51034483,20.35 5.51724138,19.36 5.51724138,18.15 L5.51724138,17.6 Z" fill="#C0DCEB" fill-rule="nonzero"></path>
                            <path d="M28.137931,17.6 L38.6206897,17.6 C38.9517241,17.6 39.1724138,17.82 39.1724138,18.15 C39.1724138,19.36 38.1793103,20.35 36.9655172,20.35 L28.137931,20.35 L28.137931,17.6 Z" fill="#E8F4FA" fill-rule="nonzero"></path>
                            <g transform="translate(11.034483, 4.400000)">
                                <path d="M3.64137931,4.07 C3.64137931,3.41 4.19310345,3.08 4.19310345,3.08 C3.86206897,2.64 3.42068966,2.53 3.2,2.53 C2.75862069,2.53 2.42758621,2.75 2.20689655,2.75 C1.9862069,2.75 1.65517241,2.53 1.32413793,2.53 C0.882758621,2.53 0.44137931,2.75 0.220689655,3.19 C-0.220689655,4.07 0.110344828,5.28 0.551724138,5.94 C0.772413793,6.27 1.10344828,6.6 1.43448276,6.6 C1.76551724,6.6 1.87586207,6.38 2.31724138,6.38 C2.75862069,6.38 2.86896552,6.6 3.2,6.6 C3.53103448,6.6 3.75172414,6.27 4.08275862,5.94 C4.30344828,5.61 4.4137931,5.17 4.4137931,5.17 C4.4137931,5.17 3.64137931,4.84 3.64137931,4.07 Z" fill="#FFFFFF" fill-rule="nonzero"></path>
                                <path d="M2.75862069,1.1 L3.31034483,0.55" stroke-linecap="round"></path>
                            </g>
                            <path d="M5.51724138,17.6 L27.0344828,17.6 L21.5172414,0.55 L1.54482759,0.55 C1.2137931,0.55 0.882758621,0.77 0.662068966,0.99 C0.44137931,1.32 0.44137931,1.65 0.551724138,1.98 L5.51724138,17.6 Z"></path>
                        </g>
                    </g>
                </g>
            </g>
        </g>
    </g>
</svg>