<?xml version="1.0" encoding="UTF-8"?>
<svg width="96px" height="96px" viewBox="0 0 96 96" version="1.1" xmlns="http://www.w3.org/2000/svg" xmlns:xlink="http://www.w3.org/1999/xlink">
    <!-- Generator: sketchtool 49.3 (51167) - http://www.bohemiancoding.com/sketch -->
    <title>7AF0D959-A92E-44AD-9F13-4B7C0E9C30E4</title>
    <desc>Created with sketchtool.</desc>
    <defs></defs>
    <g id="Symbols" stroke="none" stroke-width="1" fill="none" fill-rule="evenodd">
        <g id="image/a-b-tests">
            <g id="Group-15" transform="translate(0.000000, 4.000000)">
                <g id="Group">
                    <g transform="translate(4.363636, 0.000000)" fill-rule="nonzero" id="Shape">
                        <path d="M87.2727273,44 C87.2727273,19.69 67.7454545,0 43.6363636,0 C19.5272727,0 0,19.69 0,44 C0,50.49 1.41818182,56.65 3.92727273,62.15 L83.4545455,62.15 C85.8545455,56.65 87.2727273,50.49 87.2727273,44 Z" fill="#BDFBFC"></path>
                        <path d="M3.92727273,62.15 C10.8,77.44 25.9636364,88 43.6363636,88 C61.3090909,88 76.5818182,77.44 83.3454545,62.15 L3.92727273,62.15 Z" fill="#FFEF9E"></path>
                        <path d="M81.3818182,66 C82.1454545,64.79 82.8,63.47 83.3454545,62.15 L3.92727273,62.15 C4.47272727,63.47 5.23636364,64.79 5.89090909,66 L81.3818182,66 Z" fill="#FFFACF"></path>
                    </g>
                    <g transform="translate(0.000000, 61.600000)" id="Shape" stroke="#45413C" stroke-linecap="round" stroke-linejoin="round" stroke-width="1.09090909">
                        <path d="M5.45454545,0.55 L90.5454545,0.55"></path>
                        <path d="M0.545454545,0.55 L3.27272727,0.55"></path>
                        <path d="M92.7272727,0.55 L95.4545455,0.55"></path>
                    </g>
                </g>
                <g id="Group" transform="translate(15.272727, 4.400000)">
                    <path d="M69.8181818,57.2 L66.4363636,57.2 C64.6909091,57.2 63.2727273,55.77 63.2727273,54.01 L63.2727273,49.5 C63.2727273,40.04 55.7454545,32.45 46.3636364,32.45 C36.9818182,32.45 29.4545455,40.04 29.4545455,49.5 L29.4545455,57.75 L57.4909091,57.75 C58.9090909,61.27 62.4,63.8 66.4363636,63.8 L69.8181818,63.8 L69.8181818,57.2 L69.8181818,57.2 Z" id="Shape" fill="#F0F0F0" fill-rule="nonzero"></path>
                    <path d="M46.3636364,32.45 C36.9818182,32.45 29.4545455,40.04 29.4545455,49.5 L29.4545455,54.45 C29.4545455,44.99 36.9818182,37.4 46.3636364,37.4 C55.7454545,37.4 63.2727273,44.99 63.2727273,54.45 L63.2727273,49.5 C63.2727273,40.04 55.7454545,32.45 46.3636364,32.45 Z" id="Shape" fill="#FFFFFF" fill-rule="nonzero"></path>
                    <path d="M69.8181818,57.2 L66.4363636,57.2 C64.6909091,57.2 63.2727273,55.77 63.2727273,54.01 L63.2727273,49.5 C63.2727273,40.04 55.7454545,32.45 46.3636364,32.45 C36.9818182,32.45 29.4545455,40.04 29.4545455,49.5 L29.4545455,57.75 L57.4909091,57.75 C58.9090909,61.27 62.4,63.8 66.4363636,63.8 L69.8181818,63.8 L69.8181818,57.2 L69.8181818,57.2 Z" id="Shape" stroke="#45413C" stroke-width="1.09090909" stroke-linecap="round" stroke-linejoin="round"></path>
                    <path d="M50.1818182,31.35 L46.3636364,31.35 L46.3636364,55 L55.0909091,42.35 L53.4545455,39.6 L56.7272727,38.5 C56.7272727,36.96 52.9090909,31.35 50.1818182,31.35 Z" id="Shape" stroke="#45413C" stroke-width="1.09090909" fill="#FFFFFF" fill-rule="nonzero" stroke-linecap="round" stroke-linejoin="round"></path>
                    <path d="M42.5454545,31.35 L46.3636364,31.35 L46.3636364,55 L37.6363636,42.35 L39.2727273,39.6 L36,38.5 C36,36.96 39.8181818,31.35 42.5454545,31.35 Z" id="Shape" stroke="#45413C" stroke-width="1.09090909" fill="#FFFFFF" fill-rule="nonzero" stroke-linecap="round" stroke-linejoin="round"></path>
                    <path d="M50.9454545,34.54 L50.1818182,31.35 L42.5454545,31.35 L41.7818182,34.54 C41.2363636,37.18 41.3454545,39.82 42.1090909,42.46 L46.2545455,55.11 L50.4,42.46 C51.3818182,39.82 51.4909091,37.07 50.9454545,34.54 Z" id="Shape" stroke="#45413C" stroke-width="1.09090909" fill="#B8ECFF" fill-rule="nonzero" stroke-linecap="round" stroke-linejoin="round"></path>
                    <path d="M46.3636364,54.45 L46.3636364,57.75" id="Shape" stroke="#45413C" stroke-width="1.09090909" stroke-linecap="round" stroke-linejoin="round"></path>
                    <path d="M46.3636364,39.05 L50.7272727,41.8 C51.3818182,39.38 51.4909091,36.96 50.9454545,34.54 L50.1818182,31.35 C49.6363636,34.32 48.6545455,37.07 46.3636364,39.05 Z" id="Shape" stroke="#45413C" stroke-width="1.09090909" fill="#B8ECFF" fill-rule="nonzero" stroke-linecap="round" stroke-linejoin="round"></path>
                    <path d="M42.5454545,29.15 L42.5454545,31.35 C43.0909091,34.32 44.0727273,37.07 46.3636364,39.05 C48.6545455,37.07 49.6363636,34.32 50.1818182,31.35 L50.1818182,29.15 L42.5454545,29.15 Z" id="Shape" stroke="#45413C" stroke-width="1.09090909" fill="#FFCEBF" fill-rule="nonzero" stroke-linecap="round" stroke-linejoin="round"></path>
                    <path d="M49.7454545,33.11 C49.8545455,32.56 50.0727273,31.9 50.1818182,31.35 L50.1818182,29.15 L42.5454545,29.15 L42.5454545,33 C43.7454545,33.33 45.0545455,33.55 46.3636364,33.55 C47.5636364,33.55 48.6545455,33.44 49.7454545,33.11 Z" id="Shape" fill="#FFB59E" fill-rule="nonzero"></path>
                    <path d="M42.5454545,29.15 L42.5454545,31.35 C43.0909091,34.32 44.0727273,37.07 46.3636364,39.05 C48.6545455,37.07 49.6363636,34.32 50.1818182,31.35 L50.1818182,29.15 L42.5454545,29.15 Z" id="Shape" stroke="#45413C" stroke-width="1.09090909" stroke-linecap="round" stroke-linejoin="round"></path>
                    <path d="M57.2727273,17.6 L57.2727273,14.85 C57.2727273,8.8 52.3636364,3.85 46.3636364,3.85 C40.3636364,3.85 35.4545455,8.8 35.4545455,14.85 L35.4545455,17.6 C34.2545455,17.6 33.2727273,18.59 33.2727273,19.8 C33.2727273,21.01 34.2545455,22 35.4545455,22 L35.5636364,22 C36.3272727,27.28 40.9090909,31.35 46.3636364,31.35 C51.8181818,31.35 56.4,27.28 57.1636364,22 L57.2727273,22 C58.4727273,22 59.4545455,21.01 59.4545455,19.8 C59.4545455,18.59 58.4727273,17.6 57.2727273,17.6 Z" id="Shape" stroke="#45413C" stroke-width="1.09090909" fill="#FFCEBF" fill-rule="nonzero" stroke-linecap="round" stroke-linejoin="round"></path>
                    <path d="M43.0909091,25.08 C45.0545455,26.84 47.6727273,26.84 49.6363636,25.08" id="Shape" stroke="#45413C" stroke-width="1.09090909" stroke-linecap="round" stroke-linejoin="round"></path>
                    <ellipse id="Oval" fill="#FFB59E" fill-rule="nonzero" cx="40.1454545" cy="22.22" rx="1.30909091" ry="1.32"></ellipse>
                    <ellipse id="Oval" fill="#FFB59E" fill-rule="nonzero" cx="52.5818182" cy="22.22" rx="1.30909091" ry="1.32"></ellipse>
                    <path d="M36,47.85 L36,57.75" id="Shape" stroke="#45413C" stroke-width="1.09090909" stroke-linecap="round" stroke-linejoin="round"></path>
                    <path d="M54,2.75 C54,1.76 52.3636364,0.55 50.1818182,0.55 L43.0909091,0.55 C37.0909091,0.55 32.7272727,5.5 32.7272727,11.55 C32.7272727,13.86 33.0545455,16.17 34.2545455,17.93 C34.5818182,17.71 35.0181818,17.6 35.4545455,17.6 C36.1090909,17.6 36.6545455,17.93 37.0909091,18.37 C37.3090909,16.83 37.5272727,14.08 37.2,12.32 C38.4,12.76 39.7090909,12.87 41.1272727,12.87 C46.5818182,12.87 53.0181818,10.34 53.0181818,7.26 C52.6909091,11.44 54,14.74 55.9636364,18.04 C56.2909091,17.82 56.7272727,17.6 57.2727273,17.6 C57.8181818,17.6 58.3636364,17.82 58.6909091,18.15 L58.8,18.15 C59.6727273,19.03 62.6181818,4.73 54,2.75 Z" id="Shape" fill="#614B44" fill-rule="nonzero"></path>
                    <path d="M43.0909091,4.4 L50.1818182,4.4 C52.3636364,4.4 54,5.61 54,6.6 C58.0363636,7.48 59.5636364,11.11 59.8909091,14.63 C60.3272727,10.45 59.5636364,4.07 54,2.75 C54,1.76 52.3636364,0.55 50.1818182,0.55 L43.0909091,0.55 C37.0909091,0.55 32.7272727,5.5 32.7272727,11.55 C32.7272727,12.32 32.7272727,12.98 32.8363636,13.75 C33.6,8.47 37.6363636,4.4 43.0909091,4.4 Z" id="Shape" fill="#947063" fill-rule="nonzero"></path>
                    <path d="M46.3636364,39.05 L50.7272727,41.8 C51.3818182,39.38 51.4909091,36.96 50.9454545,34.54 L50.1818182,31.35 C49.6363636,34.32 48.6545455,37.07 46.3636364,39.05 Z" id="Shape" stroke="#45413C" stroke-width="1.09090909" fill="#B8ECFF" fill-rule="nonzero" stroke-linecap="round" stroke-linejoin="round"></path>
                    <path d="M46.3636364,39.05 L42,41.8 C41.3454545,39.38 41.2363636,36.96 41.7818182,34.54 L42.5454545,31.35 C43.0909091,34.32 44.0727273,37.07 46.3636364,39.05 Z" id="Shape" stroke="#45413C" stroke-width="1.09090909" fill="#B8ECFF" fill-rule="nonzero" stroke-linecap="round" stroke-linejoin="round"></path>
                    <path d="M46.3636364,39.05 L42,41.8 C41.3454545,39.38 41.2363636,36.96 41.7818182,34.54 L42.5454545,31.35 C43.0909091,34.32 44.0727273,37.07 46.3636364,39.05 Z" id="Shape" stroke="#45413C" stroke-width="1.09090909" fill="#B8ECFF" fill-rule="nonzero" stroke-linecap="round" stroke-linejoin="round"></path>
                    <polygon id="Shape" stroke="#45413C" stroke-width="1.09090909" fill="#FF6242" fill-rule="nonzero" stroke-linecap="round" stroke-linejoin="round" points="46.3636364 39.05 44.4 40.26 45.2727273 42.35 47.4545455 42.35 48.3272727 40.26"></polygon>
                    <path d="M47.4545455,42.35 L45.2727273,42.35 C45.2727273,42.35 44.6181818,44.44 44.4,48.95 L46.3636364,55 L48.3272727,48.95 C48.1090909,44.44 47.4545455,42.35 47.4545455,42.35 Z" id="Shape" stroke="#45413C" stroke-width="1.09090909" fill="#FF6242" fill-rule="nonzero" stroke-linecap="round" stroke-linejoin="round"></path>
                    <path d="M54,2.75 C54,1.76 52.3636364,0.55 50.1818182,0.55 L43.0909091,0.55 C37.0909091,0.55 32.7272727,5.5 32.7272727,11.55 C32.7272727,13.86 33.0545455,16.17 34.2545455,17.93 C34.5818182,17.71 35.0181818,17.6 35.4545455,17.6 C36.1090909,17.6 36.6545455,17.93 37.0909091,18.37 C37.3090909,16.83 37.5272727,14.08 37.2,12.32 C38.4,12.76 39.7090909,12.87 41.1272727,12.87 C46.5818182,12.87 53.0181818,10.34 53.0181818,7.26 C52.6909091,11.44 54,14.74 55.9636364,18.04 C56.2909091,17.82 56.7272727,17.6 57.2727273,17.6 C57.8181818,17.6 58.3636364,17.82 58.6909091,18.15 L58.8,18.15 C59.6727273,19.03 62.6181818,4.73 54,2.75 Z" id="Shape" stroke="#45413C" stroke-width="1.09090909" stroke-linejoin="round"></path>
                    <path d="M46.3636364,15.4 L35.4545455,15.4 L35.4545455,19.8 C35.4545455,21.45 39.2727273,22.55 41.4545455,22.55 C43.6363636,22.55 44.6181818,21.12 44.9454545,20.13 C45.1636364,19.58 45.7090909,19.25 46.3636364,19.25 C46.9090909,19.25 47.4545455,19.58 47.7818182,20.13 C48.2181818,21.12 49.2,22.55 51.2727273,22.55 C53.4545455,22.55 57.2727273,21.45 57.2727273,19.8 L57.2727273,15.4 L46.3636364,15.4 Z" id="Shape" fill="#FFFFFF" fill-rule="nonzero"></path>
                    <path d="M52.3636364,18.7 C52.0363636,18.04 51.3818182,17.6 50.7272727,17.6 C49.9636364,17.6 49.4181818,18.04 49.0909091,18.7" id="Shape" stroke="#45413C" stroke-width="1.09090909" stroke-linecap="round" stroke-linejoin="round"></path>
                    <path d="M43.6363636,18.7 C43.3090909,18.04 42.6545455,17.6 42,17.6 C41.2363636,17.6 40.6909091,18.04 40.3636364,18.7" id="Shape" stroke="#45413C" stroke-width="1.09090909" stroke-linecap="round" stroke-linejoin="round"></path>
                    <path d="M46.3636364,15.4 L35.4545455,15.4 L35.4545455,19.8 C35.4545455,21.45 39.2727273,22.55 41.4545455,22.55 C43.6363636,22.55 44.6181818,21.12 44.9454545,20.13 C45.1636364,19.58 45.7090909,19.25 46.3636364,19.25 C46.9090909,19.25 47.4545455,19.58 47.7818182,20.13 C48.2181818,21.12 49.2,22.55 51.2727273,22.55 C53.4545455,22.55 57.2727273,21.45 57.2727273,19.8 L57.2727273,15.4 L46.3636364,15.4 Z" id="Shape" stroke="#45413C" stroke-width="1.09090909" stroke-linecap="round" stroke-linejoin="round"></path>
                    <path d="M59.7818182,15.4 L57.2727273,15.4 L57.2727273,17.6 L59.2363636,17.6 C59.4545455,17.05 59.6727273,16.28 59.7818182,15.4 Z" id="Shape" stroke="#45413C" stroke-width="1.09090909" fill="#FFFFFF" fill-rule="nonzero" stroke-linecap="round" stroke-linejoin="round"></path>
                    <path d="M32.9454545,15.4 L35.4545455,15.4 L35.4545455,17.6 L33.4909091,17.6 C33.2727273,17.05 33.0545455,16.28 32.9454545,15.4 Z" id="Shape" stroke="#45413C" stroke-width="1.09090909" fill="#FFFFFF" fill-rule="nonzero" stroke-linecap="round" stroke-linejoin="round"></path>
                    <path d="M70.3636364,59.73 L73.6363636,54.67 L70.0363636,52.25 L66.7636364,57.31 L59.7818182,62.26 C58.4727273,63.14 58.5818182,65.01 59.8909091,65.89 L65.3454545,69.52 C66.6545455,70.4 68.4,69.63 68.7272727,68.09 L70.3636364,59.73 Z" id="Shape" fill="#4AEFF7" fill-rule="nonzero"></path>
                    <path d="M61.4181818,63.91 L68.4,58.96 L72,53.46 L70.1454545,52.25 L66.8727273,57.31 L59.8909091,62.26 C58.5818182,63.14 58.6909091,65.01 60,65.89 L60.7636364,66.44 C60.3272727,65.56 60.5454545,64.57 61.4181818,63.91 Z" id="Shape" fill="#A6FBFF" fill-rule="nonzero"></path>
                    <path d="M59.0181818,63.25 C58.6909091,64.13 58.9090909,65.34 59.7818182,65.89 L65.2363636,69.52 C66.5454545,70.4 68.2909091,69.63 68.6181818,68.09 L69.6,63.25 L59.0181818,63.25 Z" id="Shape" fill="#FF6242" fill-rule="nonzero"></path>
                    <path d="M61.4181818,63.91 L62.4,63.25 L59.0181818,63.25 C58.9090909,63.47 58.9090909,63.69 58.9090909,63.91 L58.9090909,63.91 C58.9090909,64.13 58.9090909,64.35 59.0181818,64.68 L59.0181818,64.68 C59.1272727,64.9 59.1272727,65.01 59.2363636,65.23 L59.3454545,65.34 C59.4545455,65.56 59.6727273,65.67 59.8909091,65.78 L60.6545455,66.33 C60.3272727,65.56 60.5454545,64.57 61.4181818,63.91 Z" id="Shape" fill="#FF866E" fill-rule="nonzero"></path>
                    <path d="M70.3636364,59.73 L73.6363636,54.67 L70.0363636,52.25 L66.7636364,57.31 L59.7818182,62.26 C58.4727273,63.14 58.5818182,65.01 59.8909091,65.89 L65.3454545,69.52 C66.6545455,70.4 68.4,69.63 68.7272727,68.09 L70.3636364,59.73 Z" id="Shape" stroke="#45413C" stroke-width="1.09090909" stroke-linecap="round" stroke-linejoin="round"></path>
                    <g transform="translate(65.454545, 57.200000)" id="Shape">
                        <path d="M4.47272727,7.81 L2.07272727,6.71 C1.2,6.38 0.872727273,5.39 1.2,4.51 L2.50909091,1.54 C2.83636364,0.66 3.81818182,0.33 4.69090909,0.66 L7.09090909,1.76 C8.07272727,2.2 8.61818182,3.3 8.29090909,4.29 C8.07272727,5.17 7.63636364,6.16 7.09090909,6.93 C6.65454545,7.92 5.45454545,8.25 4.47272727,7.81 Z" fill="#00DBA8" fill-rule="nonzero"></path>
                        <path d="M3.81818182,2.75 L8.29090909,4.73 C8.29090909,4.62 8.4,4.51 8.4,4.51 C8.72727273,3.41 8.18181818,2.31 7.2,1.87 L4.8,0.77 C3.92727273,0.44 3.05454545,0.77 2.61818182,1.65 L1.74545455,3.63 C2.07272727,2.75 3.05454545,2.31 3.81818182,2.75 Z" fill="#00F5BC" fill-rule="nonzero"></path>
                        <path d="M4.47272727,7.81 L2.07272727,6.71 C1.2,6.38 0.872727273,5.39 1.2,4.51 L2.50909091,1.54 C2.83636364,0.66 3.81818182,0.33 4.69090909,0.66 L7.09090909,1.76 C8.07272727,2.2 8.61818182,3.3 8.29090909,4.29 C8.07272727,5.17 7.63636364,6.16 7.09090909,6.93 C6.65454545,7.92 5.45454545,8.25 4.47272727,7.81 Z" stroke="#45413C" stroke-width="1.09090909" stroke-linecap="round" stroke-linejoin="round"></path>
                    </g>
                    <ellipse id="Oval" stroke="#45413C" stroke-width="1.09090909" fill="#FF6242" fill-rule="nonzero" stroke-linecap="round" stroke-linejoin="round" cx="70.9090909" cy="47.85" rx="1.63636364" ry="1.65"></ellipse>
                    <ellipse id="Oval" stroke="#45413C" stroke-width="1.09090909" fill="#FF6242" fill-rule="nonzero" stroke-linecap="round" stroke-linejoin="round" cx="75.8181818" cy="46.75" rx="1.09090909" ry="1.1"></ellipse>
                    <ellipse id="Oval" stroke="#45413C" stroke-width="1.09090909" fill="#FF6242" fill-rule="nonzero" stroke-linecap="round" stroke-linejoin="round" cx="73.0909091" cy="39.6" rx="1.09090909" ry="1.1"></ellipse>
                    <g transform="translate(0.000000, 40.700000)" fill-rule="nonzero">
                        <path d="M11.4545455,18.15 C11.4545455,19.36 10.4727273,20.35 9.27272727,20.35 C8.07272727,20.35 7.09090909,19.36 7.09090909,18.15 L7.09090909,1.1 C7.09090909,0.44 7.52727273,0 8.18181818,0 L10.3636364,0 C11.0181818,0 11.4545455,0.44 11.4545455,1.1 L11.4545455,18.15 Z" id="Shape" stroke="#45413C" stroke-width="1.09090909" fill="#A6FBFF" stroke-linecap="round" stroke-linejoin="round"></path>
                        <ellipse id="Oval" fill="#45413C" opacity="0.15" cx="16.9090909" cy="24.2" rx="16.3636364" ry="1.65"></ellipse>
                        <path d="M4.36363636,23.1 L2.72727273,23.1 C2.07272727,23.1 1.63636364,22.66 1.63636364,22 L1.63636364,8.25 C1.63636364,7.59 2.07272727,7.15 2.72727273,7.15 L3.27272727,7.15 C3.92727273,7.15 4.36363636,7.59 4.36363636,8.25 L4.36363636,23.1 Z" id="Shape" stroke="#45413C" stroke-width="1.09090909" fill="#DEBB7E" stroke-linecap="round" stroke-linejoin="round"></path>
                        <path d="M32.1818182,22 C32.1818182,22.66 31.7454545,23.1 31.0909091,23.1 L29.4545455,23.1 L29.4545455,8.25 C29.4545455,7.59 29.8909091,7.15 30.5454545,7.15 L31.0909091,7.15 C31.7454545,7.15 32.1818182,7.59 32.1818182,8.25 L32.1818182,22 Z" id="Shape" stroke="#45413C" stroke-width="1.09090909" fill="#DEBB7E" stroke-linecap="round" stroke-linejoin="round"></path>
                        <rect id="Rectangle-path" stroke="#45413C" stroke-width="1.09090909" fill="#DEBB7E" stroke-linecap="round" stroke-linejoin="round" x="4.36363636" y="20.35" width="25.0909091" height="2.75"></rect>
                        <path d="M11.4545455,18.15 C11.4545455,19.36 10.4727273,20.35 9.27272727,20.35 C8.07272727,20.35 7.09090909,19.36 7.09090909,18.15 L7.09090909,4.4 L11.4545455,4.4 L11.4545455,18.15 Z" id="Shape" stroke="#45413C" stroke-width="1.09090909" fill="#9CEB60" stroke-linecap="round" stroke-linejoin="round"></path>
                        <path d="M19.0909091,18.15 C19.0909091,19.36 18.1090909,20.35 16.9090909,20.35 C15.7090909,20.35 14.7272727,19.36 14.7272727,18.15 L14.7272727,1.1 C14.7272727,0.44 15.1636364,0 15.8181818,0 L18,0 C18.6545455,0 19.0909091,0.44 19.0909091,1.1 L19.0909091,18.15 Z" id="Shape" stroke="#45413C" stroke-width="1.09090909" fill="#A6FBFF" stroke-linecap="round" stroke-linejoin="round"></path>
                        <path d="M19.0909091,18.15 C19.0909091,19.36 18.1090909,20.35 16.9090909,20.35 C15.7090909,20.35 14.7272727,19.36 14.7272727,18.15 L14.7272727,4.4 L19.0909091,4.4 L19.0909091,18.15 Z" id="Shape" stroke="#45413C" stroke-width="1.09090909" fill="#FF6196" stroke-linecap="round" stroke-linejoin="round"></path>
                        <path d="M26.7272727,18.15 C26.7272727,19.36 25.7454545,20.35 24.5454545,20.35 C23.3454545,20.35 22.3636364,19.36 22.3636364,18.15 L22.3636364,1.1 C22.3636364,0.44 22.8,0 23.4545455,0 L25.6363636,0 C26.2909091,0 26.7272727,0.44 26.7272727,1.1 L26.7272727,18.15 Z" id="Shape" stroke="#45413C" stroke-width="1.09090909" fill="#A6FBFF" stroke-linecap="round" stroke-linejoin="round"></path>
                        <path d="M26.7272727,18.15 C26.7272727,19.36 25.7454545,20.35 24.5454545,20.35 C23.3454545,20.35 22.3636364,19.36 22.3636364,18.15 L22.3636364,4.4 L26.7272727,4.4 L26.7272727,18.15 Z" id="Shape" stroke="#45413C" stroke-width="1.09090909" fill="#FF6242" stroke-linecap="round" stroke-linejoin="round"></path>
                        <rect id="Rectangle-path" stroke="#45413C" stroke-width="1.09090909" fill="#DEBB7E" stroke-linecap="round" stroke-linejoin="round" x="4.36363636" y="9.9" width="25.0909091" height="2.2"></rect>
                    </g>
                    <path d="M56.7272727,47.85 L56.7272727,54.01 C56.7272727,55.33 56.9454545,56.65 57.4909091,57.75" id="Shape" stroke="#45413C" stroke-width="1.09090909" stroke-linecap="round" stroke-linejoin="round"></path>
                </g>
            </g>
        </g>
    </g>
</svg>