<?xml version="1.0" encoding="UTF-8"?>
<svg width="96px" height="96px" viewBox="0 0 96 96" version="1.1" xmlns="http://www.w3.org/2000/svg" xmlns:xlink="http://www.w3.org/1999/xlink">
    <!-- Generator: sketchtool 49.3 (51167) - http://www.bohemiancoding.com/sketch -->
    <title>5DE3C889-3820-4690-B6C5-5D297690A142</title>
    <desc>Created with sketchtool.</desc>
    <defs></defs>
    <g id="Symbols" stroke="none" stroke-width="1" fill="none" fill-rule="evenodd">
        <g id="image/shipping">
            <g id="Group-7" transform="translate(0.000000, 4.000000)">
                <g id="Group">
                    <g transform="translate(4.363636, 0.000000)" fill-rule="nonzero" id="Shape">
                        <path d="M87.2727273,44 C87.2727273,19.69 67.7454545,0 43.6363636,0 C19.5272727,0 0,19.69 0,44 C0,50.49 1.41818182,56.65 3.92727273,62.15 L83.4545455,62.15 C85.8545455,56.65 87.2727273,50.49 87.2727273,44 Z" fill="#BDFBFC"></path>
                        <path d="M3.92727273,62.15 C10.8,77.44 25.9636364,88 43.6363636,88 C61.3090909,88 76.5818182,77.44 83.3454545,62.15 L3.92727273,62.15 Z" fill="#BDBEC0"></path>
                        <path d="M81.3818182,66 C82.1454545,64.79 82.8,63.47 83.3454545,62.15 L3.81818182,62.15 C4.36363636,63.47 5.12727273,64.79 5.78181818,66 L81.3818182,66 Z" fill="#E0E0E0"></path>
                    </g>
                    <g transform="translate(0.000000, 61.600000)" id="Shape" stroke="#45413C" stroke-linecap="round" stroke-linejoin="round" stroke-width="1.09090909">
                        <path d="M5.45454545,0.55 L90.5454545,0.55"></path>
                        <path d="M0.545454545,0.55 L3.27272727,0.55"></path>
                        <path d="M92.7272727,0.55 L95.4545455,0.55"></path>
                    </g>
                    <g transform="translate(54.545455, 73.700000)" id="Shape" stroke="#E0E0E0" stroke-linecap="round" stroke-width="1.09090909">
                        <path d="M8.72727273,0 L16.5818182,0"></path>
                        <path d="M4.14545455,0 L6.10909091,0"></path>
                        <path d="M0.872727273,0 L1.52727273,0"></path>
                    </g>
                    <g transform="translate(22.909091, 69.300000)" id="Shape" stroke="#E0E0E0" stroke-linecap="round" stroke-width="1.09090909">
                        <path d="M7.85454545,0.55 L15.6,0.55"></path>
                        <path d="M3.27272727,0.55 L5.23636364,0.55"></path>
                        <path d="M0,0.55 L0.654545455,0.55"></path>
                    </g>
                    <g transform="translate(34.909091, 81.400000)" id="Shape" stroke="#E0E0E0" stroke-linecap="round" stroke-width="1.09090909">
                        <path d="M7.96363636,0.55 L15.8181818,0.55"></path>
                        <path d="M3.49090909,0.55 L5.45454545,0.55"></path>
                        <path d="M0.218181818,0.55 L0.872727273,0.55"></path>
                    </g>
                </g>
                <g id="Group" transform="translate(17.454545, 6.600000)">
                    <path d="M36.7636364,49.61 L29.5636364,49.61 L29.5636364,54.45 C29.5636364,55.11 30,55.55 30.6545455,55.55 L35.6727273,55.55 C36.3272727,55.55 36.7636364,55.11 36.7636364,54.45 L36.7636364,49.61 Z" id="Shape" fill="#656769" fill-rule="nonzero"></path>
                    <rect id="Rectangle-path" fill="#525252" fill-rule="nonzero" x="29.5636364" y="49.61" width="7.2" height="2.64"></rect>
                    <path d="M66.3272727,46.31 L25.6363636,46.31 L25.6363636,3.3 C25.6363636,1.87 26.8363636,0.66 28.2545455,0.66 L63.7090909,0.66 C65.1272727,0.66 66.3272727,1.87 66.3272727,3.3 L66.3272727,46.31 L66.3272727,46.31 Z" id="Shape" stroke="#45413C" stroke-width="1.09090909" fill="#915E3A" fill-rule="nonzero" stroke-linecap="round" stroke-linejoin="round"></path>
                    <rect id="Rectangle-path" stroke="#45413C" stroke-width="1.09090909" fill="#915E3A" fill-rule="nonzero" stroke-linecap="round" stroke-linejoin="round" x="25.6363636" y="6.6" width="40.6909091" height="33.11"></rect>
                    <path d="M66.3272727,3.3 C66.3272727,1.87 65.1272727,0.66 63.7090909,0.66 L28.2545455,0.66 C26.8363636,0.66 25.6363636,1.87 25.6363636,3.3 L25.6363636,6.6 L66.3272727,6.6 L66.3272727,3.3 L66.3272727,3.3 Z" id="Shape" fill="#915E3A" fill-rule="nonzero"></path>
                    <path d="M66.3272727,3.3 C66.3272727,1.87 65.1272727,0.66 63.7090909,0.66 L28.2545455,0.66 C26.8363636,0.66 25.6363636,1.87 25.6363636,3.3 L25.6363636,3.96 L66.3272727,3.96 L66.3272727,3.3 L66.3272727,3.3 Z" id="Shape" fill="#BF8256" fill-rule="nonzero"></path>
                    <g transform="translate(0.000000, 9.900000)">
                        <g transform="translate(13.090909, 50.600000)" id="Rectangle-path">
                            <rect fill="#FFCEBF" fill-rule="nonzero" transform="translate(2.032473, 4.840000) rotate(-180.000000) translate(-2.032473, -4.840000) " x="0.0688363636" y="0.715" width="3.92727273" height="8.25"></rect>
                            <rect fill="#FFB59E" fill-rule="nonzero" transform="translate(2.032473, 2.602490) rotate(-180.000000) translate(-2.032473, -2.602490) " x="0.0688363636" y="0.73249" width="3.92727273" height="3.74"></rect>
                            <rect stroke="#45413C" stroke-width="1.09090909" stroke-linecap="round" stroke-linejoin="round" transform="translate(2.032473, 4.840000) rotate(-180.000000) translate(-2.032473, -4.840000) " x="0.0688363636" y="0.715" width="3.92727273" height="8.25"></rect>
                        </g>
                        <path d="M19.2,59.29 C19.4181818,59.62 19.4181818,60.06 19.2,60.39 C18.9818182,60.72 18.6545455,60.94 18.2181818,60.94 L13.7454545,60.94 C13.4181818,60.94 12.9818182,60.72 12.7636364,60.39 C12.5454545,60.06 12.5454545,59.62 12.7636364,59.29 C14.0727273,57.09 17.8909091,57.2 19.2,59.29 Z" id="Shape" stroke="#45413C" stroke-width="1.09090909" fill="#87898C" fill-rule="nonzero" stroke-linecap="round" stroke-linejoin="round"></path>
                        <g transform="translate(4.363636, 50.600000)" id="Rectangle-path">
                            <rect fill="#FFCEBF" fill-rule="nonzero" x="0.981818182" y="0.66" width="3.92727273" height="8.25"></rect>
                            <rect fill="#FFB59E" fill-rule="nonzero" x="0.981818182" y="0.66" width="3.92727273" height="3.74"></rect>
                            <rect stroke="#45413C" stroke-width="1.09090909" stroke-linecap="round" stroke-linejoin="round" x="0.981818182" y="0.66" width="3.92727273" height="8.25"></rect>
                        </g>
                        <path d="M22.3636364,31.24 C22.3636364,25.08 17.3454545,20.02 11.2363636,20.02 C5.12727273,20.02 0.109090909,25.08 0.109090909,31.24 L0.109090909,31.9 L4.03636364,31.9 L4.03636364,40.48 L18.4363636,40.48 L18.4363636,31.9 L22.3636364,31.9 L22.3636364,31.24 Z" id="Shape" fill="#DEA47A" fill-rule="nonzero"></path>
                        <ellipse id="Oval" fill="#45413C" fill-rule="nonzero" opacity="0.15" cx="11.2363636" cy="61.49" rx="10.9090909" ry="1.65"></ellipse>
                        <path d="M8.61818182,52.36 C9.16363636,52.36 9.70909091,51.92 9.70909091,51.26 L9.92727273,46.42 C9.92727273,45.65 10.5818182,45.1 11.3454545,45.1 C12.1090909,45.1 12.6545455,45.65 12.7636364,46.42 L12.9818182,51.26 C12.9818182,51.81 13.5272727,52.36 14.0727273,52.36 L18.2181818,52.36 C18.5454545,52.36 18.7636364,52.25 18.9818182,52.03 C19.2,51.81 19.3090909,51.48 19.3090909,51.26 L18.7636364,39.16 L12.2181818,39.16 L10.9090909,39.16 L4.36363636,39.16 L3.81818182,51.26 C3.81818182,51.59 3.92727273,51.81 4.14545455,52.03 C4.36363636,52.25 4.69090909,52.36 4.90909091,52.36 L8.61818182,52.36 Z" id="Shape" fill="#DEA47A" fill-rule="nonzero"></path>
                        <polygon id="Shape" fill="#BF8256" fill-rule="nonzero" points="3.70909091 43.78 18.6545455 43.78 18.5454545 41.14 3.92727273 41.14"></polygon>
                        <path d="M8.61818182,52.36 C9.16363636,52.36 9.70909091,51.92 9.70909091,51.26 L9.92727273,46.42 C9.92727273,45.65 10.5818182,45.1 11.3454545,45.1 C12.1090909,45.1 12.6545455,45.65 12.7636364,46.42 L12.9818182,51.26 C12.9818182,51.81 13.5272727,52.36 14.0727273,52.36 L18.2181818,52.36 C18.5454545,52.36 18.7636364,52.25 18.9818182,52.03 C19.2,51.81 19.3090909,51.48 19.3090909,51.26 L18.7636364,39.16 L12.2181818,39.16 L10.9090909,39.16 L4.36363636,39.16 L3.81818182,51.26 C3.81818182,51.59 3.92727273,51.81 4.14545455,52.03 C4.36363636,52.25 4.69090909,52.36 4.90909091,52.36 L8.61818182,52.36 Z" id="Shape" stroke="#45413C" stroke-width="1.09090909" stroke-linecap="round" stroke-linejoin="round"></path>
                        <path d="M11.2363636,19.91 C5.12727273,19.91 0.109090909,24.97 0.109090909,31.13 L0.109090909,31.79 L0.327272727,31.79 C1.30909091,26.62 5.89090909,22.66 11.2363636,22.66 C16.6909091,22.66 21.1636364,26.62 22.1454545,31.79 L22.3636364,31.79 L22.3636364,31.13 C22.3636364,24.97 17.3454545,19.91 11.2363636,19.91 Z" id="Shape" fill="#F0C2A1" fill-rule="nonzero"></path>
                        <path d="M22.3636364,31.24 C22.3636364,25.08 17.3454545,20.02 11.2363636,20.02 C5.12727273,20.02 0.109090909,25.08 0.109090909,31.24 L0.109090909,31.9 L4.03636364,31.9 L4.03636364,40.48 L18.4363636,40.48 L18.4363636,31.9 L22.3636364,31.9 L22.3636364,31.24 Z" id="Shape" stroke="#45413C" stroke-width="1.09090909" stroke-linecap="round" stroke-linejoin="round"></path>
                        <path d="M18.4363636,31.9 L18.4363636,27.94" id="Shape" stroke="#45413C" stroke-width="1.09090909" fill="#00B8F0" fill-rule="nonzero" stroke-linecap="round" stroke-linejoin="round"></path>
                        <path d="M4.03636364,31.9 L4.03636364,27.94" id="Shape" stroke="#45413C" stroke-width="1.09090909" fill="#00B8F0" fill-rule="nonzero" stroke-linecap="round" stroke-linejoin="round"></path>
                        <path d="M4.03636364,43.78 C4.03636364,44.88 3.16363636,45.76 2.07272727,45.76 C0.981818182,45.76 0.109090909,44.88 0.109090909,43.78 L0.109090909,31.9 L4.03636364,31.9 L4.03636364,43.78 L4.03636364,43.78 Z" id="Shape" fill="#FFCEBF" fill-rule="nonzero"></path>
                        <rect id="Rectangle-path" stroke="#45413C" stroke-width="1.09090909" fill="#FFE500" fill-rule="nonzero" stroke-linecap="round" stroke-linejoin="round" x="9.27272727" y="38.5" width="3.92727273" height="2.64"></rect>
                        <rect id="Rectangle-path" stroke="#45413C" stroke-width="1.09090909" fill="#A86C4D" fill-rule="nonzero" stroke-linecap="round" stroke-linejoin="round" x="4.03636364" y="38.5" width="14.4" height="2.64"></rect>
                        <path d="M3.16363636,59.29 C2.94545455,59.62 2.94545455,60.06 3.16363636,60.39 C3.38181818,60.72 3.70909091,60.94 4.14545455,60.94 L8.61818182,60.94 C8.94545455,60.94 9.38181818,60.72 9.6,60.39 C9.81818182,60.06 9.81818182,59.62 9.6,59.29 C8.29090909,57.09 4.47272727,57.2 3.16363636,59.29 Z" id="Shape" stroke="#45413C" stroke-width="1.09090909" fill="#87898C" fill-rule="nonzero" stroke-linecap="round" stroke-linejoin="round"></path>
                        <path d="M4.03636364,43.78 C4.03636364,44.88 3.16363636,45.76 2.07272727,45.76 C0.981818182,45.76 0.109090909,44.88 0.109090909,43.78 L0.109090909,31.9 L4.03636364,31.9 L4.03636364,43.78 L4.03636364,43.78 Z" id="Shape" stroke="#45413C" stroke-width="1.09090909" stroke-linecap="round" stroke-linejoin="round"></path>
                        <path d="M22.3636364,43.78 C22.3636364,44.88 21.4909091,45.76 20.4,45.76 C19.3090909,45.76 18.4363636,44.88 18.4363636,43.78 L18.4363636,31.9 L22.3636364,31.9 L22.3636364,43.78 L22.3636364,43.78 Z" id="Shape" fill="#FFCEBF" fill-rule="nonzero"></path>
                        <path d="M22.3636364,43.78 C22.3636364,44.88 21.4909091,45.76 20.4,45.76 C19.3090909,45.76 18.4363636,44.88 18.4363636,43.78 L18.4363636,31.9 L22.3636364,31.9 L22.3636364,43.78 L22.3636364,43.78 Z" id="Shape" stroke="#45413C" stroke-width="1.09090909" stroke-linecap="round" stroke-linejoin="round"></path>
                        <path d="M11.2363636,19.91 C10.0363636,19.91 8.83636364,20.13 7.74545455,20.46 L11.2363636,26.51 L14.7272727,20.46 C13.6363636,20.13 12.4363636,19.91 11.2363636,19.91 Z" id="Shape" stroke="#45413C" stroke-width="1.09090909" fill="#FFCEBF" fill-rule="nonzero" stroke-linecap="round" stroke-linejoin="round"></path>
                        <path d="M5.34545455,23.98 C7.41818182,24.31 9.27272727,24.97 11.2363636,26.62 L7.74545455,20.57 C7.2,20.79 6.76363636,20.9 6.32727273,21.23 L5.34545455,23.98 Z" id="Shape" stroke="#45413C" stroke-width="1.09090909" fill="#F0C2A1" fill-rule="nonzero" stroke-linecap="round" stroke-linejoin="round"></path>
                        <path d="M17.1272727,23.98 C15.0545455,24.31 13.2,24.97 11.2363636,26.62 L14.7272727,20.57 C15.2727273,20.79 15.7090909,20.9 16.1454545,21.23 L17.1272727,23.98 Z" id="Shape" stroke="#45413C" stroke-width="1.09090909" fill="#F0C2A1" fill-rule="nonzero" stroke-linecap="round" stroke-linejoin="round"></path>
                        <path d="M11.2363636,26.62 L11.2363636,29.92" id="Shape" stroke="#45413C" stroke-width="1.09090909" fill="#FFCEBF" fill-rule="nonzero" stroke-linecap="round" stroke-linejoin="round"></path>
                        <g transform="translate(3.272727, 1.100000)">
                            <path d="M7.96363636,16.61 C10.9090909,16.61 13.3090909,14.63 14.1818182,11.99 L14.1818182,11.99 C16.2545455,11.99 16.3636364,8.69 14.5090909,8.69 L14.5090909,7.37 C14.5090909,3.74 11.5636364,0.77 7.96363636,0.77 C4.36363636,0.77 1.41818182,3.74 1.41818182,7.37 L1.41818182,8.69 C-0.436363636,8.69 -0.327272727,11.99 1.74545455,11.99 L1.74545455,11.99 C2.50909091,14.74 5.01818182,16.61 7.96363636,16.61 Z" id="Shape" stroke="#45413C" stroke-width="1.09090909" fill="#FFCEBF" fill-rule="nonzero" stroke-linecap="round" stroke-linejoin="round"></path>
                            <path d="M5.78181818,8.03 C5.34545455,8.03 4.90909091,8.36 4.90909091,8.91 C4.90909091,9.35 5.23636364,9.79 5.78181818,9.79 C6.21818182,9.79 6.65454545,9.46 6.65454545,8.91 C6.65454545,8.47 6.21818182,8.03 5.78181818,8.03 L5.78181818,8.03 Z" id="Shape" fill="#45413C" fill-rule="nonzero"></path>
                            <path d="M10.0363636,8.03 C9.6,8.03 9.16363636,8.36 9.16363636,8.91 C9.16363636,9.35 9.49090909,9.79 10.0363636,9.79 C10.4727273,9.79 10.9090909,9.46 10.9090909,8.91 C10.9090909,8.47 10.4727273,8.03 10.0363636,8.03 L10.0363636,8.03 Z" id="Shape" fill="#45413C" fill-rule="nonzero"></path>
                            <ellipse id="Oval" fill="#FFB59E" fill-rule="nonzero" cx="4.03636364" cy="10.67" rx="1" ry="1"></ellipse>
                            <ellipse id="Oval" fill="#FFB59E" fill-rule="nonzero" cx="11.8909091" cy="10.67" rx="1" ry="1"></ellipse>
                            <path d="M6.32727273,12.76 C7.30909091,13.42 8.61818182,13.42 9.6,12.76" id="Shape" stroke="#45413C" stroke-width="1.09090909" stroke-linecap="round" stroke-linejoin="round"></path>
                        </g>
                        <path d="M15.1636364,0.55 L7.30909091,0.55 C5.45454545,0.55 4.03636364,1.98 4.03636364,3.85 L4.03636364,6.49 L18.4363636,6.49 L18.4363636,3.85 C18.4363636,1.98 16.9090909,0.55 15.1636364,0.55 Z" id="Shape" stroke="#45413C" stroke-width="1.09090909" fill="#BF8256" fill-rule="nonzero" stroke-linecap="round" stroke-linejoin="round"></path>
                        <path d="M11.2363636,0.55 C11.2363636,0.55 7.30909091,2.53 7.30909091,5.83" id="Shape" stroke="#45413C" stroke-width="1.09090909" stroke-linejoin="round"></path>
                        <path d="M11.2363636,0.55 C11.2363636,0.55 15.1636364,2.53 15.1636364,5.83" id="Shape" stroke="#45413C" stroke-width="1.09090909" stroke-linejoin="round"></path>
                        <path d="M18.7636364,7.37 C18.8727273,7.7 18.7636364,8.14 18.4363636,8.36 C18.2181818,8.58 17.7818182,8.69 17.4545455,8.69 C13.9636364,7.92 8.50909091,7.92 5.01818182,8.69 C4.69090909,8.8 4.25454545,8.69 4.03636364,8.36 C3.81818182,8.14 3.70909091,7.7 3.70909091,7.37 L4.03636364,5.83 C9.81818182,4.07 12.6545455,4.07 18.4363636,5.83 L18.7636364,7.37 Z" id="Shape" stroke="#45413C" stroke-width="1.09090909" fill="#DEA47A" fill-rule="nonzero" stroke-linecap="round" stroke-linejoin="round"></path>
                        <polygon id="Shape" stroke="#45413C" stroke-width="1.09090909" fill="#FF8A14" fill-rule="nonzero" stroke-linecap="round" stroke-linejoin="round" points="16.4727273 30.58 14.8363636 31.9 13.2 30.58 13.2 27.94 16.4727273 27.94"></polygon>
                    </g>
                    <path d="M66.3272727,47.41 C66.3272727,48.62 65.3454545,49.61 64.1454545,49.61 L27.8181818,49.61 C26.6181818,49.61 25.6363636,48.62 25.6363636,47.41 L25.6363636,46.31 L66.3272727,46.31 L66.3272727,47.41 Z" id="Shape" stroke="#45413C" stroke-width="1.09090909" fill="#8CA4B8" fill-rule="nonzero" stroke-linecap="round" stroke-linejoin="round"></path>
                    <path d="M36.7636364,49.61 L29.5636364,49.61 L29.5636364,54.45 C29.5636364,55.11 30,55.55 30.6545455,55.55 L35.6727273,55.55 C36.3272727,55.55 36.7636364,55.11 36.7636364,54.45 L36.7636364,49.61 Z" id="Shape" stroke="#45413C" stroke-width="1.09090909" stroke-linecap="round" stroke-linejoin="round"></path>
                    <path d="M62.4,49.61 L55.2,49.61 L55.2,54.45 C55.2,55.11 55.6363636,55.55 56.2909091,55.55 L61.3090909,55.55 C61.9636364,55.55 62.4,55.11 62.4,54.45 L62.4,49.61 Z" id="Shape" fill="#656769" fill-rule="nonzero"></path>
                    <rect id="Rectangle-path" fill="#525252" fill-rule="nonzero" x="55.2" y="49.61" width="7.2" height="2.64"></rect>
                    <path d="M62.4,49.61 L55.2,49.61 L55.2,54.45 C55.2,55.11 55.6363636,55.55 56.2909091,55.55 L61.3090909,55.55 C61.9636364,55.55 62.4,55.11 62.4,54.45 L62.4,49.61 Z" id="Shape" stroke="#45413C" stroke-width="1.09090909" stroke-linecap="round" stroke-linejoin="round"></path>
                    <ellipse id="Oval" stroke="#45413C" stroke-width="1.09090909" fill="#FF6242" fill-rule="nonzero" stroke-linecap="round" stroke-linejoin="round" cx="61.7454545" cy="43.01" rx="1.30909091" ry="1.32"></ellipse>
                    <ellipse id="Oval" stroke="#45413C" stroke-width="1.09090909" fill="#FF8A14" fill-rule="nonzero" stroke-linecap="round" stroke-linejoin="round" cx="56.5090909" cy="43.01" rx="1.30909091" ry="1.32"></ellipse>
                    <ellipse id="Oval" stroke="#45413C" stroke-width="1.09090909" fill="#FF6242" fill-rule="nonzero" stroke-linecap="round" stroke-linejoin="round" cx="30.2181818" cy="43.01" rx="1.30909091" ry="1.32"></ellipse>
                    <ellipse id="Oval" stroke="#45413C" stroke-width="1.09090909" fill="#FF8A14" fill-rule="nonzero" stroke-linecap="round" stroke-linejoin="round" cx="35.4545455" cy="43.01" rx="1.30909091" ry="1.32"></ellipse>
                    <path d="M71.5636364,38.61 C71.5636364,39.27 71.1272727,39.71 70.4727273,39.71 L57.1636364,39.71 L57.1636364,6.6 L70.4727273,6.6 C71.1272727,6.6 71.5636364,7.04 71.5636364,7.7 L71.5636364,38.61 Z" id="Shape" stroke="#45413C" stroke-width="1.09090909" fill="#ADC4D9" fill-rule="nonzero" stroke-linecap="round" stroke-linejoin="round"></path>
                    <path d="M67.8545455,37.07 L60.8727273,37.07 C60.2181818,37.07 59.7818182,36.63 59.7818182,35.97 L59.7818182,25.63 C59.7818182,24.97 60.2181818,24.53 60.8727273,24.53 L67.8545455,24.53 C68.5090909,24.53 68.9454545,24.97 68.9454545,25.63 L68.9454545,35.97 C68.9454545,36.52 68.5090909,37.07 67.8545455,37.07 Z" id="Shape" stroke="#45413C" stroke-width="1.09090909" fill="#8CA4B8" fill-rule="nonzero" stroke-linecap="round" stroke-linejoin="round"></path>
                    <path d="M67.8545455,21.78 L60.8727273,21.78 C60.2181818,21.78 59.7818182,21.34 59.7818182,20.68 L59.7818182,10.34 C59.7818182,9.68 60.2181818,9.24 60.8727273,9.24 L67.8545455,9.24 C68.5090909,9.24 68.9454545,9.68 68.9454545,10.34 L68.9454545,20.68 C68.9454545,21.34 68.5090909,21.78 67.8545455,21.78 Z" id="Shape" stroke="#45413C" stroke-width="1.09090909" fill="#8CA4B8" fill-rule="nonzero" stroke-linecap="round" stroke-linejoin="round"></path>
                    <rect id="Rectangle-path" fill="#87898C" fill-rule="nonzero" x="42" y="6.6" width="15.0545455" height="33.11"></rect>
                    <rect id="Rectangle-path" fill="#656769" fill-rule="nonzero" x="42" y="6.6" width="15.0545455" height="6.05"></rect>
                    <rect id="Rectangle-path" stroke="#45413C" stroke-width="1.09090909" stroke-linecap="round" stroke-linejoin="round" x="42" y="6.6" width="15.0545455" height="33.11"></rect>
                    <path d="M57.1636364,39.71 L46.6909091,39.71 L46.6909091,32.23 C46.6909091,31.57 47.1272727,31.13 47.7818182,31.13 L57.1636364,31.13 L57.1636364,39.71 Z" id="Shape" stroke="#45413C" stroke-width="1.09090909" fill="#DEBB7E" fill-rule="nonzero" stroke-linecap="round" stroke-linejoin="round"></path>
                    <path d="M57.1636364,31.02 L50.6181818,31.02 L50.6181818,25.52 C50.6181818,24.86 51.0545455,24.42 51.7090909,24.42 L57.1636364,24.42 L57.1636364,31.02 Z" id="Shape" stroke="#45413C" stroke-width="1.09090909" fill="#DEBB7E" fill-rule="nonzero" stroke-linecap="round" stroke-linejoin="round"></path>
                    <path d="M68.9454545,27.5 L66.1090909,27.5 C65.4545455,27.5 65.0181818,27.06 65.0181818,26.4 L65.0181818,24.42 L67.8545455,24.42 C68.5090909,24.42 68.9454545,24.86 68.9454545,25.52 L68.9454545,27.5 Z" id="Shape" stroke="#45413C" stroke-width="1.09090909" fill="#627B8C" fill-rule="nonzero" stroke-linecap="round" stroke-linejoin="round"></path>
                    <g transform="translate(28.363636, 15.400000)" fill-rule="nonzero" id="Shape" stroke="#45413C" stroke-linecap="round" stroke-linejoin="round" stroke-width="1.09090909">
                        <path d="M10.3636364,1.1 C6.98181818,0.22 3.6,0.22 0.545454545,1.1 L0.545454545,4.62 C3.6,3.52 6.87272727,2.86 10.3636364,2.53 L10.3636364,1.1 Z" fill="#FFE500"></path>
                        <path d="M0.545454545,7.04 C0.545454545,7.92 0.981818182,8.69 1.63636364,9.24 L5.12727273,11.77 L9.16363636,9.24 C9.92727273,8.8 10.3636364,7.92 10.3636364,7.04 L10.3636364,2.64 C6.87272727,2.97 3.6,3.63 0.545454545,4.73 L0.545454545,7.04 Z" fill="#BF8256"></path>
                    </g>
                    <path d="M53.3454545,36.41 L51.1636364,36.41 C50.8363636,36.41 50.6181818,36.19 50.6181818,35.86 L50.6181818,31.13 L53.8909091,31.13 L53.8909091,35.86 C53.8909091,36.08 53.5636364,36.41 53.3454545,36.41 Z" id="Shape" stroke="#45413C" stroke-width="1.09090909" fill="#F7E5C6" fill-rule="nonzero" stroke-linecap="round" stroke-linejoin="round"></path>
                    <path d="M33.4909091,3.63 C33.4909091,4.18 33.0545455,4.62 32.5090909,4.62 L29.8909091,4.62 C29.3454545,4.62 28.9090909,4.18 28.9090909,3.63 C28.9090909,3.08 29.3454545,2.64 29.8909091,2.64 L32.5090909,2.64 C33.0545455,2.64 33.4909091,3.08 33.4909091,3.63 Z" id="Shape" stroke="#45413C" stroke-width="1.09090909" fill="#FF6242" fill-rule="nonzero" stroke-linecap="round" stroke-linejoin="round"></path>
                    <path d="M63.7090909,3.63 C63.7090909,4.18 63.2727273,4.62 62.7272727,4.62 L60.1090909,4.62 C59.5636364,4.62 59.1272727,4.18 59.1272727,3.63 C59.1272727,3.08 59.5636364,2.64 60.1090909,2.64 L62.7272727,2.64 C63.2727273,2.64 63.7090909,3.08 63.7090909,3.63 Z" id="Shape" stroke="#45413C" stroke-width="1.09090909" fill="#FF6242" fill-rule="nonzero" stroke-linecap="round" stroke-linejoin="round"></path>
                    <path d="M66.3272727,3.3 C66.3272727,1.87 65.1272727,0.66 63.7090909,0.66 L28.2545455,0.66 C26.8363636,0.66 25.6363636,1.87 25.6363636,3.3 L25.6363636,6.6 L66.3272727,6.6 L66.3272727,3.3 L66.3272727,3.3 Z" id="Shape" stroke="#45413C" stroke-width="1.09090909" stroke-linecap="round" stroke-linejoin="round"></path>
                </g>
            </g>
        </g>
    </g>
</svg>