<?xml version="1.0" encoding="UTF-8"?>
<svg width="96px" height="96px" viewBox="0 0 96 96" version="1.1" xmlns="http://www.w3.org/2000/svg" xmlns:xlink="http://www.w3.org/1999/xlink">
    <!-- Generator: sketchtool 49.3 (51167) - http://www.bohemiancoding.com/sketch -->
    <title>B86A470C-FE57-45AF-A279-F3C91DDC2B85</title>
    <desc>Created with sketchtool.</desc>
    <defs></defs>
    <g id="Symbols" stroke="none" stroke-width="1" fill="none" fill-rule="evenodd">
        <g id="image/cash-offers">
            <g id="Group-8" transform="translate(0.000000, 4.000000)">
                <g id="Group" transform="translate(0.255319, 0.000000)">
                    <g transform="translate(4.340426, 0.000000)" fill-rule="nonzero" id="Shape">
                        <path d="M86.8085106,43.5 C86.8085106,19.46625 67.3851064,0 43.4042553,0 C19.4234043,0 0,19.46625 0,43.5 C0,49.91625 1.4106383,56.00625 3.90638298,61.44375 L83.0106383,61.44375 C85.3978723,56.00625 86.8085106,49.91625 86.8085106,43.5 Z" fill="#BDFBFC"></path>
                        <path d="M3.90638298,61.44375 C10.7425532,76.56 25.8255319,87 43.4042553,87 C60.9829787,87 76.1744681,76.56 82.9021277,61.44375 L3.90638298,61.44375 Z" fill="#CDF7AD"></path>
                        <path d="M80.9489362,65.25 C81.7085106,64.05375 82.3595745,62.74875 82.9021277,61.44375 L3.79787234,61.44375 C4.34042553,62.74875 5.1,64.05375 5.75106383,65.25 L80.9489362,65.25 Z" fill="#E4FFD1"></path>
                    </g>
                    <g transform="translate(0.000000, 60.900000)" id="Shape" stroke="#45413C" stroke-linecap="round" stroke-linejoin="round" stroke-width="1.08354956">
                        <path d="M5.42553191,0.54375 L90.0638298,0.54375"></path>
                        <path d="M0.542553191,0.54375 L3.25531915,0.54375"></path>
                        <path d="M92.2340426,0.54375 L94.9468085,0.54375"></path>
                    </g>
                </g>
                <g id="Group" transform="translate(1.000000, 9.787500)">
                    <g transform="translate(0.000000, 7.612500)">
                        <ellipse id="Oval" fill="#45413C" fill-rule="nonzero" opacity="0.15" cx="47.3255319" cy="58.5075" rx="16.2765957" ry="1.63125"></ellipse>
                        <path d="M67.5085106,44.04375 L67.5085106,23.16375 C67.5085106,21.75 66.3148936,20.55375 64.9042553,20.55375 L29.7468085,20.55375 C28.3361702,20.55375 27.1425532,21.75 27.1425532,23.16375 L27.1425532,44.04375 L67.5085106,44.04375 Z" id="Shape" fill="#00B8F0" fill-rule="nonzero"></path>
                        <path d="M32.3510638,44.04375 L55.7893617,20.55375 L29.7468085,20.55375 C28.3361702,20.55375 27.1425532,21.75 27.1425532,23.16375 L27.1425532,44.04375 L32.3510638,44.04375 Z" id="Shape" fill="#4ACFFF" fill-rule="nonzero"></path>
                        <path d="M67.5085106,44.04375 L67.5085106,49.26375 C67.5085106,50.6775 66.3148936,51.87375 64.9042553,51.87375 L29.7468085,51.87375 C28.3361702,51.87375 27.1425532,50.6775 27.1425532,49.26375 L27.1425532,44.04375 L67.5085106,44.04375 Z" id="Shape" stroke="#45413C" stroke-width="1.08354956" fill="#FFFFFF" fill-rule="nonzero" stroke-linecap="round" stroke-linejoin="round"></path>
                        <ellipse id="Oval" stroke="#45413C" stroke-width="1.08354956" fill="#525252" fill-rule="nonzero" stroke-linecap="round" stroke-linejoin="round" cx="47.3255319" cy="47.95875" rx="1.30212766" ry="1.305"></ellipse>
                        <polygon id="Shape" stroke="#45413C" stroke-width="1.08354956" fill="#DAEDF7" fill-rule="nonzero" stroke-linecap="round" stroke-linejoin="round" points="53.8361702 57.09375 40.8148936 57.09375 41.4659574 51.9825 53.1851064 51.9825"></polygon>
                        <path d="M36.9085106,57.09375 L57.7425532,57.09375" id="Shape" stroke="#45413C" stroke-width="1.08354956" stroke-linecap="round" stroke-linejoin="round"></path>
                        <path d="M67.5085106,44.04375 L67.5085106,23.16375 C67.5085106,21.75 66.3148936,20.55375 64.9042553,20.55375 L29.7468085,20.55375 C28.3361702,20.55375 27.1425532,21.75 27.1425532,23.16375 L27.1425532,44.04375 L67.5085106,44.04375 Z" id="Shape" stroke="#45413C" stroke-width="1.08354956" stroke-linecap="round" stroke-linejoin="round"></path>
                        <ellipse id="Oval" fill="#FFFFFF" fill-rule="nonzero" cx="47.3255319" cy="32.29875" rx="7.81276596" ry="7.83"></ellipse>
                        <path d="M51.0148936,25.4475 C49.9297872,24.90375 48.7361702,24.5775 47.3255319,24.5775 C42.9851064,24.5775 39.512766,28.0575 39.512766,32.4075 C39.512766,33.7125 39.8382979,35.0175 40.3808511,36.105 L51.0148936,25.4475 Z" id="Shape" fill="#F0FFE5" fill-rule="nonzero"></path>
                        <ellipse id="Oval" stroke="#45413C" stroke-width="1.08354956" stroke-linecap="round" stroke-linejoin="round" cx="47.3255319" cy="32.29875" rx="7.81276596" ry="7.83"></ellipse>
                        <path d="M46.0234043,36.86625 C45.4808511,36.86625 45.0468085,36.64875 44.612766,36.3225 L42.0085106,33.7125 C41.2489362,32.95125 41.2489362,31.755 42.0085106,30.99375 C42.7680851,30.2325 43.9617021,30.2325 44.7212766,30.99375 L45.9148936,32.19 L49.0617021,29.03625 C49.8212766,28.275 51.0148936,28.275 51.7744681,29.03625 C52.5340426,29.7975 52.5340426,30.99375 51.7744681,31.755 L47.2170213,36.3225 C47,36.7575 46.5659574,36.86625 46.0234043,36.86625 Z" id="Shape" fill="#6DD627" fill-rule="nonzero"></path>
                        <path d="M42.3340426,34.03875 L45.0468085,31.32 L44.7212766,30.99375 C43.9617021,30.2325 42.7680851,30.2325 42.0085106,30.99375 C41.2489362,31.755 41.2489362,32.95125 42.0085106,33.7125 L42.3340426,34.03875 Z" id="Shape" fill="#9CEB60" fill-rule="nonzero"></path>
                        <path d="M46.0234043,36.86625 C45.4808511,36.86625 45.0468085,36.64875 44.612766,36.3225 L42.0085106,33.7125 C41.2489362,32.95125 41.2489362,31.755 42.0085106,30.99375 C42.7680851,30.2325 43.9617021,30.2325 44.7212766,30.99375 L45.9148936,32.19 L49.0617021,29.03625 C49.8212766,28.275 51.0148936,28.275 51.7744681,29.03625 C52.5340426,29.7975 52.5340426,30.99375 51.7744681,31.755 L47.2170213,36.3225 C47,36.7575 46.5659574,36.86625 46.0234043,36.86625 Z" id="Shape" stroke="#45413C" stroke-width="1.08354956" stroke-linecap="round" stroke-linejoin="round"></path>
                        <g>
                            <path d="M29.8404255,14.46375 C30.0574468,15.0075 29.6234043,15.66 29.0808511,15.76875 L6.07659574,22.29375 C5.53404255,22.51125 4.88297872,22.07625 4.77446809,21.5325 L1.08510638,8.59125 C0.868085106,8.0475 1.30212766,7.395 1.84468085,7.28625 L24.8489362,0.76125 C25.3914894,0.54375 26.0425532,0.97875 26.1510638,1.5225 L29.8404255,14.46375 Z" id="Shape" fill="#6DD627" fill-rule="nonzero"></path>
                            <path d="M27.3446809,5.4375 L2.2787234,12.50625 L1.19361702,8.4825 C0.976595745,7.93875 1.4106383,7.28625 1.95319149,7.1775 L24.9574468,0.6525 C25.5,0.435 26.1510638,0.87 26.2595745,1.41375 L27.3446809,5.4375 Z" id="Shape" fill="#9CEB60" fill-rule="nonzero"></path>
                            <path d="M26.2595745,11.20125 L24.8489362,6.19875 C23.4382979,6.63375 22.0276596,5.76375 21.593617,4.35 L6.5106383,8.59125 C6.94468085,10.005 6.07659574,11.41875 4.66595745,11.85375 L6.07659574,16.85625 C7.48723404,16.42125 8.89787234,17.29125 9.33191489,18.705 L24.4148936,14.46375 C23.9808511,13.05 24.8489362,11.5275 26.2595745,11.20125 Z" id="Shape" fill="#C8FFA1" fill-rule="nonzero"></path>
                            <path d="M21.593617,4.35 L6.5106383,8.59125 C6.94468085,10.005 6.07659574,11.41875 4.66595745,11.85375 L24.7404255,6.19875 C23.4382979,6.525 22.0276596,5.76375 21.593617,4.35 Z" id="Shape" fill="#E4FFD1" fill-rule="nonzero"></path>
                            <ellipse id="Oval" fill="#9CEB60" fill-rule="nonzero" transform="translate(15.521633, 11.530382) rotate(-15.824982) translate(-15.521633, -11.530382) " cx="15.521633" cy="11.5303819" rx="2.60425753" ry="2.61000222"></ellipse>
                            <ellipse id="Oval" stroke="#45413C" stroke-width="1.08355048" stroke-linecap="round" stroke-linejoin="round" transform="translate(15.521633, 11.530382) rotate(-15.824982) translate(-15.521633, -11.530382) " cx="15.521633" cy="11.5303819" rx="2.60425753" ry="2.61000222"></ellipse>
                            <path d="M26.2595745,11.20125 L24.8489362,6.19875 C23.4382979,6.63375 22.0276596,5.76375 21.593617,4.35 L6.5106383,8.59125 C6.94468085,10.005 6.07659574,11.41875 4.66595745,11.85375 L6.07659574,16.85625 C7.48723404,16.42125 8.89787234,17.29125 9.33191489,18.705 L24.4148936,14.46375 C23.9808511,13.05 24.8489362,11.5275 26.2595745,11.20125 Z" id="Shape" stroke="#45413C" stroke-width="1.08354956" stroke-linecap="round" stroke-linejoin="round"></path>
                            <path d="M29.8404255,14.46375 C30.0574468,15.0075 29.6234043,15.66 29.0808511,15.76875 L6.07659574,22.29375 C5.53404255,22.51125 4.88297872,22.07625 4.77446809,21.5325 L1.08510638,8.59125 C0.868085106,8.0475 1.30212766,7.395 1.84468085,7.28625 L24.8489362,0.76125 C25.3914894,0.54375 26.0425532,0.97875 26.1510638,1.5225 L29.8404255,14.46375 Z" id="Shape" stroke="#45413C" stroke-width="1.08354956" stroke-linecap="round" stroke-linejoin="round"></path>
                        </g>
                        <g transform="translate(66.872340, 1.087500)">
                            <path d="M20.6170213,20.88 L2.2787234,15.66 C1.08510638,15.33375 0.434042553,14.1375 0.759574468,12.94125 L3.90638298,2.06625 C4.23191489,0.87 5.42553191,0.2175 6.61914894,0.54375 L24.9574468,5.76375 C26.1510638,6.09 26.8021277,7.28625 26.4765957,8.4825 L23.3297872,19.3575 C22.8957447,20.55375 21.7021277,21.20625 20.6170213,20.88 Z" id="Shape" fill="#DAEDF7" fill-rule="nonzero"></path>
                            <rect id="Rectangle-path" fill="#525252" fill-rule="nonzero" transform="translate(14.632649, 6.977639) rotate(15.986322) translate(-14.632649, -6.977639) " x="2.91383467" y="5.67267654" width="23.4376281" height="2.60992542"></rect>
                            <path d="M3.36382979,13.2675 L9.65744681,15.0075" id="Shape" stroke="#45413C" stroke-width="1.08354956" stroke-linecap="round" stroke-linejoin="round"></path>
                            <rect id="Rectangle-path" fill="#E8F4FA" fill-rule="nonzero" transform="translate(13.223714, 11.989666) rotate(15.986322) translate(-13.223714, -11.989666) " x="4.10908089" y="10.684703" width="18.2292663" height="2.60992542"></rect>
                            <path d="M20.6170213,20.88 L2.2787234,15.66 C1.08510638,15.33375 0.434042553,14.1375 0.759574468,12.94125 L3.90638298,2.06625 C4.23191489,0.87 5.42553191,0.2175 6.61914894,0.54375 L24.9574468,5.76375 C26.1510638,6.09 26.8021277,7.28625 26.4765957,8.4825 L23.3297872,19.3575 C22.8957447,20.55375 21.7021277,21.20625 20.6170213,20.88 Z" id="Shape" stroke="#45413C" stroke-width="1.08354956" stroke-linecap="round" stroke-linejoin="round"></path>
                            <rect id="Rectangle-path" stroke="#45413C" stroke-width="1.0835186" stroke-linecap="round" stroke-linejoin="round" transform="translate(14.632649, 6.977639) rotate(15.986322) translate(-14.632649, -6.977639) " x="2.91383467" y="5.67267654" width="23.4376281" height="2.60992542"></rect>
                            <rect id="Rectangle-path" stroke="#45413C" stroke-width="1.0835186" stroke-linecap="round" stroke-linejoin="round" transform="translate(13.223714, 11.989666) rotate(15.986322) translate(-13.223714, -11.989666) " x="4.10908089" y="10.684703" width="18.2292663" height="2.60992542"></rect>
                        </g>
                    </g>
                    <g transform="translate(38.319149, 0.000000)">
                        <ellipse id="Oval" fill="#FFE500" fill-rule="nonzero" cx="9.00638298" cy="9.02625" rx="8.68085106" ry="8.7"></ellipse>
                        <path d="M9.00638298,0.32625 C4.23191489,0.32625 0.325531915,4.24125 0.325531915,9.02625 C0.325531915,11.41875 1.30212766,13.59375 2.8212766,15.225 L15.0829787,2.93625 C13.5638298,1.305 11.393617,0.32625 9.00638298,0.32625 Z" id="Shape" fill="#FFF48C" fill-rule="nonzero"></path>
                        <ellipse id="Oval" stroke="#45413C" stroke-width="1.08354956" cx="9.00638298" cy="9.02625" rx="8.68085106" ry="8.7"></ellipse>
                        <path d="M9.00638298,13.37625 L9.00638298,14.46375" id="Shape" stroke="#45413C" stroke-width="1.08354956" stroke-linecap="round" stroke-linejoin="round"></path>
                        <path d="M9.00638298,3.58875 L9.00638298,4.67625" id="Shape" stroke="#45413C" stroke-width="1.08354956" stroke-linecap="round" stroke-linejoin="round"></path>
                        <path d="M6.83617021,11.20125 C6.83617021,12.3975 7.81276596,13.37625 9.00638298,13.37625 C10.2,13.37625 11.1765957,12.3975 11.1765957,11.20125 C11.1765957,10.005 10.2,9.02625 9.00638298,9.02625 C7.81276596,9.02625 6.83617021,8.0475 6.83617021,6.85125 C6.83617021,5.655 7.81276596,4.67625 9.00638298,4.67625 C10.2,4.67625 11.1765957,5.655 11.1765957,6.85125" id="Shape" stroke="#45413C" stroke-width="1.08354956" stroke-linecap="round" stroke-linejoin="round"></path>
                    </g>
                </g>
            </g>
        </g>
    </g>
</svg>