<?xml version="1.0" encoding="UTF-8"?>
<svg width="96px" height="96px" viewBox="0 0 96 96" version="1.1" xmlns="http://www.w3.org/2000/svg" xmlns:xlink="http://www.w3.org/1999/xlink">
    <!-- Generator: sketchtool 49.3 (51167) - http://www.bohemiancoding.com/sketch -->
    <title>BC406203-495B-4BBE-B7D5-C2EB94059E82</title>
    <desc>Created with sketchtool.</desc>
    <defs></defs>
    <g id="Symbols" stroke="none" stroke-width="1" fill="none" fill-rule="evenodd">
        <g id="image/campaigns">
            <g id="Group-29" transform="translate(0.000000, 4.000000)">
                <g id="Group" transform="translate(1.090909, 1.086420)">
                    <g transform="translate(3.272727, 0.000000)" fill-rule="nonzero" id="Shape">
                        <path d="M87.8181818,43.4567901 C87.8181818,19.4469136 68.2909091,0 44.1818182,0 C20.0727273,0 0.545454545,19.4469136 0.545454545,43.4567901 C0.545454545,49.8666667 1.96363636,55.9506173 4.47272727,61.382716 L84,61.382716 C86.4,55.9506173 87.8181818,49.8666667 87.8181818,43.4567901 Z" fill="#BDFBFC"></path>
                        <path d="M4.47272727,61.382716 C11.3454545,76.4839506 26.5090909,86.9135802 44.1818182,86.9135802 C61.8545455,86.9135802 77.1272727,76.4839506 83.8909091,61.382716 L4.47272727,61.382716 Z" fill="#FCEFD9"></path>
                        <path d="M81.9272727,65.1851852 C82.6909091,63.9901235 83.3454545,62.6864198 83.8909091,61.382716 L4.36363636,61.382716 C4.90909091,62.6864198 5.67272727,63.9901235 6.32727273,65.1851852 L81.9272727,65.1851852 Z" fill="#FFF5E3"></path>
                    </g>
                    <g transform="translate(0.000000, 60.839506)" id="Shape" stroke="#45413C" stroke-linecap="round" stroke-linejoin="round" stroke-width="1.09090909">
                        <path d="M4.90909091,0.543209877 L90,0.543209877"></path>
                        <path d="M0,0.543209877 L2.72727273,0.543209877"></path>
                        <path d="M92.1818182,0.543209877 L94.9090909,0.543209877"></path>
                    </g>
                </g>
                <g id="Group">
                    <path d="M70.2545455,62.4691358 L70.2545455,54.1037037 C70.2545455,44.7604938 62.6181818,37.1555556 53.2363636,37.1555556 C43.7454545,37.1555556 36.2181818,44.7604938 36.2181818,54.1037037 L36.2181818,62.4691358 L70.2545455,62.4691358 Z" id="Shape" fill="#00B8F0" fill-rule="nonzero"></path>
                    <path d="M53.1272727,37.1555556 C43.6363636,37.1555556 36.1090909,44.7604938 36.1090909,54.1037037 L36.1090909,59.3185185 C36.1090909,49.9753086 43.7454545,42.3703704 53.1272727,42.3703704 C62.6181818,42.3703704 70.1454545,49.9753086 70.1454545,59.3185185 L70.1454545,54.1037037 C70.2545455,44.7604938 62.6181818,37.1555556 53.1272727,37.1555556 Z" id="Shape" fill="#4ACFFF" fill-rule="nonzero"></path>
                    <ellipse id="Oval" fill="#45413C" fill-rule="nonzero" opacity="0.15" cx="17.2363636" cy="71.2691358" rx="16.3636364" ry="1.62962963"></ellipse>
                    <ellipse id="Oval" fill="#45413C" fill-rule="nonzero" opacity="0.15" cx="64.6909091" cy="74.962963" rx="21.2727273" ry="1.62962963"></ellipse>
                    <path d="M53.7818182,68.3358025 L49.8545455,68.3358025 L49.8545455,73.5506173 L53.7818182,73.5506173 C55.2,73.5506173 56.4,72.3555556 56.4,70.9432099 C56.4,69.5308642 55.2,68.3358025 53.7818182,68.3358025 Z" id="Shape" stroke="#45413C" stroke-width="1.09090909" fill="#FFCEBF" fill-rule="nonzero" stroke-linecap="round" stroke-linejoin="round"></path>
                    <path d="M70.2545455,62.4691358 L70.2545455,54.1037037 C70.2545455,44.7604938 62.6181818,37.1555556 53.2363636,37.1555556 C43.7454545,37.1555556 36.2181818,44.7604938 36.2181818,54.1037037 L36.2181818,62.4691358 L70.2545455,62.4691358 Z" id="Shape" stroke="#45413C" stroke-width="1.09090909" stroke-linejoin="round"></path>
                    <path d="M53.1272727,47.3679012 L49.8545455,41.1753086 C49.4181818,40.4148148 49.2,39.545679 49.2,38.6765432 L49.2,37.5901235 L49.2,32.3753086 C49.2,32.3753086 45.2727273,31.0716049 43.3090909,32.3753086 C41.3454545,33.6790123 39.6,35.9604938 40.0363636,38.2419753 C40.3636364,39.8716049 41.4545455,41.2839506 43.0909091,41.9358025 L53.1272727,47.3679012 Z" id="Shape" stroke="#45413C" stroke-width="1.09090909" fill="#00B8F0" fill-rule="nonzero" stroke-linecap="round" stroke-linejoin="round"></path>
                    <path d="M44.0727273,37.0469136 L49.2,40.0888889 L49.2,32.3753086 C49.2,32.3753086 45.2727273,31.0716049 43.3090909,32.3753086 C43.0909091,32.4839506 42.8727273,32.7012346 42.6545455,32.8098765 C42.1090909,34.3308642 42.6545455,36.0691358 44.0727273,37.0469136 Z" id="Shape" stroke="#45413C" stroke-width="1.09090909" fill="#FFFFFF" fill-rule="nonzero" stroke-linecap="round" stroke-linejoin="round"></path>
                    <path d="M53.1272727,47.3679012 L56.4,41.1753086 C56.8363636,40.4148148 57.0545455,39.545679 57.0545455,38.6765432 L57.0545455,37.5901235 L57.0545455,32.3753086 C57.0545455,32.3753086 60.9818182,31.0716049 62.9454545,32.3753086 C64.9090909,33.6790123 66.6545455,35.9604938 66.2181818,38.2419753 C65.8909091,39.8716049 64.8,41.2839506 63.1636364,41.9358025 L53.1272727,47.3679012 Z" id="Shape" stroke="#45413C" stroke-width="1.09090909" fill="#00B8F0" fill-rule="nonzero" stroke-linecap="round" stroke-linejoin="round"></path>
                    <path d="M62.1818182,37.0469136 L57.0545455,40.0888889 L57.0545455,32.3753086 C57.0545455,32.3753086 60.9818182,31.0716049 62.9454545,32.3753086 C63.1636364,32.4839506 63.3818182,32.7012346 63.6,32.8098765 C64.2545455,34.3308642 63.7090909,36.0691358 62.1818182,37.0469136 Z" id="Shape" stroke="#45413C" stroke-width="1.09090909" fill="#FFFFFF" fill-rule="nonzero" stroke-linecap="round" stroke-linejoin="round"></path>
                    <path d="M57.0545455,38.6765432 C57.0545455,39.545679 56.8363636,40.4148148 56.4,41.1753086 L53.1272727,47.3679012 L49.8545455,41.1753086 C49.4181818,40.4148148 49.2,39.545679 49.2,38.6765432 L49.2,34.1135802 L57.0545455,34.1135802 L57.0545455,38.6765432 Z" id="Shape" fill="#FFCEBF" fill-rule="nonzero"></path>
                    <path d="M63.6,53.017284 L63.6,52.3654321" id="Shape" stroke="#45413C" stroke-width="1.09090909" stroke-linecap="round" stroke-linejoin="round"></path>
                    <path d="M63.6,62.4691358 L63.6,52.3654321" id="Shape" stroke="#45413C" stroke-width="1.09090909" stroke-linecap="round" stroke-linejoin="round"></path>
                    <path d="M42.6545455,61.817284 L42.6545455,52.3654321" id="Shape" stroke="#45413C" stroke-width="1.09090909" stroke-linecap="round" stroke-linejoin="round"></path>
                    <path d="M49.2,37.5901235 C51.4909091,38.6765432 54.6545455,38.6765432 57.0545455,37.5901235 L57.0545455,34.1135802 L49.2,34.1135802 L49.2,37.5901235 Z" id="Shape" fill="#FFB59E" fill-rule="nonzero"></path>
                    <path d="M57.0545455,38.6765432 C57.0545455,39.545679 56.8363636,40.4148148 56.4,41.1753086 L53.1272727,47.3679012 L49.8545455,41.1753086 C49.4181818,40.4148148 49.2,39.545679 49.2,38.6765432 L49.2,34.1135802 L57.0545455,34.1135802 L57.0545455,38.6765432 Z" id="Shape" stroke="#45413C" stroke-width="1.09090909" stroke-linecap="round" stroke-linejoin="round"></path>
                    <path d="M64.2545455,22.5975309 L64.2545455,19.9901235 C64.2545455,13.9061728 59.2363636,8.90864198 53.1272727,8.90864198 C47.0181818,8.90864198 42,13.9061728 42,19.9901235 L42,22.5975309 C40.9090909,22.5975309 40.0363636,23.4666667 40.0363636,24.5530864 L40.0363636,25.2049383 C40.0363636,26.291358 40.9090909,27.1604938 42,27.1604938 L42.2181818,27.1604938 C43.0909091,32.3753086 47.6727273,36.2864198 53.2363636,36.2864198 C58.6909091,36.2864198 63.2727273,32.3753086 64.2545455,27.1604938 L64.4727273,27.1604938 C65.5636364,27.1604938 66.4363636,26.291358 66.4363636,25.2049383 L66.4363636,24.5530864 C66.2181818,23.4666667 65.3454545,22.5975309 64.2545455,22.5975309 Z" id="Shape" stroke="#45413C" stroke-width="1.09090909" fill="#FFCEBF" fill-rule="nonzero" stroke-linecap="round" stroke-linejoin="round"></path>
                    <ellipse id="Oval" fill="#FFB59E" fill-rule="nonzero" cx="59.6727273" cy="27.1604938" rx="1.30909091" ry="1.3037037"></ellipse>
                    <ellipse id="Oval" fill="#FFB59E" fill-rule="nonzero" cx="46.5818182" cy="27.1604938" rx="1.30909091" ry="1.3037037"></ellipse>
                    <path d="M59.0181818,23.6839506 C58.6909091,23.0320988 58.0363636,22.5975309 57.3818182,22.5975309 C56.7272727,22.5975309 56.0727273,23.0320988 55.7454545,23.6839506" id="Shape" stroke="#45413C" stroke-width="1.09090909" stroke-linecap="round" stroke-linejoin="round"></path>
                    <path d="M50.5090909,23.6839506 C50.1818182,23.0320988 49.5272727,22.5975309 48.8727273,22.5975309 C48.1090909,22.5975309 47.5636364,23.0320988 47.2363636,23.6839506" id="Shape" stroke="#45413C" stroke-width="1.09090909" stroke-linecap="round" stroke-linejoin="round"></path>
                    <path d="M49.8545455,29.7679012 C51.8181818,31.5061728 54.4363636,31.5061728 56.4,29.7679012" id="Shape" stroke="#45413C" stroke-width="1.09090909" stroke-linecap="round" stroke-linejoin="round"></path>
                    <path d="M36.1090909,56.7111111 L36.1090909,61.708642 C36.1090909,68.5530864 41.6727273,74.2024691 48.6545455,74.2024691 L49.9636364,74.2024691 L49.9636364,68.7703704 C49.9636364,68.1185185 49.5272727,67.6839506 48.8727273,67.6839506 L48.6545455,67.6839506 C45.3818182,67.6839506 42.6545455,65.0765432 42.6545455,61.708642 L42.6545455,56.4938272" id="Shape" stroke="#45413C" stroke-width="1.09090909" fill="#00B8F0" fill-rule="nonzero" stroke-linecap="round" stroke-linejoin="round"></path>
                    <path d="M47.8909091,42.1530864 C47.8909091,42.1530864 49.8545455,46.7160494 49.8545455,53.2345679" id="Shape" stroke="#45413C" stroke-width="1.09090909" fill="#FFFFFF" fill-rule="nonzero" stroke-linecap="round" stroke-linejoin="round"></path>
                    <path d="M58.3636364,42.1530864 C58.3636364,42.1530864 56.4,46.7160494 56.4,53.2345679" id="Shape" stroke="#45413C" stroke-width="1.09090909" fill="#FFFFFF" fill-rule="nonzero" stroke-linecap="round" stroke-linejoin="round"></path>
                    <path d="M51.8181818,6.84444444 C43.9636364,6.84444444 40.6909091,12.6024691 40.6909091,17.9259259 L40.6909091,22.4888889 C43.9636364,22.4888889 43.9636364,18.5777778 43.9636364,18.5777778 C43.9636364,18.5777778 51.8181818,19.8814815 57.0545455,15.9703704 C57.0545455,15.9703704 60.3272727,22.4888889 65.5636364,22.4888889 L65.5636364,17.9259259 C65.5636364,11.2987654 64.1454545,8.8 57.7090909,8.8 C57.7090909,8.8 57.0545455,6.84444444 51.8181818,6.84444444 Z" id="Shape" fill="#FFDF3D" fill-rule="nonzero"></path>
                    <path d="M53.1272727,10.1037037 C58.4727273,10.1037037 63.0545455,13.4716049 65.5636364,18.5777778 L65.5636364,17.9259259 C65.5636364,11.2987654 64.1454545,8.8 57.7090909,8.8 C57.7090909,8.8 57.0545455,6.84444444 51.8181818,6.84444444 C43.9636364,6.84444444 40.6909091,12.6024691 40.6909091,17.9259259 L40.6909091,18.5777778 C43.2,13.5802469 47.7818182,10.1037037 53.1272727,10.1037037 Z" id="Shape" fill="#FFEF9E" fill-rule="nonzero"></path>
                    <path d="M51.8181818,6.84444444 C43.9636364,6.84444444 40.6909091,12.6024691 40.6909091,17.9259259 L40.6909091,22.4888889 C43.9636364,22.4888889 43.9636364,18.5777778 43.9636364,18.5777778 C43.9636364,18.5777778 51.8181818,19.8814815 57.0545455,15.9703704 C57.0545455,15.9703704 60.3272727,22.4888889 65.5636364,22.4888889 L65.5636364,17.9259259 C65.5636364,11.2987654 64.1454545,8.8 57.7090909,8.8 C57.7090909,8.8 57.0545455,6.84444444 51.8181818,6.84444444 Z" id="Shape" stroke="#45413C" stroke-width="1.09090909" stroke-linecap="round" stroke-linejoin="round"></path>
                    <g transform="translate(0.000000, 30.419753)">
                        <path d="M35.0181818,9.01728395 L16.1454545,12.8197531 C15.6,12.9283951 14.9454545,12.6024691 14.8363636,11.9506173 L13.7454545,6.40987654 C13.6363636,6.08395062 13.7454545,5.86666667 13.8545455,5.54074074 C13.9636364,5.32345679 14.2909091,5.10617284 14.5090909,5.10617284 L33.3818182,1.3037037 L35.0181818,9.01728395 Z" id="Shape" stroke="#45413C" stroke-width="1.09090909" fill="#E8F4FA" fill-rule="nonzero" stroke-linecap="round" stroke-linejoin="round"></path>
                        <polyline id="Shape" stroke="#45413C" stroke-width="1.09090909" stroke-linecap="round" stroke-linejoin="round" points="20.9454545 18.4691358 21.6 17.6 21.6 13.9061728"></polyline>
                        <path d="M19.3090909,22.9234568 L17.2363636,21.2938272 L19.2,18.6864198 C19.6363636,18.1432099 20.5090909,18.0345679 21.0545455,18.4691358 C21.6,18.9037037 21.7090909,19.7728395 21.2727273,20.3160494 L19.3090909,22.9234568 Z" id="Shape" stroke="#45413C" stroke-width="1.09090909" fill="#656769" fill-rule="nonzero" stroke-linecap="round" stroke-linejoin="round"></path>
                        <path d="M17.0181818,20.2074074 L1.30909091,13.6888889" id="Shape" stroke="#45413C" stroke-width="1.09090909" stroke-linecap="round" stroke-linejoin="round"></path>
                        <path d="M16.3636364,24.7703704 L0.654545455,18.2518519" id="Shape" stroke="#45413C" stroke-width="1.09090909" stroke-linecap="round" stroke-linejoin="round"></path>
                        <path d="M34.2545455,5.21481481 L33.4909091,1.3037037 L14.6181818,5.10617284 C14.2909091,5.21481481 14.0727273,5.32345679 13.9636364,5.54074074 C13.8545455,5.75802469 13.7454545,6.08395062 13.8545455,6.40987654 L14.4,9.2345679 L34.2545455,5.21481481 Z" id="Shape" fill="#FFFFFF" fill-rule="nonzero"></path>
                        <path d="M35.0181818,9.01728395 L16.1454545,12.8197531 C15.6,12.9283951 14.9454545,12.6024691 14.8363636,11.9506173 L13.7454545,6.40987654 C13.6363636,6.08395062 13.7454545,5.86666667 13.8545455,5.54074074 C13.9636364,5.32345679 14.2909091,5.10617284 14.5090909,5.10617284 L33.3818182,1.3037037 L35.0181818,9.01728395 Z" id="Shape" stroke="#45413C" stroke-width="1.09090909" stroke-linecap="round" stroke-linejoin="round"></path>
                        <path d="M35.0181818,9.01728395 L36.5454545,8.69135802 C37.0909091,8.58271605 37.5272727,8.03950617 37.4181818,7.38765432 L36.3272727,1.84691358 C36.2181818,1.3037037 35.6727273,0.869135802 35.0181818,0.977777778 L33.4909091,1.3037037 L35.0181818,9.01728395 Z" id="Shape" stroke="#45413C" stroke-width="1.09090909" fill="#656769" fill-rule="nonzero" stroke-linecap="round" stroke-linejoin="round"></path>
                        <path d="M31.9636364,7.0617284 L32.5090909,9.56049383" id="Shape" stroke="#45413C" stroke-width="1.09090909" stroke-linecap="round" stroke-linejoin="round"></path>
                        <path d="M30.8727273,1.84691358 L31.4181818,4.45432099" id="Shape" stroke="#45413C" stroke-width="1.09090909" stroke-linecap="round" stroke-linejoin="round"></path>
                        <path d="M29.3454545,7.4962963 L29.8909091,10.1037037" id="Shape" stroke="#45413C" stroke-width="1.09090909" stroke-linecap="round" stroke-linejoin="round"></path>
                        <path d="M28.3636364,2.39012346 L28.8,4.99753086" id="Shape" stroke="#45413C" stroke-width="1.09090909" stroke-linecap="round" stroke-linejoin="round"></path>
                        <path d="M21.9272727,13.6888889 L19.5272727,2.17283951 L23.0181818,0.651851852 C23.8909091,0.325925926 24.7636364,0.977777778 24.5454545,1.84691358 L23.2363636,7.38765432 L26.6181818,12.0592593 C27.1636364,12.8197531 26.6181818,13.7975309 25.7454545,13.7975309 L21.9272727,13.6888889 Z" id="Shape" stroke="#45413C" stroke-width="1.09090909" stroke-linecap="round" stroke-linejoin="round"></path>
                        <path d="M19.5272727,2.17283951 L15.1636364,1.7382716 C14.1818182,1.62962963 13.6363636,2.71604938 14.1818182,3.47654321 L18.1090909,8.3654321 L16.3636364,14.0148148 C16.1454545,14.8839506 17.0181818,15.6444444 17.7818182,15.3185185 L21.8181818,13.5802469" id="Shape" stroke="#45413C" stroke-width="1.09090909" stroke-linecap="round" stroke-linejoin="round"></path>
                        <path d="M13.7454545,6.73580247 L13.4181818,6.84444444 C11.7818182,7.17037037 10.8,8.69135802 11.1272727,10.3209877 C11.4545455,11.9506173 12.9818182,12.9283951 14.6181818,12.6024691 L14.9454545,12.4938272 L13.7454545,6.73580247 Z" id="Shape" stroke="#45413C" stroke-width="1.09090909" fill="#8CA4B8" fill-rule="nonzero" stroke-linecap="round" stroke-linejoin="round"></path>
                        <path d="M18.2181818,8.47407407 L23.3454545,7.38765432" id="Shape" stroke="#45413C" stroke-width="1.09090909" stroke-linecap="round" stroke-linejoin="round"></path>
                        <ellipse id="Oval" stroke="#45413C" stroke-width="1.09090909" fill="#656769" fill-rule="nonzero" stroke-linecap="round" stroke-linejoin="round" cx="17.0181818" cy="22.8148148" rx="3.27272727" ry="3.25925926"></ellipse>
                        <ellipse id="Oval" stroke="#45413C" stroke-width="1.09090909" fill="#ADC4D9" fill-rule="nonzero" stroke-linecap="round" stroke-linejoin="round" cx="17.0181818" cy="22.8148148" rx="1.30909091" ry="1.3037037"></ellipse>
                    </g>
                    <path d="M49.5272727,26.508642 L45.9272727,26.508642 C44.5090909,26.508642 43.3090909,25.3135802 43.3090909,23.9012346 L43.3090909,21.7283951 C43.3090909,21.0765432 43.7454545,20.6419753 44.4,20.6419753 L51.0545455,20.6419753 C51.8181818,20.6419753 52.4727273,21.2938272 52.3636364,22.054321 L52.1454545,24.1185185 C51.9272727,25.4222222 50.8363636,26.508642 49.5272727,26.508642 Z" id="Shape" stroke="#45413C" stroke-width="1.09090909" stroke-linecap="round" stroke-linejoin="round"></path>
                    <path d="M56.8363636,26.508642 L60.4363636,26.508642 C61.8545455,26.508642 63.0545455,25.3135802 63.0545455,23.9012346 L63.0545455,21.7283951 C63.0545455,21.0765432 62.6181818,20.6419753 61.9636364,20.6419753 L55.3090909,20.6419753 C54.5454545,20.6419753 53.8909091,21.2938272 54,22.054321 L54.2181818,24.1185185 C54.3272727,25.4222222 55.4181818,26.508642 56.8363636,26.508642 Z" id="Shape" stroke="#45413C" stroke-width="1.09090909" stroke-linecap="round" stroke-linejoin="round"></path>
                    <path d="M52.2545455,22.5975309 L54,22.5975309" id="Shape" stroke="#45413C" stroke-width="1.09090909" stroke-linecap="round" stroke-linejoin="round"></path>
                    <path d="M29.8909091,69.2049383 C29.8909091,69.8567901 29.4545455,70.291358 28.8,70.291358 L4.69090909,70.291358 C4.03636364,70.291358 3.6,69.8567901 3.6,69.2049383 L3.6,68.7703704 C3.6,68.1185185 4.03636364,67.6839506 4.69090909,67.6839506 L28.8,67.6839506 C29.4545455,67.6839506 29.8909091,68.1185185 29.8909091,68.7703704 L29.8909091,69.2049383 Z" id="Shape" stroke="#45413C" stroke-width="1.09090909" fill="#FFFFFF" fill-rule="nonzero" stroke-linecap="round" stroke-linejoin="round"></path>
                    <path d="M31.2,66.5975309 C31.2,67.2493827 30.7636364,67.6839506 30.1090909,67.6839506 L6,67.6839506 C5.34545455,67.6839506 4.90909091,67.2493827 4.90909091,66.5975309 L4.90909091,66.162963 C4.90909091,65.5111111 5.34545455,65.0765432 6,65.0765432 L30.1090909,65.0765432 C30.7636364,65.0765432 31.2,65.5111111 31.2,66.162963 L31.2,66.5975309 Z" id="Shape" stroke="#45413C" stroke-width="1.09090909" fill="#FFFFFF" fill-rule="nonzero" stroke-linecap="round" stroke-linejoin="round"></path>
                    <path d="M29.8909091,63.9901235 C29.8909091,64.6419753 29.4545455,65.0765432 28.8,65.0765432 L4.69090909,65.0765432 C4.03636364,65.0765432 3.6,64.6419753 3.6,63.9901235 L3.6,63.5555556 C3.6,62.9037037 4.03636364,62.4691358 4.69090909,62.4691358 L28.8,62.4691358 C29.4545455,62.4691358 29.8909091,62.9037037 29.8909091,63.5555556 L29.8909091,63.9901235 Z" id="Shape" stroke="#45413C" stroke-width="1.09090909" fill="#FFFFFF" fill-rule="nonzero" stroke-linecap="round" stroke-linejoin="round"></path>
                    <path d="M31.2,61.382716 C31.2,62.0345679 30.7636364,62.4691358 30.1090909,62.4691358 L6,62.4691358 C5.34545455,62.4691358 4.90909091,62.0345679 4.90909091,61.382716 L4.90909091,60.9481481 C4.90909091,60.2962963 5.34545455,59.8617284 6,59.8617284 L30.1090909,59.8617284 C30.7636364,59.8617284 31.2,60.2962963 31.2,60.9481481 L31.2,61.382716 Z" id="Shape" stroke="#45413C" stroke-width="1.09090909" fill="#FFFFFF" fill-rule="nonzero" stroke-linecap="round" stroke-linejoin="round"></path>
                    <g transform="translate(43.636364, 49.975309)" id="Shape">
                        <path d="M15.1636364,20.9679012 L12.5454545,20.9679012 L18.7636364,1.62962963 C18.9818182,1.08641975 19.4181818,0.760493827 19.9636364,0.760493827 L21.6,0.760493827" stroke="#45413C" stroke-width="1.09090909" fill="#E8F4FA" fill-rule="nonzero" stroke-linejoin="round"></path>
                        <path d="M40.8,20.9679012 L15.1636364,20.9679012 L21.7090909,0.651851852 L45.4909091,0.651851852 C45.9272727,0.651851852 46.2545455,0.869135802 46.5818182,1.19506173 C46.8,1.52098765 46.9090909,1.95555556 46.8,2.39012346 L40.8,20.9679012 Z" stroke="#45413C" stroke-width="1.09090909" fill="#ADC4D9" fill-rule="nonzero" stroke-linejoin="round"></path>
                        <polygon fill="#C0DCEB" fill-rule="nonzero" points="39.0545455 0.651851852 21.7090909 0.651851852 15.1636364 20.9679012 18.6545455 20.9679012"></polygon>
                        <path d="M40.8,20.9679012 L13.8545455,20.9679012 L13.8545455,24.2271605 L38.1818182,24.2271605 C39.6,24.2271605 40.8,23.0320988 40.8,21.6197531 L40.8,20.9679012 Z" stroke="#45413C" stroke-width="1.09090909" fill="#C0DCEB" fill-rule="nonzero" stroke-linejoin="round"></path>
                        <path d="M13.8545455,20.9679012 L1.41818182,20.9679012 C1.09090909,20.9679012 0.763636364,21.2938272 0.763636364,21.6197531 C0.763636364,23.0320988 1.96363636,24.2271605 3.38181818,24.2271605 L13.8545455,24.2271605 L13.8545455,20.9679012 Z" stroke="#45413C" stroke-width="1.09090909" fill="#E8F4FA" fill-rule="nonzero" stroke-linejoin="round"></path>
                        <g transform="translate(28.363636, 5.432099)" stroke="#45413C" stroke-linejoin="round" stroke-width="1.09090909">
                            <path d="M5.01818182,4.67160494 C5.01818182,3.91111111 5.67272727,3.47654321 5.67272727,3.47654321 C5.34545455,2.93333333 4.69090909,2.82469136 4.47272727,2.82469136 C3.92727273,2.82469136 3.49090909,3.15061728 3.27272727,3.15061728 C3.05454545,3.15061728 2.61818182,2.82469136 2.18181818,2.82469136 C1.63636364,2.82469136 1.09090909,3.15061728 0.872727273,3.58518519 C0.327272727,4.56296296 0.763636364,5.97530864 1.30909091,6.84444444 C1.52727273,7.27901235 1.85454545,7.71358025 2.29090909,7.60493827 C2.72727273,7.60493827 2.83636364,7.38765432 3.38181818,7.38765432 C3.92727273,7.38765432 4.03636364,7.60493827 4.47272727,7.60493827 C4.90909091,7.60493827 5.23636364,7.17037037 5.45454545,6.84444444 C5.78181818,6.40987654 5.89090909,5.97530864 5.89090909,5.97530864 C5.78181818,5.97530864 5.01818182,5.64938272 5.01818182,4.67160494 Z" fill="#FFFFFF" fill-rule="nonzero"></path>
                            <path d="M3.81818182,1.08641975 L4.47272727,0.543209877" stroke-linecap="round"></path>
                        </g>
                        <path d="M40.8,20.9679012 L15.1636364,20.9679012 L21.7090909,0.651851852 L45.4909091,0.651851852 C45.9272727,0.651851852 46.2545455,0.869135802 46.5818182,1.19506173 C46.8,1.52098765 46.9090909,1.95555556 46.8,2.39012346 L40.8,20.9679012 Z" stroke="#45413C" stroke-width="1.09090909" stroke-linejoin="round"></path>
                    </g>
                    <g transform="translate(33.818182, 0.000000)" id="Shape">
                        <path d="M33.9272727,18.6864198 L31.7454545,18.6864198 L31.7454545,16.2962963 C31.7454545,9.45185185 26.1818182,3.91111111 19.3090909,3.91111111 C12.4363636,3.91111111 6.87272727,9.45185185 6.87272727,16.2962963 L6.87272727,18.6864198 L4.69090909,18.6864198 L4.69090909,16.2962963 C4.69090909,8.25679012 11.2363636,1.7382716 19.3090909,1.7382716 C27.3818182,1.7382716 33.9272727,8.25679012 33.9272727,16.2962963 L33.9272727,18.6864198 Z" stroke="#45413C" stroke-width="1.09090909" fill="#ADC4D9" fill-rule="nonzero" stroke-linecap="round" stroke-linejoin="round"></path>
                        <path d="M12.7636364,6.08395062 C12.1090909,6.08395062 11.4545455,5.75802469 11.1272727,5.10617284 C10.5818182,4.23703704 10.8,2.93333333 11.7818182,2.39012346 C16.3636364,-0.434567901 22.4727273,-0.434567901 26.9454545,2.39012346 C27.8181818,2.93333333 28.1454545,4.12839506 27.6,5.10617284 C27.0545455,5.97530864 25.8545455,6.30123457 24.8727273,5.75802469 C21.6,3.69382716 17.1272727,3.69382716 13.8545455,5.75802469 C13.4181818,5.97530864 13.0909091,6.08395062 12.7636364,6.08395062 Z" fill="#656769" fill-rule="nonzero"></path>
                        <path d="M11.6727273,4.23703704 C16.2545455,1.41234568 22.3636364,1.41234568 26.8363636,4.23703704 C27.1636364,4.45432099 27.3818182,4.67160494 27.6,4.99753086 C28.0363636,4.12839506 27.8181818,2.93333333 26.8363636,2.39012346 C22.2545455,-0.434567901 16.1454545,-0.434567901 11.6727273,2.39012346 C10.8,2.93333333 10.4727273,4.01975309 10.9090909,4.99753086 C11.1272727,4.67160494 11.4545455,4.45432099 11.6727273,4.23703704 Z" fill="#87898C" fill-rule="nonzero"></path>
                        <path d="M12.7636364,6.08395062 C12.1090909,6.08395062 11.4545455,5.75802469 11.1272727,5.10617284 C10.5818182,4.23703704 10.8,2.93333333 11.7818182,2.39012346 C16.3636364,-0.434567901 22.4727273,-0.434567901 26.9454545,2.39012346 C27.8181818,2.93333333 28.1454545,4.12839506 27.6,5.10617284 C27.0545455,5.97530864 25.8545455,6.30123457 24.8727273,5.75802469 C21.6,3.69382716 17.1272727,3.69382716 13.8545455,5.75802469 C13.4181818,5.97530864 13.0909091,6.08395062 12.7636364,6.08395062 Z" stroke="#45413C" stroke-width="1.09090909"></path>
                        <path d="M7.09090909,29.7679012 L4.25454545,29.7679012 L4.25454545,18.6864198 L7.09090909,18.6864198 C7.74545455,18.6864198 8.18181818,19.1209877 8.18181818,19.7728395 L8.18181818,28.6814815 C8.18181818,29.2246914 7.63636364,29.7679012 7.09090909,29.7679012 Z" fill="#656769" fill-rule="nonzero"></path>
                        <path d="M4.25454545,18.6864198 C2.83636364,18.6864198 0.218181818,20.6419753 0.218181818,24.2271605 C0.218181818,27.8123457 2.72727273,29.7679012 4.25454545,29.7679012 L4.25454545,18.6864198 Z" fill="#8CA4B8" fill-rule="nonzero"></path>
                        <path d="M7.09090909,18.6864198 L4.25454545,18.6864198 L4.25454545,20.7506173 L7.09090909,20.7506173 C7.74545455,20.7506173 8.18181818,21.1851852 8.18181818,21.837037 L8.18181818,19.7728395 C8.18181818,19.1209877 7.63636364,18.6864198 7.09090909,18.6864198 Z" fill="#87898C" fill-rule="nonzero"></path>
                        <path d="M0.218181818,24.2271605 C0.218181818,24.5530864 0.218181818,24.8790123 0.327272727,25.2049383 C0.763636364,22.2716049 2.94545455,20.6419753 4.25454545,20.6419753 L4.25454545,18.5777778 C2.72727273,18.6864198 0.218181818,20.6419753 0.218181818,24.2271605 Z" fill="#ADC4D9" fill-rule="nonzero"></path>
                        <g transform="translate(0.000000, 18.469136)" stroke="#45413C" stroke-linecap="round" stroke-linejoin="round" stroke-width="1.09090909">
                            <path d="M7.09090909,11.2987654 L4.25454545,11.2987654 L4.25454545,0.217283951 L7.09090909,0.217283951 C7.74545455,0.217283951 8.18181818,0.651851852 8.18181818,1.3037037 L8.18181818,10.2123457 C8.18181818,10.7555556 7.63636364,11.2987654 7.09090909,11.2987654 Z"></path>
                            <path d="M4.25454545,0.217283951 C2.83636364,0.217283951 0.218181818,2.17283951 0.218181818,5.75802469 C0.218181818,9.34320988 2.72727273,11.2987654 4.25454545,11.2987654 L4.25454545,0.217283951 Z"></path>
                        </g>
                        <path d="M31.5272727,29.7679012 L34.3636364,29.7679012 L34.3636364,18.6864198 L31.5272727,18.6864198 C30.8727273,18.6864198 30.4363636,19.1209877 30.4363636,19.7728395 L30.4363636,28.6814815 C30.4363636,29.2246914 30.9818182,29.7679012 31.5272727,29.7679012 Z" fill="#656769" fill-rule="nonzero"></path>
                        <path d="M34.3636364,18.6864198 C35.7818182,18.6864198 38.4,20.6419753 38.4,24.2271605 C38.4,27.8123457 35.8909091,29.7679012 34.3636364,29.7679012 L34.3636364,18.6864198 Z" fill="#8CA4B8" fill-rule="nonzero"></path>
                        <path d="M31.5272727,18.6864198 L34.3636364,18.6864198 L34.3636364,20.7506173 L31.5272727,20.7506173 C30.8727273,20.7506173 30.4363636,21.1851852 30.4363636,21.837037 L30.4363636,19.7728395 C30.4363636,19.1209877 30.9818182,18.6864198 31.5272727,18.6864198 Z" fill="#87898C" fill-rule="nonzero"></path>
                        <path d="M38.4,24.2271605 C38.4,24.5530864 38.4,24.8790123 38.2909091,25.2049383 C37.8545455,22.2716049 35.6727273,20.6419753 34.3636364,20.6419753 L34.3636364,18.5777778 C35.8909091,18.6864198 38.4,20.6419753 38.4,24.2271605 Z" fill="#ADC4D9" fill-rule="nonzero"></path>
                        <g transform="translate(29.454545, 18.469136)" stroke="#45413C" stroke-linecap="round" stroke-linejoin="round" stroke-width="1.09090909">
                            <path d="M2.07272727,11.2987654 L4.90909091,11.2987654 L4.90909091,0.217283951 L2.07272727,0.217283951 C1.41818182,0.217283951 0.981818182,0.651851852 0.981818182,1.3037037 L0.981818182,10.2123457 C0.981818182,10.7555556 1.52727273,11.2987654 2.07272727,11.2987654 Z"></path>
                            <path d="M4.90909091,0.217283951 C6.32727273,0.217283951 8.94545455,2.17283951 8.94545455,5.75802469 C8.94545455,9.34320988 6.43636364,11.2987654 4.90909091,11.2987654 L4.90909091,0.217283951 Z"></path>
                        </g>
                    </g>
                </g>
            </g>
        </g>
    </g>
</svg>