<?xml version="1.0" encoding="UTF-8" standalone="no"?>
<svg width="33px" height="20px" viewBox="0 0 33 20" version="1.1" xmlns="http://www.w3.org/2000/svg" xmlns:xlink="http://www.w3.org/1999/xlink">
    <!-- Generator: Sketch 41.2 (35397) - http://www.bohemiancoding.com/sketch -->
    <title>6</title>
    <desc>Created with Sketch.</desc>
    <defs></defs>
    <g id="Page-1" stroke="none" stroke-width="1" fill="none" fill-rule="evenodd">
        <path d="M4.129,1.428 L16.429,13.729 L28.892,1.266 L28.892,1.267 C29.314,0.86 29.889,0.608 30.522,0.608 C31.819,0.608 32.87,1.66 32.87,2.957 C32.87,3.59 32.619,4.164 32.212,4.586 L32.213,4.587 L18.126,18.674 L18.125,18.673 C17.697,19.116 17.098,19.392 16.435,19.392 L16.429,19.392 L16.424,19.392 C15.761,19.392 15.162,19.116 14.735,18.673 L14.734,18.674 L0.647,4.587 L0.653,4.581 C0.25,4.159 0,3.588 0,2.957 C0,1.66 1.051,0.608 2.348,0.608 C3.06,0.608 3.698,0.927 4.129,1.428" id="6" fill="#cb4f10"></path>
    </g>
</svg>