<svg xmlns="http://www.w3.org/2000/svg" width="24" height="24" viewBox="0 0 24 24">
    <path fill="#F3313C" fill-rule="evenodd" d="M12.976 13.866c0 .78-.336 1.435-.976 1.435-.64 0-.976-.624-.976-1.435v-4.43C11.024 8.655 11.36 8 12 8c.64 0 .976.655.976 1.436v4.43zM12 18.953c-.64 0-1.19-.563-1.19-1.218s.52-1.217 1.19-1.217c.672 0 1.19.562 1.19 1.217 0 .686-.55 1.218-1.19 1.218zm10.735.063L13.691 2.998A1.93 1.93 0 0 0 10.309 3L1.265 19.015C.513 20.346 1.452 22 2.955 22h18.09c1.503 0 2.442-1.653 1.69-2.984z"/>
</svg>
