<svg xmlns="http://www.w3.org/2000/svg" width="24" height="24" viewBox="0 0 24 24">
    <path fill="#062e79" fill-rule="evenodd" d="M12 20a8 8 0 1 1 0-16 8 8 0 0 1 0 16zm-.807-7.41v.47h1.6v-.31c0-.12.028-.242.085-.362.057-.121.167-.246.33-.374.257-.199.468-.382.636-.55.167-.166.302-.332.405-.495.103-.164.176-.329.219-.496.042-.167.064-.354.064-.56 0-.341-.064-.644-.192-.907a1.912 1.912 0 0 0-.523-.661 2.266 2.266 0 0 0-.763-.4 3.112 3.112 0 0 0-.922-.133c-.747 0-1.359.197-1.835.592-.477.394-.754.968-.832 1.722l1.643.107c.02-.263.119-.487.293-.672.174-.185.428-.277.763-.277a.79.79 0 0 1 .549.197c.146.131.219.315.219.55 0 .12-.034.236-.102.346-.067.11-.162.227-.282.352-.121.124-.265.258-.432.4-.168.142-.35.31-.55.501a1.129 1.129 0 0 0-.288.416c-.057.15-.085.33-.085.544zm-.181 2.048a.999.999 0 0 1 .282-.698.999.999 0 0 1 .699-.283.999.999 0 0 1 .699.283.999.999 0 0 1 .283.699.999.999 0 0 1-.283.698.999.999 0 0 1-.699.283.999.999 0 0 1-.699-.283.999.999 0 0 1-.283-.699z"/>
</svg>
