<svg xmlns="http://www.w3.org/2000/svg" width="24" height="24" viewBox="0 0 24 24">
    <path fill="#0081cb" fill-rule="evenodd" d="M16.611 17.109c0-.443.368-.801.801-.801h2.09c.443 0 .801.367.801.8v2.09a.807.807 0 0 1-.8.802h-2.09a.807.807 0 0 1-.802-.801v-2.09zm-6.154 0c0-.443.368-.801.801-.801h2.09c.443 0 .802.367.802.8v2.09a.807.807 0 0 1-.802.802h-2.09a.807.807 0 0 1-.8-.801v-2.09zm-6.154 0c0-.443.368-.801.802-.801h2.09c.442 0 .8.367.8.8v2.09a.807.807 0 0 1-.8.802h-2.09a.807.807 0 0 1-.802-.801v-2.09zm12.308-6.154c0-.442.368-.801.801-.801h2.09c.443 0 .801.367.801.801v2.09a.807.807 0 0 1-.8.801h-2.09a.807.807 0 0 1-.802-.801v-2.09zm-6.154 0c0-.442.368-.801.801-.801h2.09c.443 0 .802.367.802.801v2.09a.807.807 0 0 1-.802.801h-2.09a.807.807 0 0 1-.8-.801v-2.09zm-6.154 0c0-.442.368-.801.802-.801h2.09c.442 0 .8.367.8.801v2.09a.807.807 0 0 1-.8.801h-2.09a.807.807 0 0 1-.802-.801v-2.09zm12.308-6.154c0-.442.368-.801.801-.801h2.09c.443 0 .801.368.801.801v2.09a.807.807 0 0 1-.8.801h-2.09a.807.807 0 0 1-.802-.8v-2.09zm-6.154 0c0-.442.368-.801.801-.801h2.09c.443 0 .802.368.802.801v2.09a.807.807 0 0 1-.802.801h-2.09a.807.807 0 0 1-.8-.8v-2.09zm-6.154 0c0-.442.368-.801.802-.801h2.09c.442 0 .8.368.8.801v2.09a.807.807 0 0 1-.8.801h-2.09a.807.807 0 0 1-.802-.8v-2.09z"/>
</svg>
