<?xml version="1.0" encoding="UTF-8" standalone="no"?>
<svg width="23px" height="23px" viewBox="0 0 23 23" version="1.1" xmlns="http://www.w3.org/2000/svg" xmlns:xlink="http://www.w3.org/1999/xlink" xmlns:sketch="http://www.bohemiancoding.com/sketch/ns">
    <!-- Generator: sketchtool 3.5.1 (25234) - http://www.bohemiancoding.com/sketch -->
    <title>Info Circle Icon</title>
    <desc>Created with sketchtool.</desc>
    <defs></defs>
    <g id="Components" stroke="none" stroke-width="1" fill="none" fill-rule="evenodd" sketch:type="MSPage">
        <g id="tc-gen-cmpt-components" sketch:type="MSArtboardGroup" transform="translate(-674.000000, -794.000000)" fill="#0082D5">
            <g id="Notifications" sketch:type="MSLayerGroup" transform="translate(97.000000, 640.000000)">
                <g id="Info" transform="translate(561.000000, 138.000000)" sketch:type="MSShapeGroup">
                    <path d="M27.5,16 C21.149,16 16,21.149 16,27.5 C16,33.851 21.149,39 27.5,39 C33.851,39 39,33.851 39,27.5 C39,21.149 33.851,16 27.5,16 L27.5,16 Z M29,32.5 C29,33.328 28.328,34 27.5,34 C26.672,34 26,33.328 26,32.5 L26,26.5 C26,25.671 26.672,25 27.5,25 C28.328,25 29,25.671 29,26.5 L29,32.5 L29,32.5 Z M27.5,24 C26.672,24 26,23.328 26,22.5 C26,21.671 26.672,21 27.5,21 C28.328,21 29,21.671 29,22.5 C29,23.328 28.328,24 27.5,24 L27.5,24 Z" id="Info-Circle-Icon"></path>
                </g>
            </g>
        </g>
    </g>
</svg>