<?xml version="1.0" encoding="UTF-8" standalone="no"?>
<svg width="23px" height="23px" viewBox="0 0 23 23" version="1.1" xmlns="http://www.w3.org/2000/svg" xmlns:xlink="http://www.w3.org/1999/xlink" xmlns:sketch="http://www.bohemiancoding.com/sketch/ns">
    <!-- Generator: sketchtool 3.5.1 (25234) - http://www.bohemiancoding.com/sketch -->
    <title>Warning Circle Icon</title>
    <desc>Created with sketchtool.</desc>
    <defs></defs>
    <g id="Components" stroke="none" stroke-width="1" fill="none" fill-rule="evenodd" sketch:type="MSPage">
        <g id="tc-gen-cmpt-components" sketch:type="MSArtboardGroup" transform="translate(-114.000000, -794.000000)" fill="#FF9948">
            <g id="Notifications" sketch:type="MSLayerGroup" transform="translate(97.000000, 640.000000)">
                <g id="Warning" transform="translate(1.000000, 138.000000)" sketch:type="MSShapeGroup">
                    <path d="M27.5,39 C21.149,39 16,33.851 16,27.5 C16,21.149 21.149,16 27.5,16 C33.851,16 39,21.149 39,27.5 C39,33.851 33.851,39 27.5,39 L27.5,39 Z M29,22.5 C29,21.672 28.328,21 27.5,21 C26.672,21 26,21.672 26,22.5 L26,28.5 C26,29.328 26.672,30 27.5,30 C28.328,30 29,29.328 29,28.5 L29,22.5 L29,22.5 Z M27.5,31 C26.672,31 26,31.672 26,32.5 C26,33.328 26.672,34 27.5,34 C28.328,34 29,33.328 29,32.5 C29,31.672 28.328,31 27.5,31 L27.5,31 Z" id="Warning-Circle-Icon"></path>
                </g>
            </g>
        </g>
    </g>
</svg>