<?xml version="1.0" encoding="UTF-8" standalone="no"?>
<svg width="23px" height="23px" viewBox="0 0 23 23" version="1.1" xmlns="http://www.w3.org/2000/svg" xmlns:xlink="http://www.w3.org/1999/xlink" xmlns:sketch="http://www.bohemiancoding.com/sketch/ns">
    <!-- Generator: sketchtool 3.5.1 (25234) - http://www.bohemiancoding.com/sketch -->
    <title>Close Circle Icon</title>
    <desc>Created with sketchtool.</desc>
    <defs></defs>
    <g id="Components" stroke="none" stroke-width="1" fill="none" fill-rule="evenodd" sketch:type="MSPage">
        <g id="tc-gen-cmpt-components" sketch:type="MSArtboardGroup" transform="translate(-674.000000, -719.000000)" fill="#D0011B">
            <g id="Notifications" sketch:type="MSLayerGroup" transform="translate(97.000000, 640.000000)">
                <g id="Error" transform="translate(561.000000, 63.000000)" sketch:type="MSShapeGroup">
                    <path d="M27.5,39.001 C21.149,39.001 16,33.852 16,27.501 C16,21.15 21.149,16 27.5,16 C33.851,16 39,21.15 39,27.501 C39,33.852 33.851,39.001 27.5,39.001 L27.5,39.001 Z M31.57,23.413 C31.012,22.856 30.108,22.856 29.55,23.413 L27.491,25.472 L25.432,23.413 C24.874,22.856 23.97,22.856 23.412,23.413 C22.854,23.971 22.854,24.875 23.412,25.432 L25.471,27.492 L23.412,29.551 C22.854,30.108 22.854,31.013 23.412,31.571 C23.97,32.129 24.874,32.129 25.432,31.571 L27.491,29.512 L29.55,31.571 C30.108,32.129 31.012,32.129 31.569,31.571 C32.127,31.013 32.127,30.108 31.569,29.551 L29.51,27.492 L31.569,25.432 C32.127,24.875 32.127,23.971 31.57,23.413 L31.57,23.413 Z" id="Close-Circle-Icon"></path>
                </g>
            </g>
        </g>
    </g>
</svg>