<?xml version="1.0" encoding="UTF-8" standalone="no"?>
<svg width="23px" height="23px" viewBox="0 0 23 23" version="1.1" xmlns="http://www.w3.org/2000/svg" xmlns:xlink="http://www.w3.org/1999/xlink" xmlns:sketch="http://www.bohemiancoding.com/sketch/ns">
    <!-- Generator: sketchtool 3.5.1 (25234) - http://www.bohemiancoding.com/sketch -->
    <title>Checked Circle Icon</title>
    <desc>Created with sketchtool.</desc>
    <defs></defs>
    <g id="Components" stroke="none" stroke-width="1" fill="none" fill-rule="evenodd" sketch:type="MSPage">
        <g id="tc-gen-cmpt-components" sketch:type="MSArtboardGroup" transform="translate(-114.000000, -719.000000)" fill="#04BE5B">
            <g id="Notifications" sketch:type="MSLayerGroup" transform="translate(97.000000, 640.000000)">
                <g id="Success" transform="translate(1.000000, 63.000000)" sketch:type="MSShapeGroup">
                    <path d="M27.5,39 C21.149,39 16,33.851 16,27.5 C16,21.149 21.149,16 27.5,16 C33.851,16 39,21.149 39,27.5 C39,33.851 33.851,39 27.5,39 L27.5,39 Z M33.557,23.414 C32.968,22.849 32.014,22.849 31.425,23.414 L26.064,28.505 L24.533,27.08 C23.944,26.516 22.99,26.516 22.401,27.08 C21.812,27.646 21.812,28.561 22.401,29.126 L24.998,31.573 C25.587,32.138 26.541,32.138 27.13,31.573 L33.557,25.46 C34.145,24.895 34.145,23.979 33.557,23.414 L33.557,23.414 Z" id="Checked-Circle-Icon"></path>
                </g>
            </g>
        </g>
    </g>
</svg>