<?xml version="1.0" encoding="UTF-8"?>
<svg width="32px" height="32px" viewBox="0 0 32 32" version="1.1" xmlns="http://www.w3.org/2000/svg" xmlns:xlink="http://www.w3.org/1999/xlink">
    <!-- Generator: sketchtool 51.1 (57501) - http://www.bohemiancoding.com/sketch -->
    <title>275E7EE5-8181-4A2D-9582-EAE0D50A6D38</title>
    <desc>Created with sketchtool.</desc>
    <defs>
        <circle id="path-1" cx="16" cy="16" r="15"></circle>
    </defs>
    <g id="icons" stroke="none" stroke-width="1" fill="none" fill-rule="evenodd">
        <g id="graphDB-ontology-icons-images" transform="translate(-790.000000, -503.000000)">
            <g id="bot/1-with-border" transform="translate(790.000000, 503.000000)">
                <mask id="mask-2" fill="white">
                    <use xlink:href="#path-1"></use>
                </mask>
                <circle stroke="#DEDEDE" stroke-width="1" cx="16" cy="16" r="15.5"></circle>
                <g id="Group" stroke-width="1" fill-rule="evenodd" mask="url(#mask-2)">
                    <g transform="translate(4.000000, 3.000000)">
                        <path d="M11.5,4 L11.5,2.91464715 C10.9174038,2.70872894 10.5,2.15310941 10.5,1.5 C10.5,0.671572875 11.1715729,0 12,0 C12.8284271,0 13.5,0.671572875 13.5,1.5 C13.5,2.15310941 13.0825962,2.70872894 12.5,2.91464715 L12.5,4 L13,4 C17.418278,4 21,7.581722 21,12 L21,18 C21,19.1045695 20.1045695,20 19,20 L5,20 C3.8954305,20 3,19.1045695 3,18 L3,12 C3,7.581722 6.581722,4 11,4 L11.5,4 Z M2,17 C0.8954305,17 0,15.6568542 0,14 C0,12.3431458 0.8954305,11 2,11 C2,12.3431458 2,12.5 2,14 C2,15.5 2,16.1428571 2,17 Z M22,17 C22,16.1428571 22,15.5 22,14 C22,12.5 22,12.3431458 22,11 C23.1045695,11 24,12.3431458 24,14 C24,15.6568542 23.1045695,17 22,17 Z M10,21 L14,21 C14.5522847,21 15,21.4477153 15,22 C15,22.5522847 14.5522847,23 14,23 L10,23 C9.44771525,23 9,22.5522847 9,22 C9,21.4477153 9.44771525,21 10,21 Z M6,24 L18,24 C19.6568542,24 21,25.3431458 21,27 C21,28.6568542 19.6568542,30 18,30 L6,30 C4.34314575,30 3,28.6568542 3,27 C3,25.3431458 4.34314575,24 6,24 Z" id="Rectangle-4" fill="#679AC3"></path>
                        <path d="M13,17 C13,16.1428571 13,15.5 13,14 C13,12.5 13,12.3431458 13,11 C14.1045695,11 15,12.3431458 15,14 C15,15.6568542 14.1045695,17 13,17 Z M10,11 C9.44771525,11 9,10.5522847 9,10 C9,9.44771525 9.44771525,9 10,9 C10.5522847,9 11,9.44771525 11,10 C11,10.5522847 10.5522847,11 10,11 Z M10,19 C9.44771525,19 9,18.5522847 9,18 C9,17.4477153 9.44771525,17 10,17 C10.5522847,17 11,17.4477153 11,18 C11,18.5522847 10.5522847,19 10,19 Z" id="Oval-2-Copy-2" fill="#FFFFFF" transform="translate(12.000000, 14.000000) scale(-1, 1) rotate(90.000000) translate(-12.000000, -14.000000) "></path>
                    </g>
                </g>
            </g>
        </g>
    </g>
</svg>