<?xml version="1.0" encoding="UTF-8"?>
<svg width="24px" height="24px" viewBox="0 0 24 24" version="1.1" xmlns="http://www.w3.org/2000/svg" xmlns:xlink="http://www.w3.org/1999/xlink">
    <!-- Generator: sketchtool 49.3 (51167) - http://www.bohemiancoding.com/sketch -->
    <title>8FB2EA6B-49C2-44F1-BA4A-C0D3AFD260D5</title>
    <desc>Created with sketchtool.</desc>
    <defs>
        <path d="M10,13.3337351 C9.66012127,13.3337351 9.35361851,13.1746414 9.14279357,12.9203327 L9.1422373,12.9203327 L5.68114813,8.75376642 C5.49702398,8.53139689 5.38465817,8.23851995 5.38465817,7.91731951 C5.38465817,7.22610582 5.9014296,6.66747017 6.53891083,6.66747017 C6.87878956,6.66747017 7.18473605,6.82716645 7.39667353,7.0808726 L8.84630361,8.82608172 L8.84630361,1.24984934 C8.84630361,0.559840906 9.36307504,0 10,0 C10.6374812,0 11.1536964,0.559840906 11.1536964,1.24984934 L11.1536964,8.82608172 L12.6038827,7.0808726 L12.604439,7.0808726 C12.8152639,6.82716645 13.1217667,6.66747017 13.4622017,6.66747017 C14.0985704,6.66747017 14.6158981,7.22610582 14.6158981,7.91731951 C14.6158981,8.23851995 14.502976,8.53139689 14.3194081,8.75376642 L10.8577627,12.9203327 C10.6463815,13.1746414 10.340435,13.3337351 10,13.3337351 Z M2.30794905,12.5003013 L2.30794905,17.5003013 L17.6926072,17.5003013 L17.6926072,12.5003013 C17.6926072,11.8096902 18.2099349,11.250452 18.8463036,11.250452 C19.4843411,11.250452 20,11.8096902 20,12.5003013 L20,18.7501507 C20,19.4407617 19.4843411,20 18.8463036,20 L1.15369639,20 C0.51677143,20 0,19.4407617 0,18.7501507 L4.4408921e-16,12.5003013 C4.4408921e-16,11.8096902 0.51677143,11.250452 1.15369639,11.250452 C1.79173388,11.250452 2.30794905,11.8096902 2.30794905,12.5003013 Z" id="path-1"></path>
    </defs>
    <g id="icons" stroke="none" stroke-width="1" fill="none" fill-rule="evenodd">
        <g id="graphDB-ontology-icons-images" transform="translate(-87.000000, -370.000000)">
            <g id="icon/export" transform="translate(89.000000, 372.000000)">
                <mask id="mask-2" fill="white">
                    <use xlink:href="#path-1"></use>
                </mask>
                <use id="ic-downloads" fill="#000000" xlink:href="#path-1"></use>
            </g>
        </g>
    </g>
</svg>