<?xml version="1.0" encoding="UTF-8"?>
<svg width="20px" height="20px" viewBox="0 0 20 20" version="1.1" xmlns="http://www.w3.org/2000/svg" xmlns:xlink="http://www.w3.org/1999/xlink">
    <!-- Generator: sketchtool 50.2 (55047) - http://www.bohemiancoding.com/sketch -->
    <title>E90633F1-F145-4580-8FCF-A08CBDD5DB20</title>
    <desc>Created with sketchtool.</desc>
    <defs></defs>
    <g id="icons" stroke="none" stroke-width="1" fill="none" fill-rule="evenodd">
        <g id="graphDB-ontology-icons-images" transform="translate(-42.000000, -368.000000)" fill="#000000">
            <path d="M52,388 C46.4771525,388 42,383.522847 42,378 C42,372.477153 46.4771525,368 52,368 C57.5228475,368 62,372.477153 62,378 C62,383.522847 57.5228475,388 52,388 Z M50.9911111,378.737778 L50.9911111,379.324444 L52.9911111,379.324444 L52.9911111,378.937778 C52.9911111,378.786666 53.0266663,378.635556 53.0977778,378.484444 C53.1688892,378.333333 53.3066656,378.177779 53.5111111,378.017778 C53.8311127,377.768888 54.0955545,377.540001 54.3044444,377.331111 C54.5133344,377.122221 54.6822216,376.915557 54.8111111,376.711111 C54.9400006,376.506666 55.0311108,376.300001 55.0844444,376.091111 C55.137778,375.882221 55.1644444,375.64889 55.1644444,375.391111 C55.1644444,374.964442 55.0844452,374.586668 54.9244444,374.257778 C54.7644436,373.928887 54.546668,373.653334 54.2711111,373.431111 C53.9955542,373.208888 53.6777796,373.042223 53.3177778,372.931111 C52.957776,372.819999 52.5733354,372.764444 52.1644444,372.764444 C51.2311064,372.764444 50.4666696,373.011109 49.8711111,373.504444 C49.2755526,373.99778 48.9288894,374.715551 48.8311111,375.657778 L50.8844444,375.791111 C50.9111112,375.462221 51.0333322,375.182223 51.2511111,374.951111 C51.46889,374.719999 51.7866646,374.604444 52.2044444,374.604444 C52.4800014,374.604444 52.708888,374.686666 52.8911111,374.851111 C53.0733342,375.015556 53.1644444,375.244443 53.1644444,375.537778 C53.1644444,375.68889 53.1222226,375.833333 53.0377778,375.971111 C52.9533329,376.10889 52.8355563,376.255555 52.6844444,376.411111 C52.5333326,376.566667 52.3533344,376.733332 52.1444444,376.911111 C51.9355545,377.08889 51.7066679,377.297777 51.4577778,377.537778 C51.288888,377.697779 51.1688892,377.87111 51.0977778,378.057778 C51.0266663,378.244445 50.9911111,378.47111 50.9911111,378.737778 Z M50.7644444,381.297778 C50.7644444,381.128888 50.7955552,380.96889 50.8577778,380.817778 C50.9200003,380.666666 51.0066661,380.535556 51.1177778,380.424444 C51.2288894,380.313333 51.3599992,380.226667 51.5111111,380.164444 C51.662223,380.102222 51.8222214,380.071111 51.9911111,380.071111 C52.1600008,380.071111 52.3199992,380.102222 52.4711111,380.164444 C52.622223,380.226667 52.7533328,380.313333 52.8644444,380.424444 C52.9755561,380.535556 53.0622219,380.666666 53.1244444,380.817778 C53.186667,380.96889 53.2177778,381.128888 53.2177778,381.297778 C53.2177778,381.466668 53.186667,381.626666 53.1244444,381.777778 C53.0622219,381.92889 52.9755561,382.059999 52.8644444,382.171111 C52.7533328,382.282223 52.622223,382.368889 52.4711111,382.431111 C52.3199992,382.493334 52.1600008,382.524444 51.9911111,382.524444 C51.8222214,382.524444 51.662223,382.493334 51.5111111,382.431111 C51.3599992,382.368889 51.2288894,382.282223 51.1177778,382.171111 C51.0066661,382.059999 50.9200003,381.92889 50.8577778,381.777778 C50.7955552,381.626666 50.7644444,381.466668 50.7644444,381.297778 L50.7644444,381.297778 Z" id="ic-help"></path>
        </g>
    </g>
</svg>