<?xml version="1.0" encoding="UTF-8"?>
<svg width="24px" height="24px" viewBox="0 0 24 24" version="1.1" xmlns="http://www.w3.org/2000/svg" xmlns:xlink="http://www.w3.org/1999/xlink">
    <!-- Generator: sketchtool 50.2 (55047) - http://www.bohemiancoding.com/sketch -->
    <title>3B9702E2-09FD-409D-B728-3D8173098526</title>
    <desc>Created with sketchtool.</desc>
    <defs></defs>
    <g id="Symbols" stroke="none" stroke-width="1" fill="none" fill-rule="evenodd">
        <g id="button/pin" fill="#000000">
            <path d="M12.2297297,14.4787164 C12.1513514,14.4819908 12.0756757,14.4819908 12,14.4819908 C11.9216216,14.4819908 11.8432432,14.4819908 11.7675676,14.4787164 L11.7675676,14.3379175 L12.2297297,14.3379175 L12.2297297,14.4787164 Z M12,19.7865095 L11.9027027,19.0170269 L11.9027027,14.5016372 L12.0945946,14.5016372 L12.0972973,18.9941061 L12,19.7865095 Z M13.9459459,8.88932547 L13.9459459,4.83235102 C15.2540541,4.616241 16.2567568,4.16437459 16.2567568,3.49312377 C16.2567568,2.5140799 14.1162162,2 12,2 C9.88378378,2 7.74054054,2.5140799 7.74054054,3.49312377 C7.74054054,4.16437459 8.74324324,4.616241 10.0540541,4.83235102 L10.0540541,8.88932547 C8.25945946,9.51473477 7,10.978389 7,12.681074 C7,13.2770138 7.54594595,13.7452521 8.62162162,14.0661428 C9.42972973,14.3084479 10.4864865,14.4525213 11.6324324,14.475442 C11.6324324,15.9423707 11.6324324,19.0006549 11.6351351,19.043222 L12,22 L12.3648649,19.0203012 L12.3648649,14.4787164 C14.2405405,14.4296005 17,14.0137525 17,12.681074 C17,10.978389 15.7378378,9.51473477 13.9459459,8.88932547 Z" id="pin" transform="translate(12.000000, 12.000000) rotate(60.000000) translate(-12.000000, -12.000000) "></path>
        </g>
    </g>
</svg>