<svg xmlns="http://www.w3.org/2000/svg" xmlns:xlink="http://www.w3.org/1999/xlink" width="64" height="64" viewBox="0 0 64 64">
    <defs>
        <circle id="a" cx="32" cy="32" r="32"/>
    </defs>
    <g fill="none" fill-rule="evenodd">
        <mask id="b" fill="#fff">
            <use xlink:href="#a"/>
        </mask>
        <use fill="#FFF" xlink:href="#a"/>
        <g mask="url(#b)">
            <g transform="translate(7.111 5.333)">
                <path fill="#0081CB" d="M43.037 37.45a4.439 4.439 0 0 1-4.44 4.444H12.1a4.443 4.443 0 0 1-4.446-4.443V26.46c0-9.734 7.91-17.627 17.676-17.637 9.772 0 17.694 7.896 17.694 17.636l.013 10.99z"/>
                <ellipse cx="17.928" cy="24.533" fill="#FFF" opacity=".8" rx="1.86" ry="1.854"/>
                <path fill="#0081CB" d="M24.348 6.116l1.27.012-.074 7.762-1.27-.012z"/>
                <ellipse cx="24.922" cy="3.372" fill="#0081CB" rx="3.149" ry="3.138" transform="rotate(-1.45 24.922 3.372)"/>
                <path fill="#0081CB" d="M5.076 35.584C2.682 35.584.73 32.85.73 29.491c0-3.358 1.989-6.11 4.346-6.11v12.203zM45.584 23.38c2.393 0 4.345 2.735 4.345 6.093s-1.988 6.111-4.345 6.111V23.38z"/>
                <rect width="12.889" height="4.001" x="18.885" y="44.28" fill="#0081CB" rx="1.778"/>
                <path fill="#0081CB" d="M46.725 65.424H3.935v-1.723c0-7.32 4.121-13.255 9.206-13.255h24.286c5.084 0 9.206 5.935 9.206 13.255l.092 1.723z"/>
                <ellipse cx="32.676" cy="24.533" fill="#FFF" opacity=".8" rx="1.86" ry="1.854"/>
                <path fill="#DDEEFB" d="M24.889 35.556c3.436 0 6.222-1.572 6.222-3.51 0-.058-12.444-.064-12.444 0 0 1.938 2.785 3.51 6.222 3.51z"/>
            </g>
        </g>
    </g>
</svg>
