<svg xmlns="http://www.w3.org/2000/svg" width="456" height="40" viewBox="0 0 456 40">
    <path fill="#FFF" fill-rule="evenodd" d="M8.663 25.57h8.989l4.49-7.78-4.49-7.788H8.663l-4.49 7.788 4.49 7.78zm14.516 3.402h5.576l2.786-4.827-2.786-4.83H23.18l-2.786 4.83 2.786 4.827zM1.327 26.744h2.655l1.326-2.299-1.326-2.3H1.327L0 24.445l1.327 2.299zM199.2 13.822v11.537h3.345c3.563 0 5.89-2.4 5.89-5.72v-.049c0-3.32-2.327-5.768-5.89-5.768H199.2zm-2.981-2.715h6.326c5.332 0 9.016 3.66 9.016 8.435v.048c0 4.775-3.684 8.483-9.016 8.483h-6.326V11.107zm-18.615 9.768v-9.768h2.98v9.647c0 3.15 1.625 4.823 4.29 4.823 2.643 0 4.267-1.576 4.267-4.702v-9.768h2.981v9.622c0 5.066-2.86 7.611-7.295 7.611-4.411 0-7.223-2.545-7.223-7.465zm-6.472-1.236v-.049c0-3.296-2.4-6.035-5.769-6.035s-5.72 2.69-5.72 5.987v.048c0 3.297 2.4 6.01 5.769 6.01s5.72-2.665 5.72-5.961zm-14.616 0v-.049c0-4.775 3.684-8.774 8.896-8.774 5.211 0 8.847 3.951 8.847 8.726v.048c0 4.775-3.685 8.774-8.896 8.774s-8.847-3.95-8.847-8.725zm-13.282-8.532h2.981v14.252h8.92v2.714h-11.901V11.107zm-18.64 8.532v-.049c0-4.823 3.612-8.774 8.75-8.774 3.128 0 5.018 1.09 6.642 2.642l-1.915 2.206c-1.357-1.26-2.812-2.11-4.75-2.11-3.224 0-5.6 2.667-5.6 5.988v.048c0 3.32 2.351 6.01 5.6 6.01 2.084 0 3.417-.823 4.871-2.18l1.915 1.939c-1.77 1.842-3.708 3.005-6.884 3.005-4.944 0-8.628-3.853-8.628-8.725zm-13.258 0v-.049c0-3.296-2.4-6.035-5.768-6.035-3.37 0-5.72 2.69-5.72 5.987v.048c0 3.297 2.4 6.01 5.768 6.01 3.37 0 5.72-2.665 5.72-5.961zm-14.615 0v-.049c0-4.775 3.684-8.774 8.895-8.774 5.212 0 8.847 3.951 8.847 8.726v.048c0 4.775-3.684 8.774-8.895 8.774-5.211 0-8.847-3.95-8.847-8.725zm-17.403 0v-.049c0-4.823 3.611-8.774 8.75-8.774 3.126 0 5.017 1.09 6.64 2.642l-1.914 2.206c-1.357-1.26-2.812-2.11-4.75-2.11-3.224 0-5.6 2.667-5.6 5.988v.048c0 3.32 2.351 6.01 5.6 6.01 2.084 0 3.417-.823 4.871-2.18l1.915 1.939c-1.77 1.842-3.708 3.005-6.884 3.005-4.944 0-8.628-3.853-8.628-8.725zm-9.09 1.139h-4.726v4.654h4.945c2.036 0 3.272-.8 3.272-2.328v-.048c0-1.43-1.14-2.278-3.49-2.278zm2.545-4.872c0-1.333-1.066-2.157-2.98-2.157h-4.29v4.508h4.071c1.915 0 3.2-.751 3.2-2.302v-.049zM62.57 11.107h7.611c1.939 0 3.466.533 4.436 1.503.751.751 1.139 1.672 1.139 2.812v.048c0 2.036-1.164 3.127-2.424 3.781 1.988.679 3.37 1.817 3.37 4.12v.049c0 3.03-2.498 4.653-6.278 4.653H62.57V11.107zm-7.513 16.966h2.981V11.107h-2.98v16.966zM43.35 13.87h-5.381v-2.763h13.767v2.763h-5.381v14.203H43.35V13.87zm174.043-5.397l-.854 2.3h-.383l-.86-2.305-.031 2.347h-.373L214.985 8h.509l.864 2.314.86-2.314h.5l.09 2.815h-.386l-.029-2.342zm-3.857-.113v2.455h-.376V8.36h-.985V8h2.346v.36h-.985zm-183.719.113l-.855 2.3h-.382l-.86-2.305-.032 2.347h-.373L27.41 8h.508l.865 2.314.86-2.314h.499l.09 2.815h-.385l-.029-2.342zm-3.858-.113v2.455h-.375V8.36h-.985V8h2.345v.36h-.985zM224.84 15.4c0 .848.296 1.496.888 1.944.672.512 1.896.96 3.672 1.344 1.904.416 3.292.996 4.164 1.74.872.744 1.308 1.756 1.308 3.036 0 1.44-.536 2.596-1.608 3.468-1.072.872-2.448 1.308-4.128 1.308-2.576 0-4.864-.896-6.864-2.688l1.176-1.392c1.76 1.584 3.68 2.376 5.76 2.376 1.12 0 2.024-.268 2.712-.804.688-.536 1.032-1.228 1.032-2.076 0-.832-.288-1.472-.864-1.92-.64-.496-1.808-.928-3.504-1.296-1.984-.432-3.408-1-4.272-1.704-.912-.752-1.368-1.808-1.368-3.168 0-1.344.52-2.448 1.56-3.312 1.04-.864 2.36-1.296 3.96-1.296 2.224 0 4.192.688 5.904 2.064l-1.104 1.464c-1.488-1.216-3.104-1.824-4.848-1.824-1.072 0-1.936.26-2.592.78-.656.52-.984 1.172-.984 1.956zm18.102 1.656c-1.184 0-2.44.304-3.768.912l-.552-1.512c1.504-.688 3.008-1.032 4.512-1.032 1.696 0 3 .424 3.912 1.272.912.848 1.368 2.088 1.368 3.72V28h-1.776v-1.872c-1.088 1.424-2.584 2.136-4.488 2.136-1.248 0-2.304-.328-3.168-.984-.976-.72-1.464-1.688-1.464-2.904 0-1.296.48-2.292 1.44-2.988.96-.696 2.248-1.044 3.864-1.044 1.296 0 2.568.176 3.816.528v-.432c0-2.256-1.232-3.384-3.696-3.384zm.072 4.656c-1.152 0-2.044.232-2.676.696-.632.464-.948 1.096-.948 1.896 0 .768.312 1.384.936 1.848.576.432 1.304.648 2.184.648 1.152 0 2.132-.316 2.94-.948.808-.632 1.212-1.436 1.212-2.412v-1.2a13.064 13.064 0 0 0-3.648-.528zM262.22 17.8c1.072-1.648 2.528-2.472 4.368-2.472 1.424 0 2.548.448 3.372 1.344.824.896 1.236 2.112 1.236 3.648V28h-1.848v-7.248c0-1.2-.284-2.124-.852-2.772-.568-.648-1.356-.972-2.364-.972-.976 0-1.792.344-2.448 1.032-.656.688-.984 1.624-.984 2.808V28h-1.824v-7.296c0-1.152-.284-2.056-.852-2.712-.568-.656-1.348-.984-2.34-.984-.992 0-1.816.368-2.472 1.104-.656.736-.984 1.672-.984 2.808V28h-1.848V15.592h1.848v2.088c1.04-1.568 2.376-2.352 4.008-2.352 1.856 0 3.184.824 3.984 2.472zm25.542 3.984c0 1.952-.616 3.544-1.848 4.776-1.136 1.136-2.496 1.704-4.08 1.704-1.952 0-3.536-.88-4.752-2.64v6.216h-1.848V15.592h1.848v2.496c1.248-1.84 2.832-2.76 4.752-2.76 1.584 0 2.944.56 4.08 1.68 1.232 1.232 1.848 2.824 1.848 4.776zm-1.896.024c0-1.44-.432-2.616-1.296-3.528-.832-.864-1.856-1.296-3.072-1.296-1.2 0-2.232.44-3.096 1.32-.928.928-1.392 2.088-1.392 3.48 0 1.408.464 2.576 1.392 3.504.864.88 1.896 1.32 3.096 1.32 1.248 0 2.288-.432 3.12-1.296.832-.864 1.248-2.032 1.248-3.504zm7.35 6.192h-1.848V10.48h1.848V28zm5.43-5.52c.128 1.296.616 2.328 1.464 3.096.8.736 1.768 1.104 2.904 1.104 1.488 0 2.792-.584 3.912-1.752l1.152 1.032c-1.392 1.552-3.096 2.328-5.112 2.328-1.744 0-3.2-.6-4.368-1.8-1.216-1.216-1.824-2.776-1.824-4.68 0-1.808.568-3.34 1.704-4.596 1.136-1.256 2.552-1.884 4.248-1.884 1.776 0 3.2.64 4.272 1.92 1.008 1.216 1.512 2.768 1.512 4.656 0 .24-.008.432-.024.576h-9.84zm0-1.368h7.992c-.096-1.216-.472-2.2-1.128-2.952-.72-.848-1.664-1.272-2.832-1.272-1.072 0-1.98.4-2.724 1.2-.744.8-1.18 1.808-1.308 3.024zm27.036-8.16V28h-1.92V12.952h-5.64V11.2h13.2v1.752h-5.64zm10.014 9.528c.128 1.296.616 2.328 1.464 3.096.8.736 1.768 1.104 2.904 1.104 1.488 0 2.792-.584 3.912-1.752l1.152 1.032c-1.392 1.552-3.096 2.328-5.112 2.328-1.744 0-3.2-.6-4.368-1.8-1.216-1.216-1.824-2.776-1.824-4.68 0-1.808.568-3.34 1.704-4.596 1.136-1.256 2.552-1.884 4.248-1.884 1.776 0 3.2.64 4.272 1.92 1.008 1.216 1.512 2.768 1.512 4.656 0 .24-.008.432-.024.576h-9.84zm0-1.368h7.992c-.096-1.216-.472-2.2-1.128-2.952-.72-.848-1.664-1.272-2.832-1.272-1.072 0-1.98.4-2.724 1.2-.744.8-1.18 1.808-1.308 3.024zm14.982-.216V28h-1.848V15.592h1.848v2.16c.976-1.616 2.392-2.424 4.248-2.424 1.472 0 2.632.452 3.48 1.356.848.904 1.272 2.108 1.272 3.612V28h-1.848v-7.248c0-1.168-.3-2.084-.9-2.748-.6-.664-1.444-.996-2.532-.996-1.072 0-1.96.36-2.664 1.08-.704.72-1.056 1.656-1.056 2.808zm17.454-3.84c-1.184 0-2.44.304-3.768.912l-.552-1.512c1.504-.688 3.008-1.032 4.512-1.032 1.696 0 3 .424 3.912 1.272.912.848 1.368 2.088 1.368 3.72V28h-1.776v-1.872c-1.088 1.424-2.584 2.136-4.488 2.136-1.248 0-2.304-.328-3.168-.984-.976-.72-1.464-1.688-1.464-2.904 0-1.296.48-2.292 1.44-2.988.96-.696 2.248-1.044 3.864-1.044 1.296 0 2.568.176 3.816.528v-.432c0-2.256-1.232-3.384-3.696-3.384zm.072 4.656c-1.152 0-2.044.232-2.676.696-.632.464-.948 1.096-.948 1.896 0 .768.312 1.384.936 1.848.576.432 1.304.648 2.184.648 1.152 0 2.132-.316 2.94-.948.808-.632 1.212-1.436 1.212-2.412v-1.2a13.064 13.064 0 0 0-3.648-.528zm11.214-.816V28h-1.848V15.592h1.848v2.16c.976-1.616 2.392-2.424 4.248-2.424 1.472 0 2.632.452 3.48 1.356.848.904 1.272 2.108 1.272 3.612V28h-1.848v-7.248c0-1.168-.3-2.084-.9-2.748-.6-.664-1.444-.996-2.532-.996-1.072 0-1.96.36-2.664 1.08-.704.72-1.056 1.656-1.056 2.808zm15.462-3.672v7.248c0 1.376.696 2.064 2.088 2.064.608 0 1.208-.144 1.8-.432v1.584a4.736 4.736 0 0 1-2.232.528c-2.336 0-3.504-1.168-3.504-3.504v-7.488h-1.728v-1.632h1.728v-3.744h1.848v3.744h3.936v1.632h-3.936z"/>
</svg>
